<svg width="606" height="169" viewBox="0 0 606 169" fill="none" xmlns="http://www.w3.org/2000/svg">
<path d="M1.655 42V0.699997H9.62V42H1.655ZM14.022 42V12.736H20.807L21.515 17.515H21.751C22.695 15.7843 23.9733 14.447 25.586 13.503C27.1986 12.5197 29.2243 12.028 31.663 12.028C34.1016 12.028 36.1666 12.559 37.858 13.621C39.5493 14.6437 40.8276 16.158 41.693 18.164C42.5976 20.17 43.05 22.648 43.05 25.598V42H35.085V26.306C35.085 23.8673 34.5933 21.999 33.61 20.701C32.6266 19.403 31.073 18.754 28.949 18.754C27.6116 18.754 26.412 19.0883 25.35 19.757C24.288 20.3863 23.462 21.3107 22.872 22.53C22.282 23.71 21.987 25.1653 21.987 26.896V42H14.022ZM60.2415 42C58.1569 42 56.3279 41.6853 54.7545 41.056C53.2205 40.3873 52.0209 39.3057 51.1555 37.811C50.2902 36.277 49.8575 34.1923 49.8575 31.557V19.108H44.8425V12.736H49.8575L50.7425 4.771H57.8225V12.736H65.6105V19.108H57.8225V31.675C57.8225 33.091 58.1175 34.0743 58.7075 34.625C59.2975 35.1363 60.3005 35.392 61.7165 35.392H65.4335V42H60.2415ZM81.3405 42.708C78.3512 42.708 75.6962 42.0787 73.3755 40.82C71.0942 39.5613 69.3045 37.7913 68.0065 35.51C66.7085 33.2287 66.0595 30.613 66.0595 27.663C66.0595 24.595 66.6888 21.9007 67.9475 19.58C69.2455 17.22 71.0352 15.3713 73.3165 14.034C75.6372 12.6967 78.3118 12.028 81.3405 12.028C84.2905 12.028 86.8668 12.6573 89.0695 13.916C91.2722 15.1747 93.0028 16.9053 94.2615 19.108C95.5202 21.2713 96.1495 23.7297 96.1495 26.483C96.1495 26.8763 96.1298 27.3287 96.0905 27.84C96.0905 28.312 96.0708 28.8037 96.0315 29.315H71.7235V24.418H88.0665C87.9485 22.5693 87.2602 21.0943 86.0015 19.993C84.7822 18.8917 83.2482 18.341 81.3995 18.341C80.0228 18.341 78.7642 18.6557 77.6235 19.285C76.4828 19.875 75.5782 20.7993 74.9095 22.058C74.2408 23.2773 73.9065 24.831 73.9065 26.719V28.43C73.9065 30.0427 74.2212 31.439 74.8505 32.619C75.4798 33.7597 76.3452 34.6447 77.4465 35.274C78.5872 35.9033 79.8655 36.218 81.2815 36.218C82.7368 36.218 83.9562 35.9033 84.9395 35.274C85.9228 34.6053 86.6702 33.7597 87.1815 32.737H95.2645C94.7138 34.5857 93.7895 36.277 92.4915 37.811C91.1935 39.3057 89.6005 40.5053 87.7125 41.41C85.8245 42.2753 83.7005 42.708 81.3405 42.708ZM99.3761 42V0.699997H107.341V42H99.3761ZM112.326 42V0.699997H120.291V42H112.326ZM125.637 42V12.736H133.602V42H125.637ZM129.649 9.019C128.194 9.019 126.994 8.606 126.05 7.78C125.145 6.91466 124.693 5.833 124.693 4.535C124.693 3.237 125.145 2.15533 126.05 1.29C126.994 0.424665 128.194 -0.00800073 129.649 -0.00800073C131.104 -0.00800073 132.284 0.424665 133.189 1.29C134.094 2.15533 134.546 3.237 134.546 4.535C134.546 5.79366 134.094 6.85566 133.189 7.721C132.284 8.58633 131.104 9.019 129.649 9.019ZM152.427 54.508C149.635 54.508 147.176 54.1737 145.052 53.505C142.968 52.8363 141.335 51.8333 140.155 50.496C139.015 49.198 138.444 47.6247 138.444 45.776C138.444 44.3993 138.798 43.1407 139.506 42C140.214 40.82 141.257 39.758 142.633 38.814C144.01 37.8307 145.701 36.985 147.707 36.277L150.598 40.23C148.868 40.82 147.609 41.528 146.822 42.354C146.036 43.18 145.642 44.124 145.642 45.186C145.642 45.9727 145.918 46.6413 146.468 47.192C147.058 47.7427 147.865 48.1557 148.887 48.431C149.91 48.7457 151.09 48.903 152.427 48.903C153.765 48.903 154.886 48.7457 155.79 48.431C156.695 48.1163 157.383 47.664 157.855 47.074C158.327 46.5233 158.563 45.8743 158.563 45.127C158.563 44.065 158.19 43.239 157.442 42.649C156.695 42.0983 155.24 41.7443 153.076 41.587C151.07 41.4297 149.3 41.2133 147.766 40.938C146.232 40.6233 144.875 40.2693 143.695 39.876C142.555 39.4433 141.571 38.9713 140.745 38.46C139.919 37.9487 139.251 37.4373 138.739 36.926V35.569L145.052 29.079L149.713 30.849L143.341 37.929L145.465 34.389C145.859 34.5463 146.272 34.7037 146.704 34.861C147.137 35.0183 147.668 35.1757 148.297 35.333C148.966 35.4903 149.792 35.6477 150.775 35.805C151.798 35.923 153.076 36.0607 154.61 36.218C157.206 36.4147 159.33 36.867 160.982 37.575C162.634 38.283 163.854 39.2467 164.64 40.466C165.427 41.6853 165.82 43.18 165.82 44.95C165.82 46.484 165.329 47.9787 164.345 49.434C163.401 50.9287 161.946 52.148 159.979 53.092C158.013 54.036 155.495 54.508 152.427 54.508ZM152.486 33.327C150.008 33.327 147.865 32.855 146.055 31.911C144.285 30.967 142.909 29.6887 141.925 28.076C140.981 26.4633 140.509 24.6737 140.509 22.707C140.509 20.7403 140.981 18.9507 141.925 17.338C142.909 15.7253 144.285 14.447 146.055 13.503C147.865 12.5197 150.008 12.028 152.486 12.028C154.964 12.028 157.088 12.5197 158.858 13.503C160.668 14.447 162.044 15.7253 162.988 17.338C163.932 18.9507 164.404 20.7403 164.404 22.707C164.404 24.6737 163.932 26.4633 162.988 28.076C162.044 29.6887 160.668 30.967 158.858 31.911C157.088 32.855 154.964 33.327 152.486 33.327ZM152.427 27.545C154.001 27.545 155.259 27.1517 156.203 26.365C157.187 25.539 157.678 24.3197 157.678 22.707C157.678 21.0943 157.187 19.8947 156.203 19.108C155.259 18.282 154.02 17.869 152.486 17.869C150.913 17.869 149.635 18.282 148.651 19.108C147.707 19.8947 147.235 21.0943 147.235 22.707C147.235 24.3197 147.707 25.539 148.651 26.365C149.635 27.1517 150.893 27.545 152.427 27.545ZM157.265 18.105L155.967 12.736H168.239V17.043L157.265 18.105ZM185.962 42.708C182.972 42.708 180.317 42.0787 177.997 40.82C175.715 39.5613 173.926 37.7913 172.628 35.51C171.33 33.2287 170.681 30.613 170.681 27.663C170.681 24.595 171.31 21.9007 172.569 19.58C173.867 17.22 175.656 15.3713 177.938 14.034C180.258 12.6967 182.933 12.028 185.962 12.028C188.912 12.028 191.488 12.6573 193.691 13.916C195.893 15.1747 197.624 16.9053 198.883 19.108C200.141 21.2713 200.771 23.7297 200.771 26.483C200.771 26.8763 200.751 27.3287 200.712 27.84C200.712 28.312 200.692 28.8037 200.653 29.315H176.345V24.418H192.688C192.57 22.5693 191.881 21.0943 190.623 19.993C189.403 18.8917 187.869 18.341 186.021 18.341C184.644 18.341 183.385 18.6557 182.245 19.285C181.104 19.875 180.199 20.7993 179.531 22.058C178.862 23.2773 178.528 24.831 178.528 26.719V28.43C178.528 30.0427 178.842 31.439 179.472 32.619C180.101 33.7597 180.966 34.6447 182.068 35.274C183.208 35.9033 184.487 36.218 185.903 36.218C187.358 36.218 188.577 35.9033 189.561 35.274C190.544 34.6053 191.291 33.7597 191.803 32.737H199.886C199.335 34.5857 198.411 36.277 197.113 37.811C195.815 39.3057 194.222 40.5053 192.334 41.41C190.446 42.2753 188.322 42.708 185.962 42.708ZM203.702 42V12.736H210.487L211.195 17.515H211.431C212.375 15.7843 213.654 14.447 215.266 13.503C216.879 12.5197 218.905 12.028 221.343 12.028C223.782 12.028 225.847 12.559 227.538 13.621C229.23 14.6437 230.508 16.158 231.373 18.164C232.278 20.17 232.73 22.648 232.73 25.598V42H224.765V26.306C224.765 23.8673 224.274 21.999 223.29 20.701C222.307 19.403 220.753 18.754 218.629 18.754C217.292 18.754 216.092 19.0883 215.03 19.757C213.968 20.3863 213.142 21.3107 212.552 22.53C211.962 23.71 211.667 25.1653 211.667 26.896V42H203.702ZM249.922 42C247.837 42 246.008 41.6853 244.435 41.056C242.901 40.3873 241.701 39.3057 240.836 37.811C239.971 36.277 239.538 34.1923 239.538 31.557V19.108H234.523V12.736H239.538L240.423 4.771H247.503V12.736H255.291V19.108H247.503V31.675C247.503 33.091 247.798 34.0743 248.388 34.625C248.978 35.1363 249.981 35.392 251.397 35.392H255.114V42H249.922ZM1.36 105V75.736H8.145L8.853 80.515H9.089C10.033 78.7843 11.3113 77.447 12.924 76.503C14.5367 75.5197 16.5623 75.028 19.001 75.028C21.4397 75.028 23.5047 75.559 25.196 76.621C26.8873 77.6437 28.1657 79.158 29.031 81.164C29.9357 83.17 30.388 85.648 30.388 88.598V105H22.423V89.306C22.423 86.8673 21.9313 84.999 20.948 83.701C19.9647 82.403 18.411 81.754 16.287 81.754C14.9497 81.754 13.75 82.0883 12.688 82.757C11.626 83.3863 10.8 84.3107 10.21 85.53C9.62 86.71 9.325 88.1653 9.325 89.896V105H1.36ZM48.4056 105.708C45.5736 105.708 43.0169 105.059 40.7356 103.761C38.4543 102.463 36.6449 100.654 35.3076 98.333C34.0096 96.0123 33.3606 93.3573 33.3606 90.368C33.3606 87.3393 34.0293 84.6843 35.3666 82.403C36.7039 80.0823 38.5133 78.273 40.7946 76.975C43.0759 75.677 45.6129 75.028 48.4056 75.028C51.2376 75.028 53.7943 75.677 56.0756 76.975C58.3569 78.273 60.1466 80.0823 61.4446 82.403C62.7819 84.6843 63.4506 87.3393 63.4506 90.368C63.4506 93.3967 62.7819 96.0713 61.4446 98.392C60.1073 100.673 58.2979 102.463 56.0166 103.761C53.7746 105.059 51.2376 105.708 48.4056 105.708ZM48.3466 98.982C49.6446 98.982 50.8049 98.6673 51.8276 98.038C52.8896 97.4087 53.7353 96.4647 54.3646 95.206C54.9939 93.908 55.3086 92.2953 55.3086 90.368C55.3086 88.4407 54.9939 86.8477 54.3646 85.589C53.7353 84.291 52.8896 83.3273 51.8276 82.698C50.8049 82.0687 49.6839 81.754 48.4646 81.754C47.2059 81.754 46.0456 82.0687 44.9836 82.698C43.9216 83.3273 43.0759 84.291 42.4466 85.589C41.8173 86.8477 41.5026 88.4407 41.5026 90.368C41.5026 92.2953 41.8173 93.908 42.4466 95.206C43.0759 96.4647 43.9019 97.4087 44.9246 98.038C45.9866 98.6673 47.1273 98.982 48.3466 98.982ZM78.8519 105C76.7672 105 74.9382 104.685 73.3649 104.056C71.8309 103.387 70.6312 102.306 69.7659 100.811C68.9006 99.277 68.4679 97.1923 68.4679 94.557V82.108H63.4529V75.736H68.4679L69.3529 67.771H76.4329V75.736H84.2209V82.108H76.4329V94.675C76.4329 96.091 76.7279 97.0743 77.3179 97.625C77.9079 98.1363 78.9109 98.392 80.3269 98.392H84.0439V105H78.8519ZM99.9508 105.708C96.9615 105.708 94.3065 105.079 91.9858 103.82C89.7045 102.561 87.9148 100.791 86.6168 98.51C85.3188 96.2287 84.6698 93.613 84.6698 90.663C84.6698 87.595 85.2992 84.9007 86.5578 82.58C87.8558 80.22 89.6455 78.3713 91.9268 77.034C94.2475 75.6967 96.9222 75.028 99.9508 75.028C102.901 75.028 105.477 75.6573 107.68 76.916C109.883 78.1747 111.613 79.9053 112.872 82.108C114.131 84.2713 114.76 86.7297 114.76 89.483C114.76 89.8763 114.74 90.3287 114.701 90.84C114.701 91.312 114.681 91.8037 114.642 92.315H90.3338V87.418H106.677C106.559 85.5693 105.871 84.0943 104.612 82.993C103.393 81.8917 101.859 81.341 100.01 81.341C98.6332 81.341 97.3745 81.6557 96.2338 82.285C95.0932 82.875 94.1885 83.7993 93.5198 85.058C92.8512 86.2773 92.5168 87.831 92.5168 89.719V91.43C92.5168 93.0427 92.8315 94.439 93.4608 95.619C94.0902 96.7597 94.9555 97.6447 96.0568 98.274C97.1975 98.9033 98.4758 99.218 99.8918 99.218C101.347 99.218 102.567 98.9033 103.55 98.274C104.533 97.6053 105.281 96.7597 105.792 95.737H113.875C113.324 97.5857 112.4 99.277 111.102 100.811C109.804 102.306 108.211 103.505 106.323 104.41C104.435 105.275 102.311 105.708 99.9508 105.708ZM119.992 91.253V84.586H144.89V91.253H119.992ZM164.602 105C162.518 105 160.689 104.685 159.115 104.056C157.581 103.387 156.382 102.306 155.516 100.811C154.651 99.277 154.218 97.1923 154.218 94.557V82.108H149.203V75.736H154.218L155.103 67.771H162.183V75.736H169.971V82.108H162.183V94.675C162.183 96.091 162.478 97.0743 163.068 97.625C163.658 98.1363 164.661 98.392 166.077 98.392H169.794V105H164.602ZM181.612 105.708C179.292 105.708 177.364 105.315 175.83 104.528C174.336 103.741 173.234 102.679 172.526 101.342C171.818 100.005 171.464 98.5297 171.464 96.917C171.464 95.1077 171.917 93.5147 172.821 92.138C173.765 90.7613 175.181 89.6993 177.069 88.952C178.957 88.1653 181.337 87.772 184.208 87.772H191.583C191.583 86.3167 191.367 85.117 190.934 84.173C190.541 83.229 189.912 82.521 189.046 82.049C188.22 81.577 187.158 81.341 185.86 81.341C184.326 81.341 183.009 81.695 181.907 82.403C180.845 83.0717 180.177 84.1337 179.901 85.589H172.172C172.408 83.4257 173.116 81.5573 174.296 79.984C175.516 78.4107 177.109 77.1913 179.075 76.326C181.081 75.4607 183.343 75.028 185.86 75.028C188.692 75.028 191.131 75.5 193.176 76.444C195.222 77.3487 196.795 78.7057 197.896 80.515C198.998 82.285 199.548 84.4483 199.548 87.005V105H192.94L192.114 100.457H191.878C191.249 101.322 190.561 102.089 189.813 102.758C189.105 103.427 188.319 103.977 187.453 104.41C186.588 104.843 185.664 105.157 184.68 105.354C183.697 105.59 182.674 105.708 181.612 105.708ZM184.208 99.572C185.31 99.572 186.254 99.395 187.04 99.041C187.866 98.6477 188.574 98.1363 189.164 97.507C189.754 96.8777 190.207 96.15 190.521 95.324C190.875 94.4587 191.111 93.5737 191.229 92.669H185.093C183.874 92.669 182.871 92.8263 182.084 93.141C181.337 93.4163 180.786 93.8293 180.432 94.38C180.078 94.8913 179.901 95.501 179.901 96.209C179.901 96.917 180.078 97.5267 180.432 98.038C180.786 98.5493 181.298 98.9427 181.966 99.218C182.635 99.454 183.382 99.572 184.208 99.572ZM223.267 105L210.464 88.893L221.733 75.736H231.173L216.6 92.197L216.541 85.884L233.12 105H223.267ZM203.679 105V63.7H211.644V105H203.679ZM235.37 105V75.736H243.335V105H235.37ZM239.382 72.019C237.927 72.019 236.727 71.606 235.783 70.78C234.878 69.9147 234.426 68.833 234.426 67.535C234.426 66.237 234.878 65.1553 235.783 64.29C236.727 63.4247 237.927 62.992 239.382 62.992C240.837 62.992 242.017 63.4247 242.922 64.29C243.827 65.1553 244.279 66.237 244.279 67.535C244.279 68.7937 243.827 69.8557 242.922 70.721C242.017 71.5863 240.837 72.019 239.382 72.019ZM248.413 105V75.736H255.198L255.906 80.515H256.142C257.086 78.7843 258.365 77.447 259.977 76.503C261.59 75.5197 263.616 75.028 266.054 75.028C268.493 75.028 270.558 75.559 272.249 76.621C273.941 77.6437 275.219 79.158 276.084 81.164C276.989 83.17 277.441 85.648 277.441 88.598V105H269.476V89.306C269.476 86.8673 268.985 84.999 268.001 83.701C267.018 82.403 265.464 81.754 263.34 81.754C262.003 81.754 260.803 82.0883 259.741 82.757C258.679 83.3863 257.853 84.3107 257.263 85.53C256.673 86.71 256.378 88.1653 256.378 89.896V105H248.413ZM295.046 117.508C292.253 117.508 289.795 117.174 287.671 116.505C285.586 115.836 283.954 114.833 282.774 113.496C281.633 112.198 281.063 110.625 281.063 108.776C281.063 107.399 281.417 106.141 282.125 105C282.833 103.82 283.875 102.758 285.252 101.814C286.629 100.831 288.32 99.985 290.326 99.277L293.217 103.23C291.486 103.82 290.228 104.528 289.441 105.354C288.654 106.18 288.261 107.124 288.261 108.186C288.261 108.973 288.536 109.641 289.087 110.192C289.677 110.743 290.483 111.156 291.506 111.431C292.529 111.746 293.709 111.903 295.046 111.903C296.383 111.903 297.504 111.746 298.409 111.431C299.314 111.116 300.002 110.664 300.474 110.074C300.946 109.523 301.182 108.874 301.182 108.127C301.182 107.065 300.808 106.239 300.061 105.649C299.314 105.098 297.858 104.744 295.695 104.587C293.689 104.43 291.919 104.213 290.385 103.938C288.851 103.623 287.494 103.269 286.314 102.876C285.173 102.443 284.19 101.971 283.364 101.46C282.538 100.949 281.869 100.437 281.358 99.926V98.569L287.671 92.079L292.332 93.849L285.96 100.929L288.084 97.389C288.477 97.5463 288.89 97.7037 289.323 97.861C289.756 98.0183 290.287 98.1757 290.916 98.333C291.585 98.4903 292.411 98.6477 293.394 98.805C294.417 98.923 295.695 99.0607 297.229 99.218C299.825 99.4147 301.949 99.867 303.601 100.575C305.253 101.283 306.472 102.247 307.259 103.466C308.046 104.685 308.439 106.18 308.439 107.95C308.439 109.484 307.947 110.979 306.964 112.434C306.02 113.929 304.565 115.148 302.598 116.092C300.631 117.036 298.114 117.508 295.046 117.508ZM295.105 96.327C292.627 96.327 290.483 95.855 288.674 94.911C286.904 93.967 285.527 92.6887 284.544 91.076C283.6 89.4633 283.128 87.6737 283.128 85.707C283.128 83.7403 283.6 81.9507 284.544 80.338C285.527 78.7253 286.904 77.447 288.674 76.503C290.483 75.5197 292.627 75.028 295.105 75.028C297.583 75.028 299.707 75.5197 301.477 76.503C303.286 77.447 304.663 78.7253 305.607 80.338C306.551 81.9507 307.023 83.7403 307.023 85.707C307.023 87.6737 306.551 89.4633 305.607 91.076C304.663 92.6887 303.286 93.967 301.477 94.911C299.707 95.855 297.583 96.327 295.105 96.327ZM295.046 90.545C296.619 90.545 297.878 90.1517 298.822 89.365C299.805 88.539 300.297 87.3197 300.297 85.707C300.297 84.0943 299.805 82.8947 298.822 82.108C297.878 81.282 296.639 80.869 295.105 80.869C293.532 80.869 292.253 81.282 291.27 82.108C290.326 82.8947 289.854 84.0943 289.854 85.707C289.854 87.3197 290.326 88.539 291.27 89.365C292.253 90.1517 293.512 90.545 295.046 90.545ZM299.884 81.105L298.586 75.736H310.858V80.043L299.884 81.105Z" fill="url(#paint0_linear_4111_30)"/>
<path d="M283.109 42.708C280.002 42.708 277.288 42.059 274.967 40.761C272.686 39.4237 270.896 37.6143 269.598 35.333C268.34 33.0123 267.71 30.3573 267.71 27.368C267.71 24.3787 268.359 21.7433 269.657 19.462C270.955 17.1413 272.765 15.332 275.085 14.034C277.406 12.6967 280.081 12.028 283.109 12.028C286.885 12.028 290.052 13.0113 292.608 14.978C295.204 16.9447 296.856 19.6587 297.564 23.12H289.127C288.813 21.704 288.085 20.6027 286.944 19.816C285.843 19.0293 284.545 18.636 283.05 18.636C281.674 18.636 280.435 18.99 279.333 19.698C278.271 20.3667 277.426 21.35 276.796 22.648C276.167 23.946 275.852 25.5193 275.852 27.368C275.852 28.7053 276.029 29.905 276.383 30.967C276.737 32.029 277.229 32.9337 277.858 33.681C278.488 34.4283 279.235 34.9987 280.1 35.392C281.005 35.746 281.988 35.923 283.05 35.923C284.073 35.923 284.997 35.7657 285.823 35.451C286.649 35.097 287.357 34.6053 287.947 33.976C288.537 33.3073 288.931 32.5207 289.127 31.616H297.564C296.856 34.9987 295.204 37.693 292.608 39.699C290.052 41.705 286.885 42.708 283.109 42.708ZM301.085 42V0.699997H309.05V42H301.085ZM327.612 42.708C324.78 42.708 322.223 42.059 319.942 40.761C317.66 39.463 315.851 37.6537 314.514 35.333C313.216 33.0123 312.567 30.3573 312.567 27.368C312.567 24.3393 313.235 21.6843 314.573 19.403C315.91 17.0823 317.719 15.273 320.001 13.975C322.282 12.677 324.819 12.028 327.612 12.028C330.444 12.028 333 12.677 335.282 13.975C337.563 15.273 339.353 17.0823 340.651 19.403C341.988 21.6843 342.657 24.3393 342.657 27.368C342.657 30.3967 341.988 33.0713 340.651 35.392C339.313 37.6733 337.504 39.463 335.223 40.761C332.981 42.059 330.444 42.708 327.612 42.708ZM327.553 35.982C328.851 35.982 330.011 35.6673 331.034 35.038C332.096 34.4087 332.941 33.4647 333.571 32.206C334.2 30.908 334.515 29.2953 334.515 27.368C334.515 25.4407 334.2 23.8477 333.571 22.589C332.941 21.291 332.096 20.3273 331.034 19.698C330.011 19.0687 328.89 18.754 327.671 18.754C326.412 18.754 325.252 19.0687 324.19 19.698C323.128 20.3273 322.282 21.291 321.653 22.589C321.023 23.8477 320.709 25.4407 320.709 27.368C320.709 29.2953 321.023 30.908 321.653 32.206C322.282 33.4647 323.108 34.4087 324.131 35.038C325.193 35.6673 326.333 35.982 327.553 35.982ZM356.968 42.708C354.569 42.708 352.524 42.1967 350.832 41.174C349.141 40.1513 347.843 38.637 346.938 36.631C346.034 34.5857 345.581 32.088 345.581 29.138V12.736H353.487V28.43C353.487 30.8687 353.979 32.737 354.962 34.035C355.985 35.333 357.558 35.982 359.682 35.982C361.059 35.982 362.259 35.6673 363.281 35.038C364.343 34.3693 365.169 33.4253 365.759 32.206C366.349 30.9867 366.644 29.5313 366.644 27.84V12.736H374.609V42H367.824L367.116 37.339H366.88C365.976 38.991 364.697 40.3087 363.045 41.292C361.433 42.236 359.407 42.708 356.968 42.708ZM391.565 42.708C388.811 42.708 386.412 42.059 384.367 40.761C382.321 39.4237 380.728 37.5947 379.588 35.274C378.447 32.9533 377.877 30.318 377.877 27.368C377.877 24.418 378.447 21.7827 379.588 19.462C380.728 17.1413 382.341 15.332 384.426 14.034C386.51 12.6967 388.988 12.028 391.86 12.028C394.141 12.028 396.108 12.4803 397.76 13.385C399.451 14.2503 400.788 15.2927 401.772 16.512V0.699997H409.737V42H403.011L402.598 36.867H402.362C401.614 38.0863 400.71 39.1287 399.648 39.994C398.586 40.8593 397.386 41.528 396.049 42C394.711 42.472 393.217 42.708 391.565 42.708ZM393.925 36.159C395.537 36.159 396.934 35.7853 398.114 35.038C399.333 34.2907 400.257 33.268 400.887 31.97C401.555 30.6327 401.89 29.079 401.89 27.309C401.89 25.5783 401.555 24.064 400.887 22.766C400.257 21.4287 399.333 20.3863 398.114 19.639C396.894 18.8917 395.478 18.518 393.866 18.518C392.292 18.518 390.896 18.8917 389.677 19.639C388.497 20.3863 387.572 21.4287 386.904 22.766C386.274 24.064 385.96 25.5783 385.96 27.309C385.96 29.079 386.274 30.6327 386.904 31.97C387.572 33.268 388.497 34.2907 389.677 35.038C390.896 35.7853 392.312 36.159 393.925 36.159ZM416.484 28.253V21.586H441.382V28.253H416.484ZM466.168 42.708C464.555 42.708 463.06 42.472 461.684 42C460.346 41.528 459.147 40.8593 458.085 39.994C457.062 39.1287 456.177 38.0863 455.43 36.867H455.194L454.722 42H448.055V0.699997H456.02V16.512C457.003 15.2927 458.321 14.2503 459.973 13.385C461.664 12.4803 463.65 12.028 465.932 12.028C468.803 12.028 471.281 12.6967 473.366 14.034C475.45 15.332 477.063 17.1413 478.204 19.462C479.344 21.7433 479.915 24.3787 479.915 27.368C479.915 30.318 479.344 32.9533 478.204 35.274C477.063 37.5947 475.47 39.4237 473.425 40.761C471.379 42.059 468.96 42.708 466.168 42.708ZM463.867 36.159C465.479 36.159 466.876 35.7853 468.056 35.038C469.275 34.2513 470.199 33.209 470.829 31.911C471.497 30.613 471.832 29.079 471.832 27.309C471.832 25.5783 471.497 24.064 470.829 22.766C470.199 21.4287 469.275 20.3863 468.056 19.639C466.876 18.8917 465.479 18.518 463.867 18.518C462.293 18.518 460.897 18.8917 459.678 19.639C458.458 20.3863 457.514 21.4287 456.846 22.766C456.177 24.064 455.843 25.598 455.843 27.368C455.843 29.0987 456.177 30.6327 456.846 31.97C457.514 33.268 458.458 34.2907 459.678 35.038C460.897 35.7853 462.293 36.159 463.867 36.159ZM492.738 42.708C490.418 42.708 488.49 42.3147 486.956 41.528C485.462 40.7413 484.36 39.6793 483.652 38.342C482.944 37.0047 482.59 35.5297 482.59 33.917C482.59 32.1077 483.043 30.5147 483.947 29.138C484.891 27.7613 486.307 26.6993 488.195 25.952C490.083 25.1653 492.463 24.772 495.334 24.772H502.709C502.709 23.3167 502.493 22.117 502.06 21.173C501.667 20.229 501.038 19.521 500.172 19.049C499.346 18.577 498.284 18.341 496.986 18.341C495.452 18.341 494.135 18.695 493.033 19.403C491.971 20.0717 491.303 21.1337 491.027 22.589H483.298C483.534 20.4257 484.242 18.5573 485.422 16.984C486.642 15.4107 488.235 14.1913 490.201 13.326C492.207 12.4607 494.469 12.028 496.986 12.028C499.818 12.028 502.257 12.5 504.302 13.444C506.348 14.3487 507.921 15.7057 509.022 17.515C510.124 19.285 510.674 21.4483 510.674 24.005V42H504.066L503.24 37.457H503.004C502.375 38.3223 501.687 39.0893 500.939 39.758C500.231 40.4267 499.445 40.9773 498.579 41.41C497.714 41.8427 496.79 42.1573 495.806 42.354C494.823 42.59 493.8 42.708 492.738 42.708ZM495.334 36.572C496.436 36.572 497.38 36.395 498.166 36.041C498.992 35.6477 499.7 35.1363 500.29 34.507C500.88 33.8777 501.333 33.15 501.647 32.324C502.001 31.4587 502.237 30.5737 502.355 29.669H496.219C495 29.669 493.997 29.8263 493.21 30.141C492.463 30.4163 491.912 30.8293 491.558 31.38C491.204 31.8913 491.027 32.501 491.027 33.209C491.027 33.917 491.204 34.5267 491.558 35.038C491.912 35.5493 492.424 35.9427 493.092 36.218C493.761 36.454 494.508 36.572 495.334 36.572ZM526.782 42.708C524.186 42.708 521.885 42.2753 519.879 41.41C517.913 40.5447 516.32 39.3647 515.1 37.87C513.92 36.336 513.232 34.6053 513.035 32.678H521C521.158 33.386 521.472 34.0547 521.944 34.684C522.416 35.3133 523.046 35.8247 523.832 36.218C524.658 36.572 525.602 36.749 526.664 36.749C527.766 36.749 528.651 36.6113 529.319 36.336C529.988 36.0213 530.48 35.628 530.794 35.156C531.148 34.684 531.325 34.1727 531.325 33.622C531.325 32.8747 531.07 32.3043 530.558 31.911C530.086 31.4783 529.378 31.1047 528.434 30.79C527.53 30.4753 526.448 30.141 525.189 29.787C523.891 29.433 522.574 29.0593 521.236 28.666C519.938 28.2727 518.739 27.781 517.637 27.191C516.536 26.5617 515.651 25.775 514.982 24.831C514.353 23.8477 514.038 22.6283 514.038 21.173C514.038 19.4817 514.51 17.9477 515.454 16.571C516.398 15.1943 517.755 14.093 519.525 13.267C521.335 12.441 523.478 12.028 525.956 12.028C529.496 12.028 532.309 12.8343 534.393 14.447C536.517 16.0597 537.756 18.282 538.11 21.114H530.617C530.421 20.1307 529.909 19.3637 529.083 18.813C528.297 18.2623 527.254 17.987 525.956 17.987C524.58 17.987 523.518 18.2623 522.77 18.813C522.062 19.3243 521.708 19.9537 521.708 20.701C521.708 21.2517 521.944 21.7237 522.416 22.117C522.888 22.471 523.577 22.8053 524.481 23.12C525.425 23.3953 526.546 23.71 527.844 24.064C529.929 24.6147 531.837 25.2047 533.567 25.834C535.298 26.4633 536.675 27.3287 537.697 28.43C538.72 29.492 539.231 31.0063 539.231 32.973C539.271 34.861 538.779 36.5327 537.756 37.988C536.734 39.4433 535.298 40.6037 533.449 41.469C531.601 42.295 529.378 42.708 526.782 42.708ZM556.549 42.708C553.559 42.708 550.904 42.0787 548.584 40.82C546.302 39.5613 544.513 37.7913 543.215 35.51C541.917 33.2287 541.268 30.613 541.268 27.663C541.268 24.595 541.897 21.9007 543.156 19.58C544.454 17.22 546.243 15.3713 548.525 14.034C550.845 12.6967 553.52 12.028 556.549 12.028C559.499 12.028 562.075 12.6573 564.278 13.916C566.48 15.1747 568.211 16.9053 569.47 19.108C570.728 21.2713 571.358 23.7297 571.358 26.483C571.358 26.8763 571.338 27.3287 571.299 27.84C571.299 28.312 571.279 28.8037 571.24 29.315H546.932V24.418H563.275C563.157 22.5693 562.468 21.0943 561.21 19.993C559.99 18.8917 558.456 18.341 556.608 18.341C555.231 18.341 553.972 18.6557 552.832 19.285C551.691 19.875 550.786 20.7993 550.118 22.058C549.449 23.2773 549.115 24.831 549.115 26.719V28.43C549.115 30.0427 549.429 31.439 550.059 32.619C550.688 33.7597 551.553 34.6447 552.655 35.274C553.795 35.9033 555.074 36.218 556.49 36.218C557.945 36.218 559.164 35.9033 560.148 35.274C561.131 34.6053 561.878 33.7597 562.39 32.737H570.473C569.922 34.5857 568.998 36.277 567.7 37.811C566.402 39.3057 564.809 40.5053 562.921 41.41C561.033 42.2753 558.909 42.708 556.549 42.708ZM587.092 42.708C584.339 42.708 581.94 42.059 579.894 40.761C577.849 39.4237 576.256 37.5947 575.115 35.274C573.975 32.9533 573.404 30.318 573.404 27.368C573.404 24.418 573.975 21.7827 575.115 19.462C576.256 17.1413 577.869 15.332 579.953 14.034C582.038 12.6967 584.516 12.028 587.387 12.028C589.669 12.028 591.635 12.4803 593.287 13.385C594.979 14.2503 596.316 15.2927 597.299 16.512V0.699997H605.264V42H598.538L598.125 36.867H597.889C597.142 38.0863 596.237 39.1287 595.175 39.994C594.113 40.8593 592.914 41.528 591.576 42C590.239 42.472 588.744 42.708 587.092 42.708ZM589.452 36.159C591.065 36.159 592.461 35.7853 593.641 35.038C594.861 34.2907 595.785 33.268 596.414 31.97C597.083 30.6327 597.417 29.079 597.417 27.309C597.417 25.5783 597.083 24.064 596.414 22.766C595.785 21.4287 594.861 20.3863 593.641 19.639C592.422 18.8917 591.006 18.518 589.393 18.518C587.82 18.518 586.424 18.8917 585.204 19.639C584.024 20.3863 583.1 21.4287 582.431 22.766C581.802 24.064 581.487 25.5783 581.487 27.309C581.487 29.079 581.802 30.6327 582.431 31.97C583.1 33.268 584.024 34.2907 585.204 35.038C586.424 35.7853 587.84 36.159 589.452 36.159ZM334.964 105.708C332.643 105.708 330.716 105.315 329.182 104.528C327.687 103.741 326.586 102.679 325.878 101.342C325.17 100.005 324.816 98.5297 324.816 96.917C324.816 95.1077 325.268 93.5147 326.173 92.138C327.117 90.7613 328.533 89.6993 330.421 88.952C332.309 88.1653 334.689 87.772 337.56 87.772H344.935C344.935 86.3167 344.719 85.117 344.286 84.173C343.893 83.229 343.263 82.521 342.398 82.049C341.572 81.577 340.51 81.341 339.212 81.341C337.678 81.341 336.36 81.695 335.259 82.403C334.197 83.0717 333.528 84.1337 333.253 85.589H325.524C325.76 83.4257 326.468 81.5573 327.648 79.984C328.867 78.4107 330.46 77.1913 332.427 76.326C334.433 75.4607 336.695 75.028 339.212 75.028C342.044 75.028 344.483 75.5 346.528 76.444C348.573 77.3487 350.147 78.7057 351.248 80.515C352.349 82.285 352.9 84.4483 352.9 87.005V105H346.292L345.466 100.457H345.23C344.601 101.322 343.912 102.089 343.165 102.758C342.457 103.427 341.67 103.977 340.805 104.41C339.94 104.843 339.015 105.157 338.032 105.354C337.049 105.59 336.026 105.708 334.964 105.708ZM337.56 99.572C338.661 99.572 339.605 99.395 340.392 99.041C341.218 98.6477 341.926 98.1363 342.516 97.507C343.106 96.8777 343.558 96.15 343.873 95.324C344.227 94.4587 344.463 93.5737 344.581 92.669H338.445C337.226 92.669 336.223 92.8263 335.436 93.141C334.689 93.4163 334.138 93.8293 333.784 94.38C333.43 94.8913 333.253 95.501 333.253 96.209C333.253 96.917 333.43 97.5267 333.784 98.038C334.138 98.5493 334.649 98.9427 335.318 99.218C335.987 99.454 336.734 99.572 337.56 99.572ZM356.736 105V75.736H363.521L364.229 80.515H364.465C365.409 78.7843 366.687 77.447 368.3 76.503C369.913 75.5197 371.938 75.028 374.377 75.028C376.816 75.028 378.881 75.559 380.572 76.621C382.263 77.6437 383.542 79.158 384.407 81.164C385.312 83.17 385.764 85.648 385.764 88.598V105H377.799V89.306C377.799 86.8673 377.307 84.999 376.324 83.701C375.341 82.403 373.787 81.754 371.663 81.754C370.326 81.754 369.126 82.0883 368.064 82.757C367.002 83.3863 366.176 84.3107 365.586 85.53C364.996 86.71 364.701 88.1653 364.701 89.896V105H356.736ZM402.424 105.708C399.671 105.708 397.272 105.059 395.226 103.761C393.181 102.424 391.588 100.595 390.447 98.274C389.307 95.9533 388.736 93.318 388.736 90.368C388.736 87.418 389.307 84.7827 390.447 82.462C391.588 80.1413 393.201 78.332 395.285 77.034C397.37 75.6967 399.848 75.028 402.719 75.028C405.001 75.028 406.967 75.4803 408.619 76.385C410.311 77.2503 411.648 78.2927 412.631 79.512V63.7H420.596V105H413.87L413.457 99.867H413.221C412.474 101.086 411.569 102.129 410.507 102.994C409.445 103.859 408.246 104.528 406.908 105C405.571 105.472 404.076 105.708 402.424 105.708ZM404.784 99.159C406.397 99.159 407.793 98.7853 408.973 98.038C410.193 97.2907 411.117 96.268 411.746 94.97C412.415 93.6327 412.749 92.079 412.749 90.309C412.749 88.5783 412.415 87.064 411.746 85.766C411.117 84.4287 410.193 83.3863 408.973 82.639C407.754 81.8917 406.338 81.518 404.725 81.518C403.152 81.518 401.756 81.8917 400.536 82.639C399.356 83.3863 398.432 84.4287 397.763 85.766C397.134 87.064 396.819 88.5783 396.819 90.309C396.819 92.079 397.134 93.6327 397.763 94.97C398.432 96.268 399.356 97.2907 400.536 98.038C401.756 98.7853 403.172 99.159 404.784 99.159ZM15.874 168.708C12.7667 168.708 10.0527 168.059 7.732 166.761C5.45067 165.424 3.661 163.614 2.363 161.333C1.10433 159.012 0.475 156.357 0.475 153.368C0.475 150.379 1.124 147.743 2.422 145.462C3.72 143.141 5.52933 141.332 7.85 140.034C10.1707 138.697 12.8453 138.028 15.874 138.028C19.65 138.028 22.8163 139.011 25.373 140.978C27.969 142.945 29.621 145.659 30.329 149.12H21.892C21.5773 147.704 20.8497 146.603 19.709 145.816C18.6077 145.029 17.3097 144.636 15.815 144.636C14.4383 144.636 13.1993 144.99 12.098 145.698C11.036 146.367 10.1903 147.35 9.561 148.648C8.93167 149.946 8.617 151.519 8.617 153.368C8.617 154.705 8.794 155.905 9.148 156.967C9.502 158.029 9.99367 158.934 10.623 159.681C11.2523 160.428 11.9997 160.999 12.865 161.392C13.7697 161.746 14.753 161.923 15.815 161.923C16.8377 161.923 17.762 161.766 18.588 161.451C19.414 161.097 20.122 160.605 20.712 159.976C21.302 159.307 21.6953 158.521 21.892 157.616H30.329C29.621 160.999 27.969 163.693 25.373 165.699C22.8163 167.705 19.65 168.708 15.874 168.708ZM47.7142 168.708C44.8822 168.708 42.3255 168.059 40.0442 166.761C37.7628 165.463 35.9535 163.654 34.6162 161.333C33.3182 159.012 32.6692 156.357 32.6692 153.368C32.6692 150.339 33.3378 147.684 34.6752 145.403C36.0125 143.082 37.8218 141.273 40.1032 139.975C42.3845 138.677 44.9215 138.028 47.7142 138.028C50.5462 138.028 53.1028 138.677 55.3842 139.975C57.6655 141.273 59.4552 143.082 60.7532 145.403C62.0905 147.684 62.7592 150.339 62.7592 153.368C62.7592 156.397 62.0905 159.071 60.7532 161.392C59.4158 163.673 57.6065 165.463 55.3252 166.761C53.0832 168.059 50.5462 168.708 47.7142 168.708ZM47.6552 161.982C48.9532 161.982 50.1135 161.667 51.1362 161.038C52.1982 160.409 53.0438 159.465 53.6732 158.206C54.3025 156.908 54.6172 155.295 54.6172 153.368C54.6172 151.441 54.3025 149.848 53.6732 148.589C53.0438 147.291 52.1982 146.327 51.1362 145.698C50.1135 145.069 48.9925 144.754 47.7732 144.754C46.5145 144.754 45.3542 145.069 44.2922 145.698C43.2302 146.327 42.3845 147.291 41.7552 148.589C41.1258 149.848 40.8112 151.441 40.8112 153.368C40.8112 155.295 41.1258 156.908 41.7552 158.206C42.3845 159.465 43.2105 160.409 44.2332 161.038C45.2952 161.667 46.4358 161.982 47.6552 161.982ZM66.2738 168V126.7H74.2388V168H66.2738ZM79.2239 168V126.7H87.1889V168H79.2239ZM101.149 168.708C98.8282 168.708 96.9008 168.315 95.3668 167.528C93.8722 166.741 92.7708 165.679 92.0628 164.342C91.3548 163.005 91.0008 161.53 91.0008 159.917C91.0008 158.108 91.4532 156.515 92.3578 155.138C93.3018 153.761 94.7178 152.699 96.6058 151.952C98.4938 151.165 100.873 150.772 103.745 150.772H111.12C111.12 149.317 110.903 148.117 110.471 147.173C110.077 146.229 109.448 145.521 108.583 145.049C107.757 144.577 106.695 144.341 105.397 144.341C103.863 144.341 102.545 144.695 101.444 145.403C100.382 146.072 99.7132 147.134 99.4378 148.589H91.7088C91.9448 146.426 92.6528 144.557 93.8328 142.984C95.0522 141.411 96.6452 140.191 98.6118 139.326C100.618 138.461 102.879 138.028 105.397 138.028C108.229 138.028 110.667 138.5 112.713 139.444C114.758 140.349 116.331 141.706 117.433 143.515C118.534 145.285 119.085 147.448 119.085 150.005V168H112.477L111.651 163.457H111.415C110.785 164.322 110.097 165.089 109.35 165.758C108.642 166.427 107.855 166.977 106.99 167.41C106.124 167.843 105.2 168.157 104.217 168.354C103.233 168.59 102.211 168.708 101.149 168.708ZM103.745 162.572C104.846 162.572 105.79 162.395 106.577 162.041C107.403 161.648 108.111 161.136 108.701 160.507C109.291 159.878 109.743 159.15 110.058 158.324C110.412 157.459 110.648 156.574 110.766 155.669H104.63C103.41 155.669 102.407 155.826 101.621 156.141C100.873 156.416 100.323 156.829 99.9688 157.38C99.6148 157.891 99.4378 158.501 99.4378 159.209C99.4378 159.917 99.6148 160.527 99.9688 161.038C100.323 161.549 100.834 161.943 101.503 162.218C102.171 162.454 102.919 162.572 103.745 162.572ZM141.559 168.708C139.947 168.708 138.452 168.472 137.075 168C135.738 167.528 134.538 166.859 133.476 165.994C132.454 165.129 131.569 164.086 130.821 162.867H130.585L130.113 168H123.446V126.7H131.411V142.512C132.395 141.293 133.712 140.25 135.364 139.385C137.056 138.48 139.042 138.028 141.323 138.028C144.195 138.028 146.673 138.697 148.757 140.034C150.842 141.332 152.455 143.141 153.595 145.462C154.736 147.743 155.306 150.379 155.306 153.368C155.306 156.318 154.736 158.953 153.595 161.274C152.455 163.595 150.862 165.424 148.816 166.761C146.771 168.059 144.352 168.708 141.559 168.708ZM139.258 162.159C140.871 162.159 142.267 161.785 143.447 161.038C144.667 160.251 145.591 159.209 146.22 157.911C146.889 156.613 147.223 155.079 147.223 153.309C147.223 151.578 146.889 150.064 146.22 148.766C145.591 147.429 144.667 146.386 143.447 145.639C142.267 144.892 140.871 144.518 139.258 144.518C137.685 144.518 136.289 144.892 135.069 145.639C133.85 146.386 132.906 147.429 132.237 148.766C131.569 150.064 131.234 151.598 131.234 153.368C131.234 155.099 131.569 156.633 132.237 157.97C132.906 159.268 133.85 160.291 135.069 161.038C136.289 161.785 137.685 162.159 139.258 162.159ZM172.732 168.708C169.9 168.708 167.343 168.059 165.062 166.761C162.781 165.463 160.971 163.654 159.634 161.333C158.336 159.012 157.687 156.357 157.687 153.368C157.687 150.339 158.356 147.684 159.693 145.403C161.03 143.082 162.84 141.273 165.121 139.975C167.402 138.677 169.939 138.028 172.732 138.028C175.564 138.028 178.121 138.677 180.402 139.975C182.683 141.273 184.473 143.082 185.771 145.403C187.108 147.684 187.777 150.339 187.777 153.368C187.777 156.397 187.108 159.071 185.771 161.392C184.434 163.673 182.624 165.463 180.343 166.761C178.101 168.059 175.564 168.708 172.732 168.708ZM172.673 161.982C173.971 161.982 175.131 161.667 176.154 161.038C177.216 160.409 178.062 159.465 178.691 158.206C179.32 156.908 179.635 155.295 179.635 153.368C179.635 151.441 179.32 149.848 178.691 148.589C178.062 147.291 177.216 146.327 176.154 145.698C175.131 145.069 174.01 144.754 172.791 144.754C171.532 144.754 170.372 145.069 169.31 145.698C168.248 146.327 167.402 147.291 166.773 148.589C166.144 149.848 165.829 151.441 165.829 153.368C165.829 155.295 166.144 156.908 166.773 158.206C167.402 159.465 168.228 160.409 169.251 161.038C170.313 161.667 171.454 161.982 172.673 161.982ZM190.997 168V138.736H197.782L198.49 145.167H198.726C199.591 143.082 200.535 141.548 201.558 140.565C202.58 139.542 203.741 138.874 205.039 138.559C206.376 138.205 207.871 138.028 209.523 138.028V146.465H207.34C206.002 146.465 204.803 146.622 203.741 146.937C202.718 147.212 201.853 147.684 201.145 148.353C200.437 148.982 199.886 149.828 199.493 150.89C199.139 151.952 198.962 153.23 198.962 154.725V168H190.997ZM221.168 168.708C218.847 168.708 216.92 168.315 215.386 167.528C213.891 166.741 212.79 165.679 212.082 164.342C211.374 163.005 211.02 161.53 211.02 159.917C211.02 158.108 211.472 156.515 212.377 155.138C213.321 153.761 214.737 152.699 216.625 151.952C218.513 151.165 220.892 150.772 223.764 150.772H231.139C231.139 149.317 230.922 148.117 230.49 147.173C230.096 146.229 229.467 145.521 228.602 145.049C227.776 144.577 226.714 144.341 225.416 144.341C223.882 144.341 222.564 144.695 221.463 145.403C220.401 146.072 219.732 147.134 219.457 148.589H211.728C211.964 146.426 212.672 144.557 213.852 142.984C215.071 141.411 216.664 140.191 218.631 139.326C220.637 138.461 222.898 138.028 225.416 138.028C228.248 138.028 230.686 138.5 232.732 139.444C234.777 140.349 236.35 141.706 237.452 143.515C238.553 145.285 239.104 147.448 239.104 150.005V168H232.496L231.67 163.457H231.434C230.804 164.322 230.116 165.089 229.369 165.758C228.661 166.427 227.874 166.977 227.009 167.41C226.143 167.843 225.219 168.157 224.236 168.354C223.252 168.59 222.23 168.708 221.168 168.708ZM223.764 162.572C224.865 162.572 225.809 162.395 226.596 162.041C227.422 161.648 228.13 161.136 228.72 160.507C229.31 159.878 229.762 159.15 230.077 158.324C230.431 157.459 230.667 156.574 230.785 155.669H224.649C223.429 155.669 222.426 155.826 221.64 156.141C220.892 156.416 220.342 156.829 219.988 157.38C219.634 157.891 219.457 158.501 219.457 159.209C219.457 159.917 219.634 160.527 219.988 161.038C220.342 161.549 220.853 161.943 221.522 162.218C222.19 162.454 222.938 162.572 223.764 162.572ZM255.928 168C253.843 168 252.014 167.685 250.441 167.056C248.907 166.387 247.707 165.306 246.842 163.811C245.977 162.277 245.544 160.192 245.544 157.557V145.108H240.529V138.736H245.544L246.429 130.771H253.509V138.736H261.297V145.108H253.509V157.675C253.509 159.091 253.804 160.074 254.394 160.625C254.984 161.136 255.987 161.392 257.403 161.392H261.12V168H255.928ZM264.324 168V138.736H272.289V168H264.324ZM268.336 135.019C266.881 135.019 265.681 134.606 264.737 133.78C263.832 132.915 263.38 131.833 263.38 130.535C263.38 129.237 263.832 128.155 264.737 127.29C265.681 126.425 266.881 125.992 268.336 125.992C269.791 125.992 270.971 126.425 271.876 127.29C272.781 128.155 273.233 129.237 273.233 130.535C273.233 131.794 272.781 132.856 271.876 133.721C270.971 134.586 269.791 135.019 268.336 135.019ZM291.527 168.708C288.695 168.708 286.138 168.059 283.857 166.761C281.576 165.463 279.766 163.654 278.429 161.333C277.131 159.012 276.482 156.357 276.482 153.368C276.482 150.339 277.151 147.684 278.488 145.403C279.825 143.082 281.635 141.273 283.916 139.975C286.197 138.677 288.734 138.028 291.527 138.028C294.359 138.028 296.916 138.677 299.197 139.975C301.478 141.273 303.268 143.082 304.566 145.403C305.903 147.684 306.572 150.339 306.572 153.368C306.572 156.397 305.903 159.071 304.566 161.392C303.229 163.673 301.419 165.463 299.138 166.761C296.896 168.059 294.359 168.708 291.527 168.708ZM291.468 161.982C292.766 161.982 293.926 161.667 294.949 161.038C296.011 160.409 296.857 159.465 297.486 158.206C298.115 156.908 298.43 155.295 298.43 153.368C298.43 151.441 298.115 149.848 297.486 148.589C296.857 147.291 296.011 146.327 294.949 145.698C293.926 145.069 292.805 144.754 291.586 144.754C290.327 144.754 289.167 145.069 288.105 145.698C287.043 146.327 286.197 147.291 285.568 148.589C284.939 149.848 284.624 151.441 284.624 153.368C284.624 155.295 284.939 156.908 285.568 158.206C286.197 159.465 287.023 160.409 288.046 161.038C289.108 161.667 290.249 161.982 291.468 161.982ZM309.792 168V138.736H316.577L317.285 143.515H317.521C318.465 141.784 319.743 140.447 321.356 139.503C322.968 138.52 324.994 138.028 327.433 138.028C329.871 138.028 331.936 138.559 333.628 139.621C335.319 140.644 336.597 142.158 337.463 144.164C338.367 146.17 338.82 148.648 338.82 151.598V168H330.855V152.306C330.855 149.867 330.363 147.999 329.38 146.701C328.396 145.403 326.843 144.754 324.719 144.754C323.381 144.754 322.182 145.088 321.12 145.757C320.058 146.386 319.232 147.311 318.642 148.53C318.052 149.71 317.757 151.165 317.757 152.896V168H309.792ZM367.233 168C365.148 168 363.319 167.685 361.746 167.056C360.212 166.387 359.012 165.306 358.147 163.811C357.281 162.277 356.849 160.192 356.849 157.557V145.108H351.834V138.736H356.849L357.734 130.771H364.814V138.736H372.602V145.108H364.814V157.675C364.814 159.091 365.109 160.074 365.699 160.625C366.289 161.136 367.292 161.392 368.708 161.392H372.425V168H367.233ZM388.096 168.708C385.264 168.708 382.707 168.059 380.426 166.761C378.144 165.463 376.335 163.654 374.998 161.333C373.7 159.012 373.051 156.357 373.051 153.368C373.051 150.339 373.719 147.684 375.057 145.403C376.394 143.082 378.203 141.273 380.485 139.975C382.766 138.677 385.303 138.028 388.096 138.028C390.928 138.028 393.484 138.677 395.766 139.975C398.047 141.273 399.837 143.082 401.135 145.403C402.472 147.684 403.141 150.339 403.141 153.368C403.141 156.397 402.472 159.071 401.135 161.392C399.797 163.673 397.988 165.463 395.707 166.761C393.465 168.059 390.928 168.708 388.096 168.708ZM388.037 161.982C389.335 161.982 390.495 161.667 391.518 161.038C392.58 160.409 393.425 159.465 394.055 158.206C394.684 156.908 394.999 155.295 394.999 153.368C394.999 151.441 394.684 149.848 394.055 148.589C393.425 147.291 392.58 146.327 391.518 145.698C390.495 145.069 389.374 144.754 388.155 144.754C386.896 144.754 385.736 145.069 384.674 145.698C383.612 146.327 382.766 147.291 382.137 148.589C381.507 149.848 381.193 151.441 381.193 153.368C381.193 155.295 381.507 156.908 382.137 158.206C382.766 159.465 383.592 160.409 384.615 161.038C385.677 161.667 386.817 161.982 388.037 161.982ZM420.52 168.708C417.688 168.708 415.132 168.059 412.85 166.761C410.569 165.463 408.76 163.654 407.422 161.333C406.124 159.012 405.475 156.357 405.475 153.368C405.475 150.339 406.144 147.684 407.481 145.403C408.819 143.082 410.628 141.273 412.909 139.975C415.191 138.677 417.728 138.028 420.52 138.028C423.352 138.028 425.909 138.677 428.19 139.975C430.472 141.273 432.261 143.082 433.559 145.403C434.897 147.684 435.565 150.339 435.565 153.368C435.565 156.397 434.897 159.071 433.559 161.392C432.222 163.673 430.413 165.463 428.131 166.761C425.889 168.059 423.352 168.708 420.52 168.708ZM420.461 161.982C421.759 161.982 422.92 161.667 423.942 161.038C425.004 160.409 425.85 159.465 426.479 158.206C427.109 156.908 427.423 155.295 427.423 153.368C427.423 151.441 427.109 149.848 426.479 148.589C425.85 147.291 425.004 146.327 423.942 145.698C422.92 145.069 421.799 144.754 420.579 144.754C419.321 144.754 418.16 145.069 417.098 145.698C416.036 146.327 415.191 147.291 414.561 148.589C413.932 149.848 413.617 151.441 413.617 153.368C413.617 155.295 413.932 156.908 414.561 158.206C415.191 159.465 416.017 160.409 417.039 161.038C418.101 161.667 419.242 161.982 420.461 161.982ZM439.08 168V126.7H447.045V168H439.08Z" fill="#EFECE6"/>
<defs>
<linearGradient id="paint0_linear_4111_30" x1="635" y1="-10" x2="436.587" y2="473.917" gradientUnits="userSpaceOnUse">
<stop stop-color="#AAD9D1"/>
<stop offset="1" stop-color="#017373"/>
</linearGradient>
</defs>
</svg>
