<svg width="636" height="220" viewBox="0 0 636 220" fill="none" xmlns="http://www.w3.org/2000/svg">
<path d="M2.655 52V10.7H10.62V52H2.655ZM15.022 52V22.736H21.807L22.515 27.515H22.751C23.695 25.7843 24.9733 24.447 26.586 23.503C28.1986 22.5197 30.2243 22.028 32.663 22.028C35.1016 22.028 37.1666 22.559 38.858 23.621C40.5493 24.6437 41.8276 26.158 42.693 28.164C43.5976 30.17 44.05 32.648 44.05 35.598V52H36.085V36.306C36.085 33.8673 35.5933 31.999 34.61 30.701C33.6266 29.403 32.073 28.754 29.949 28.754C28.6116 28.754 27.412 29.0883 26.35 29.757C25.288 30.3863 24.462 31.3107 23.872 32.53C23.282 33.71 22.987 35.1653 22.987 36.896V52H15.022ZM61.2415 52C59.1569 52 57.3279 51.6853 55.7545 51.056C54.2205 50.3873 53.0209 49.3057 52.1555 47.811C51.2902 46.277 50.8575 44.1923 50.8575 41.557V29.108H45.8425V22.736H50.8575L51.7425 14.771H58.8225V22.736H66.6105V29.108H58.8225V41.675C58.8225 43.091 59.1175 44.0743 59.7075 44.625C60.2975 45.1363 61.3005 45.392 62.7165 45.392H66.4335V52H61.2415ZM82.3405 52.708C79.3512 52.708 76.6962 52.0787 74.3755 50.82C72.0942 49.5613 70.3045 47.7913 69.0065 45.51C67.7085 43.2287 67.0595 40.613 67.0595 37.663C67.0595 34.595 67.6888 31.9007 68.9475 29.58C70.2455 27.22 72.0352 25.3713 74.3165 24.034C76.6372 22.6967 79.3118 22.028 82.3405 22.028C85.2905 22.028 87.8668 22.6573 90.0695 23.916C92.2722 25.1747 94.0028 26.9053 95.2615 29.108C96.5202 31.2713 97.1495 33.7297 97.1495 36.483C97.1495 36.8763 97.1298 37.3287 97.0905 37.84C97.0905 38.312 97.0708 38.8037 97.0315 39.315H72.7235V34.418H89.0665C88.9485 32.5693 88.2602 31.0943 87.0015 29.993C85.7822 28.8917 84.2482 28.341 82.3995 28.341C81.0228 28.341 79.7642 28.6557 78.6235 29.285C77.4828 29.875 76.5782 30.7993 75.9095 32.058C75.2408 33.2773 74.9065 34.831 74.9065 36.719V38.43C74.9065 40.0427 75.2212 41.439 75.8505 42.619C76.4798 43.7597 77.3452 44.6447 78.4465 45.274C79.5872 45.9033 80.8655 46.218 82.2815 46.218C83.7368 46.218 84.9562 45.9033 85.9395 45.274C86.9228 44.6053 87.6702 43.7597 88.1815 42.737H96.2645C95.7138 44.5857 94.7895 46.277 93.4915 47.811C92.1935 49.3057 90.6005 50.5053 88.7125 51.41C86.8245 52.2753 84.7005 52.708 82.3405 52.708ZM100.376 52V10.7H108.341V52H100.376ZM113.326 52V10.7H121.291V52H113.326ZM126.637 52V22.736H134.602V52H126.637ZM130.649 19.019C129.194 19.019 127.994 18.606 127.05 17.78C126.145 16.9147 125.693 15.833 125.693 14.535C125.693 13.237 126.145 12.1553 127.05 11.29C127.994 10.4247 129.194 9.992 130.649 9.992C132.104 9.992 133.284 10.4247 134.189 11.29C135.094 12.1553 135.546 13.237 135.546 14.535C135.546 15.7937 135.094 16.8557 134.189 17.721C133.284 18.5863 132.104 19.019 130.649 19.019ZM153.427 64.508C150.635 64.508 148.176 64.1737 146.052 63.505C143.968 62.8363 142.335 61.8333 141.155 60.496C140.015 59.198 139.444 57.6247 139.444 55.776C139.444 54.3993 139.798 53.1407 140.506 52C141.214 50.82 142.257 49.758 143.633 48.814C145.01 47.8307 146.701 46.985 148.707 46.277L151.598 50.23C149.868 50.82 148.609 51.528 147.822 52.354C147.036 53.18 146.642 54.124 146.642 55.186C146.642 55.9727 146.918 56.6413 147.468 57.192C148.058 57.7427 148.865 58.1557 149.887 58.431C150.91 58.7457 152.09 58.903 153.427 58.903C154.765 58.903 155.886 58.7457 156.79 58.431C157.695 58.1163 158.383 57.664 158.855 57.074C159.327 56.5233 159.563 55.8743 159.563 55.127C159.563 54.065 159.19 53.239 158.442 52.649C157.695 52.0983 156.24 51.7443 154.076 51.587C152.07 51.4297 150.3 51.2133 148.766 50.938C147.232 50.6233 145.875 50.2693 144.695 49.876C143.555 49.4433 142.571 48.9713 141.745 48.46C140.919 47.9487 140.251 47.4373 139.739 46.926V45.569L146.052 39.079L150.713 40.849L144.341 47.929L146.465 44.389C146.859 44.5463 147.272 44.7037 147.704 44.861C148.137 45.0183 148.668 45.1757 149.297 45.333C149.966 45.4903 150.792 45.6477 151.775 45.805C152.798 45.923 154.076 46.0607 155.61 46.218C158.206 46.4147 160.33 46.867 161.982 47.575C163.634 48.283 164.854 49.2467 165.64 50.466C166.427 51.6853 166.82 53.18 166.82 54.95C166.82 56.484 166.329 57.9787 165.345 59.434C164.401 60.9287 162.946 62.148 160.979 63.092C159.013 64.036 156.495 64.508 153.427 64.508ZM153.486 43.327C151.008 43.327 148.865 42.855 147.055 41.911C145.285 40.967 143.909 39.6887 142.925 38.076C141.981 36.4633 141.509 34.6737 141.509 32.707C141.509 30.7403 141.981 28.9507 142.925 27.338C143.909 25.7253 145.285 24.447 147.055 23.503C148.865 22.5197 151.008 22.028 153.486 22.028C155.964 22.028 158.088 22.5197 159.858 23.503C161.668 24.447 163.044 25.7253 163.988 27.338C164.932 28.9507 165.404 30.7403 165.404 32.707C165.404 34.6737 164.932 36.4633 163.988 38.076C163.044 39.6887 161.668 40.967 159.858 41.911C158.088 42.855 155.964 43.327 153.486 43.327ZM153.427 37.545C155.001 37.545 156.259 37.1517 157.203 36.365C158.187 35.539 158.678 34.3197 158.678 32.707C158.678 31.0943 158.187 29.8947 157.203 29.108C156.259 28.282 155.02 27.869 153.486 27.869C151.913 27.869 150.635 28.282 149.651 29.108C148.707 29.8947 148.235 31.0943 148.235 32.707C148.235 34.3197 148.707 35.539 149.651 36.365C150.635 37.1517 151.893 37.545 153.427 37.545ZM158.265 28.105L156.967 22.736H169.239V27.043L158.265 28.105ZM186.962 52.708C183.972 52.708 181.317 52.0787 178.997 50.82C176.715 49.5613 174.926 47.7913 173.628 45.51C172.33 43.2287 171.681 40.613 171.681 37.663C171.681 34.595 172.31 31.9007 173.569 29.58C174.867 27.22 176.656 25.3713 178.938 24.034C181.258 22.6967 183.933 22.028 186.962 22.028C189.912 22.028 192.488 22.6573 194.691 23.916C196.893 25.1747 198.624 26.9053 199.883 29.108C201.141 31.2713 201.771 33.7297 201.771 36.483C201.771 36.8763 201.751 37.3287 201.712 37.84C201.712 38.312 201.692 38.8037 201.653 39.315H177.345V34.418H193.688C193.57 32.5693 192.881 31.0943 191.623 29.993C190.403 28.8917 188.869 28.341 187.021 28.341C185.644 28.341 184.385 28.6557 183.245 29.285C182.104 29.875 181.199 30.7993 180.531 32.058C179.862 33.2773 179.528 34.831 179.528 36.719V38.43C179.528 40.0427 179.842 41.439 180.472 42.619C181.101 43.7597 181.966 44.6447 183.068 45.274C184.208 45.9033 185.487 46.218 186.903 46.218C188.358 46.218 189.577 45.9033 190.561 45.274C191.544 44.6053 192.291 43.7597 192.803 42.737H200.886C200.335 44.5857 199.411 46.277 198.113 47.811C196.815 49.3057 195.222 50.5053 193.334 51.41C191.446 52.2753 189.322 52.708 186.962 52.708ZM204.702 52V22.736H211.487L212.195 27.515H212.431C213.375 25.7843 214.654 24.447 216.266 23.503C217.879 22.5197 219.905 22.028 222.343 22.028C224.782 22.028 226.847 22.559 228.538 23.621C230.23 24.6437 231.508 26.158 232.373 28.164C233.278 30.17 233.73 32.648 233.73 35.598V52H225.765V36.306C225.765 33.8673 225.274 31.999 224.29 30.701C223.307 29.403 221.753 28.754 219.629 28.754C218.292 28.754 217.092 29.0883 216.03 29.757C214.968 30.3863 214.142 31.3107 213.552 32.53C212.962 33.71 212.667 35.1653 212.667 36.896V52H204.702ZM250.922 52C248.837 52 247.008 51.6853 245.435 51.056C243.901 50.3873 242.701 49.3057 241.836 47.811C240.971 46.277 240.538 44.1923 240.538 41.557V29.108H235.523V22.736H240.538L241.423 14.771H248.503V22.736H256.291V29.108H248.503V41.675C248.503 43.091 248.798 44.0743 249.388 44.625C249.978 45.1363 250.981 45.392 252.397 45.392H256.114V52H250.922ZM2.36 115V85.736H9.145L9.853 90.515H10.089C11.033 88.7843 12.3113 87.447 13.924 86.503C15.5367 85.5197 17.5623 85.028 20.001 85.028C22.4397 85.028 24.5047 85.559 26.196 86.621C27.8873 87.6437 29.1657 89.158 30.031 91.164C30.9357 93.17 31.388 95.648 31.388 98.598V115H23.423V99.306C23.423 96.8673 22.9313 94.999 21.948 93.701C20.9647 92.403 19.411 91.754 17.287 91.754C15.9497 91.754 14.75 92.0883 13.688 92.757C12.626 93.3863 11.8 94.3107 11.21 95.53C10.62 96.71 10.325 98.1653 10.325 99.896V115H2.36ZM49.4056 115.708C46.5736 115.708 44.0169 115.059 41.7356 113.761C39.4543 112.463 37.6449 110.654 36.3076 108.333C35.0096 106.012 34.3606 103.357 34.3606 100.368C34.3606 97.3393 35.0293 94.6843 36.3666 92.403C37.7039 90.0823 39.5133 88.273 41.7946 86.975C44.0759 85.677 46.6129 85.028 49.4056 85.028C52.2376 85.028 54.7943 85.677 57.0756 86.975C59.3569 88.273 61.1466 90.0823 62.4446 92.403C63.7819 94.6843 64.4506 97.3393 64.4506 100.368C64.4506 103.397 63.7819 106.071 62.4446 108.392C61.1073 110.673 59.2979 112.463 57.0166 113.761C54.7746 115.059 52.2376 115.708 49.4056 115.708ZM49.3466 108.982C50.6446 108.982 51.8049 108.667 52.8276 108.038C53.8896 107.409 54.7353 106.465 55.3646 105.206C55.9939 103.908 56.3086 102.295 56.3086 100.368C56.3086 98.4407 55.9939 96.8477 55.3646 95.589C54.7353 94.291 53.8896 93.3273 52.8276 92.698C51.8049 92.0687 50.6839 91.754 49.4646 91.754C48.2059 91.754 47.0456 92.0687 45.9836 92.698C44.9216 93.3273 44.0759 94.291 43.4466 95.589C42.8173 96.8477 42.5026 98.4407 42.5026 100.368C42.5026 102.295 42.8173 103.908 43.4466 105.206C44.0759 106.465 44.9019 107.409 45.9246 108.038C46.9866 108.667 48.1273 108.982 49.3466 108.982ZM79.8519 115C77.7672 115 75.9382 114.685 74.3649 114.056C72.8309 113.387 71.6312 112.306 70.7659 110.811C69.9006 109.277 69.4679 107.192 69.4679 104.557V92.108H64.4529V85.736H69.4679L70.3529 77.771H77.4329V85.736H85.2209V92.108H77.4329V104.675C77.4329 106.091 77.7279 107.074 78.3179 107.625C78.9079 108.136 79.9109 108.392 81.3269 108.392H85.0439V115H79.8519ZM100.951 115.708C97.9615 115.708 95.3065 115.079 92.9858 113.82C90.7045 112.561 88.9148 110.791 87.6168 108.51C86.3188 106.229 85.6698 103.613 85.6698 100.663C85.6698 97.595 86.2992 94.9007 87.5578 92.58C88.8558 90.22 90.6455 88.3713 92.9268 87.034C95.2475 85.6967 97.9222 85.028 100.951 85.028C103.901 85.028 106.477 85.6573 108.68 86.916C110.883 88.1747 112.613 89.9053 113.872 92.108C115.131 94.2713 115.76 96.7297 115.76 99.483C115.76 99.8763 115.74 100.329 115.701 100.84C115.701 101.312 115.681 101.804 115.642 102.315H91.3338V97.418H107.677C107.559 95.5693 106.871 94.0943 105.612 92.993C104.393 91.8917 102.859 91.341 101.01 91.341C99.6332 91.341 98.3745 91.6557 97.2338 92.285C96.0932 92.875 95.1885 93.7993 94.5198 95.058C93.8512 96.2773 93.5168 97.831 93.5168 99.719V101.43C93.5168 103.043 93.8315 104.439 94.4608 105.619C95.0902 106.76 95.9555 107.645 97.0568 108.274C98.1975 108.903 99.4758 109.218 100.892 109.218C102.347 109.218 103.567 108.903 104.55 108.274C105.533 107.605 106.281 106.76 106.792 105.737H114.875C114.324 107.586 113.4 109.277 112.102 110.811C110.804 112.306 109.211 113.505 107.323 114.41C105.435 115.275 103.311 115.708 100.951 115.708ZM120.992 101.253V94.586H145.89V101.253H120.992ZM165.602 115C163.518 115 161.689 114.685 160.115 114.056C158.581 113.387 157.382 112.306 156.516 110.811C155.651 109.277 155.218 107.192 155.218 104.557V92.108H150.203V85.736H155.218L156.103 77.771H163.183V85.736H170.971V92.108H163.183V104.675C163.183 106.091 163.478 107.074 164.068 107.625C164.658 108.136 165.661 108.392 167.077 108.392H170.794V115H165.602ZM182.612 115.708C180.292 115.708 178.364 115.315 176.83 114.528C175.336 113.741 174.234 112.679 173.526 111.342C172.818 110.005 172.464 108.53 172.464 106.917C172.464 105.108 172.917 103.515 173.821 102.138C174.765 100.761 176.181 99.6993 178.069 98.952C179.957 98.1653 182.337 97.772 185.208 97.772H192.583C192.583 96.3167 192.367 95.117 191.934 94.173C191.541 93.229 190.912 92.521 190.046 92.049C189.22 91.577 188.158 91.341 186.86 91.341C185.326 91.341 184.009 91.695 182.907 92.403C181.845 93.0717 181.177 94.1337 180.901 95.589H173.172C173.408 93.4257 174.116 91.5573 175.296 89.984C176.516 88.4107 178.109 87.1913 180.075 86.326C182.081 85.4607 184.343 85.028 186.86 85.028C189.692 85.028 192.131 85.5 194.176 86.444C196.222 87.3487 197.795 88.7057 198.896 90.515C199.998 92.285 200.548 94.4483 200.548 97.005V115H193.94L193.114 110.457H192.878C192.249 111.322 191.561 112.089 190.813 112.758C190.105 113.427 189.319 113.977 188.453 114.41C187.588 114.843 186.664 115.157 185.68 115.354C184.697 115.59 183.674 115.708 182.612 115.708ZM185.208 109.572C186.31 109.572 187.254 109.395 188.04 109.041C188.866 108.648 189.574 108.136 190.164 107.507C190.754 106.878 191.207 106.15 191.521 105.324C191.875 104.459 192.111 103.574 192.229 102.669H186.093C184.874 102.669 183.871 102.826 183.084 103.141C182.337 103.416 181.786 103.829 181.432 104.38C181.078 104.891 180.901 105.501 180.901 106.209C180.901 106.917 181.078 107.527 181.432 108.038C181.786 108.549 182.298 108.943 182.966 109.218C183.635 109.454 184.382 109.572 185.208 109.572ZM224.267 115L211.464 98.893L222.733 85.736H232.173L217.6 102.197L217.541 95.884L234.12 115H224.267ZM204.679 115V73.7H212.644V115H204.679ZM236.37 115V85.736H244.335V115H236.37ZM240.382 82.019C238.927 82.019 237.727 81.606 236.783 80.78C235.878 79.9147 235.426 78.833 235.426 77.535C235.426 76.237 235.878 75.1553 236.783 74.29C237.727 73.4247 238.927 72.992 240.382 72.992C241.837 72.992 243.017 73.4247 243.922 74.29C244.827 75.1553 245.279 76.237 245.279 77.535C245.279 78.7937 244.827 79.8557 243.922 80.721C243.017 81.5863 241.837 82.019 240.382 82.019ZM249.413 115V85.736H256.198L256.906 90.515H257.142C258.086 88.7843 259.365 87.447 260.977 86.503C262.59 85.5197 264.616 85.028 267.054 85.028C269.493 85.028 271.558 85.559 273.249 86.621C274.941 87.6437 276.219 89.158 277.084 91.164C277.989 93.17 278.441 95.648 278.441 98.598V115H270.476V99.306C270.476 96.8673 269.985 94.999 269.001 93.701C268.018 92.403 266.464 91.754 264.34 91.754C263.003 91.754 261.803 92.0883 260.741 92.757C259.679 93.3863 258.853 94.3107 258.263 95.53C257.673 96.71 257.378 98.1653 257.378 99.896V115H249.413ZM296.046 127.508C293.253 127.508 290.795 127.174 288.671 126.505C286.586 125.836 284.954 124.833 283.774 123.496C282.633 122.198 282.063 120.625 282.063 118.776C282.063 117.399 282.417 116.141 283.125 115C283.833 113.82 284.875 112.758 286.252 111.814C287.629 110.831 289.32 109.985 291.326 109.277L294.217 113.23C292.486 113.82 291.228 114.528 290.441 115.354C289.654 116.18 289.261 117.124 289.261 118.186C289.261 118.973 289.536 119.641 290.087 120.192C290.677 120.743 291.483 121.156 292.506 121.431C293.529 121.746 294.709 121.903 296.046 121.903C297.383 121.903 298.504 121.746 299.409 121.431C300.314 121.116 301.002 120.664 301.474 120.074C301.946 119.523 302.182 118.874 302.182 118.127C302.182 117.065 301.808 116.239 301.061 115.649C300.314 115.098 298.858 114.744 296.695 114.587C294.689 114.43 292.919 114.213 291.385 113.938C289.851 113.623 288.494 113.269 287.314 112.876C286.173 112.443 285.19 111.971 284.364 111.46C283.538 110.949 282.869 110.437 282.358 109.926V108.569L288.671 102.079L293.332 103.849L286.96 110.929L289.084 107.389C289.477 107.546 289.89 107.704 290.323 107.861C290.756 108.018 291.287 108.176 291.916 108.333C292.585 108.49 293.411 108.648 294.394 108.805C295.417 108.923 296.695 109.061 298.229 109.218C300.825 109.415 302.949 109.867 304.601 110.575C306.253 111.283 307.472 112.247 308.259 113.466C309.046 114.685 309.439 116.18 309.439 117.95C309.439 119.484 308.947 120.979 307.964 122.434C307.02 123.929 305.565 125.148 303.598 126.092C301.631 127.036 299.114 127.508 296.046 127.508ZM296.105 106.327C293.627 106.327 291.483 105.855 289.674 104.911C287.904 103.967 286.527 102.689 285.544 101.076C284.6 99.4633 284.128 97.6737 284.128 95.707C284.128 93.7403 284.6 91.9507 285.544 90.338C286.527 88.7253 287.904 87.447 289.674 86.503C291.483 85.5197 293.627 85.028 296.105 85.028C298.583 85.028 300.707 85.5197 302.477 86.503C304.286 87.447 305.663 88.7253 306.607 90.338C307.551 91.9507 308.023 93.7403 308.023 95.707C308.023 97.6737 307.551 99.4633 306.607 101.076C305.663 102.689 304.286 103.967 302.477 104.911C300.707 105.855 298.583 106.327 296.105 106.327ZM296.046 100.545C297.619 100.545 298.878 100.152 299.822 99.365C300.805 98.539 301.297 97.3197 301.297 95.707C301.297 94.0943 300.805 92.8947 299.822 92.108C298.878 91.282 297.639 90.869 296.105 90.869C294.532 90.869 293.253 91.282 292.27 92.108C291.326 92.8947 290.854 94.0943 290.854 95.707C290.854 97.3197 291.326 98.539 292.27 99.365C293.253 100.152 294.512 100.545 296.046 100.545ZM300.884 91.105L299.586 85.736H311.858V90.043L300.884 91.105Z" fill="url(#paint0_linear_4111_29)"/>
<path d="M284.109 52.708C281.002 52.708 278.288 52.059 275.967 50.761C273.686 49.4237 271.896 47.6143 270.598 45.333C269.34 43.0123 268.71 40.3573 268.71 37.368C268.71 34.3787 269.359 31.7433 270.657 29.462C271.955 27.1413 273.765 25.332 276.085 24.034C278.406 22.6967 281.081 22.028 284.109 22.028C287.885 22.028 291.052 23.0113 293.608 24.978C296.204 26.9447 297.856 29.6587 298.564 33.12H290.127C289.813 31.704 289.085 30.6027 287.944 29.816C286.843 29.0293 285.545 28.636 284.05 28.636C282.674 28.636 281.435 28.99 280.333 29.698C279.271 30.3667 278.426 31.35 277.796 32.648C277.167 33.946 276.852 35.5193 276.852 37.368C276.852 38.7053 277.029 39.905 277.383 40.967C277.737 42.029 278.229 42.9337 278.858 43.681C279.488 44.4283 280.235 44.9987 281.1 45.392C282.005 45.746 282.988 45.923 284.05 45.923C285.073 45.923 285.997 45.7657 286.823 45.451C287.649 45.097 288.357 44.6053 288.947 43.976C289.537 43.3073 289.931 42.5207 290.127 41.616H298.564C297.856 44.9987 296.204 47.693 293.608 49.699C291.052 51.705 287.885 52.708 284.109 52.708ZM302.085 52V10.7H310.05V52H302.085ZM328.612 52.708C325.78 52.708 323.223 52.059 320.942 50.761C318.66 49.463 316.851 47.6537 315.514 45.333C314.216 43.0123 313.567 40.3573 313.567 37.368C313.567 34.3393 314.235 31.6843 315.573 29.403C316.91 27.0823 318.719 25.273 321.001 23.975C323.282 22.677 325.819 22.028 328.612 22.028C331.444 22.028 334 22.677 336.282 23.975C338.563 25.273 340.353 27.0823 341.651 29.403C342.988 31.6843 343.657 34.3393 343.657 37.368C343.657 40.3967 342.988 43.0713 341.651 45.392C340.313 47.6733 338.504 49.463 336.223 50.761C333.981 52.059 331.444 52.708 328.612 52.708ZM328.553 45.982C329.851 45.982 331.011 45.6673 332.034 45.038C333.096 44.4087 333.941 43.4647 334.571 42.206C335.2 40.908 335.515 39.2953 335.515 37.368C335.515 35.4407 335.2 33.8477 334.571 32.589C333.941 31.291 333.096 30.3273 332.034 29.698C331.011 29.0687 329.89 28.754 328.671 28.754C327.412 28.754 326.252 29.0687 325.19 29.698C324.128 30.3273 323.282 31.291 322.653 32.589C322.023 33.8477 321.709 35.4407 321.709 37.368C321.709 39.2953 322.023 40.908 322.653 42.206C323.282 43.4647 324.108 44.4087 325.131 45.038C326.193 45.6673 327.333 45.982 328.553 45.982ZM357.968 52.708C355.569 52.708 353.524 52.1967 351.832 51.174C350.141 50.1513 348.843 48.637 347.938 46.631C347.034 44.5857 346.581 42.088 346.581 39.138V22.736H354.487V38.43C354.487 40.8687 354.979 42.737 355.962 44.035C356.985 45.333 358.558 45.982 360.682 45.982C362.059 45.982 363.259 45.6673 364.281 45.038C365.343 44.3693 366.169 43.4253 366.759 42.206C367.349 40.9867 367.644 39.5313 367.644 37.84V22.736H375.609V52H368.824L368.116 47.339H367.88C366.976 48.991 365.697 50.3087 364.045 51.292C362.433 52.236 360.407 52.708 357.968 52.708ZM392.565 52.708C389.811 52.708 387.412 52.059 385.367 50.761C383.321 49.4237 381.728 47.5947 380.588 45.274C379.447 42.9533 378.877 40.318 378.877 37.368C378.877 34.418 379.447 31.7827 380.588 29.462C381.728 27.1413 383.341 25.332 385.426 24.034C387.51 22.6967 389.988 22.028 392.86 22.028C395.141 22.028 397.108 22.4803 398.76 23.385C400.451 24.2503 401.788 25.2927 402.772 26.512V10.7H410.737V52H404.011L403.598 46.867H403.362C402.614 48.0863 401.71 49.1287 400.648 49.994C399.586 50.8593 398.386 51.528 397.049 52C395.711 52.472 394.217 52.708 392.565 52.708ZM394.925 46.159C396.537 46.159 397.934 45.7853 399.114 45.038C400.333 44.2907 401.257 43.268 401.887 41.97C402.555 40.6327 402.89 39.079 402.89 37.309C402.89 35.5783 402.555 34.064 401.887 32.766C401.257 31.4287 400.333 30.3863 399.114 29.639C397.894 28.8917 396.478 28.518 394.866 28.518C393.292 28.518 391.896 28.8917 390.677 29.639C389.497 30.3863 388.572 31.4287 387.904 32.766C387.274 34.064 386.96 35.5783 386.96 37.309C386.96 39.079 387.274 40.6327 387.904 41.97C388.572 43.268 389.497 44.2907 390.677 45.038C391.896 45.7853 393.312 46.159 394.925 46.159ZM417.484 38.253V31.586H442.382V38.253H417.484ZM467.168 52.708C465.555 52.708 464.06 52.472 462.684 52C461.346 51.528 460.147 50.8593 459.085 49.994C458.062 49.1287 457.177 48.0863 456.43 46.867H456.194L455.722 52H449.055V10.7H457.02V26.512C458.003 25.2927 459.321 24.2503 460.973 23.385C462.664 22.4803 464.65 22.028 466.932 22.028C469.803 22.028 472.281 22.6967 474.366 24.034C476.45 25.332 478.063 27.1413 479.204 29.462C480.344 31.7433 480.915 34.3787 480.915 37.368C480.915 40.318 480.344 42.9533 479.204 45.274C478.063 47.5947 476.47 49.4237 474.425 50.761C472.379 52.059 469.96 52.708 467.168 52.708ZM464.867 46.159C466.479 46.159 467.876 45.7853 469.056 45.038C470.275 44.2513 471.199 43.209 471.829 41.911C472.497 40.613 472.832 39.079 472.832 37.309C472.832 35.5783 472.497 34.064 471.829 32.766C471.199 31.4287 470.275 30.3863 469.056 29.639C467.876 28.8917 466.479 28.518 464.867 28.518C463.293 28.518 461.897 28.8917 460.678 29.639C459.458 30.3863 458.514 31.4287 457.846 32.766C457.177 34.064 456.843 35.598 456.843 37.368C456.843 39.0987 457.177 40.6327 457.846 41.97C458.514 43.268 459.458 44.2907 460.678 45.038C461.897 45.7853 463.293 46.159 464.867 46.159ZM493.738 52.708C491.418 52.708 489.49 52.3147 487.956 51.528C486.462 50.7413 485.36 49.6793 484.652 48.342C483.944 47.0047 483.59 45.5297 483.59 43.917C483.59 42.1077 484.043 40.5147 484.947 39.138C485.891 37.7613 487.307 36.6993 489.195 35.952C491.083 35.1653 493.463 34.772 496.334 34.772H503.709C503.709 33.3167 503.493 32.117 503.06 31.173C502.667 30.229 502.038 29.521 501.172 29.049C500.346 28.577 499.284 28.341 497.986 28.341C496.452 28.341 495.135 28.695 494.033 29.403C492.971 30.0717 492.303 31.1337 492.027 32.589H484.298C484.534 30.4257 485.242 28.5573 486.422 26.984C487.642 25.4107 489.235 24.1913 491.201 23.326C493.207 22.4607 495.469 22.028 497.986 22.028C500.818 22.028 503.257 22.5 505.302 23.444C507.348 24.3487 508.921 25.7057 510.022 27.515C511.124 29.285 511.674 31.4483 511.674 34.005V52H505.066L504.24 47.457H504.004C503.375 48.3223 502.687 49.0893 501.939 49.758C501.231 50.4267 500.445 50.9773 499.579 51.41C498.714 51.8427 497.79 52.1573 496.806 52.354C495.823 52.59 494.8 52.708 493.738 52.708ZM496.334 46.572C497.436 46.572 498.38 46.395 499.166 46.041C499.992 45.6477 500.7 45.1363 501.29 44.507C501.88 43.8777 502.333 43.15 502.647 42.324C503.001 41.4587 503.237 40.5737 503.355 39.669H497.219C496 39.669 494.997 39.8263 494.21 40.141C493.463 40.4163 492.912 40.8293 492.558 41.38C492.204 41.8913 492.027 42.501 492.027 43.209C492.027 43.917 492.204 44.5267 492.558 45.038C492.912 45.5493 493.424 45.9427 494.092 46.218C494.761 46.454 495.508 46.572 496.334 46.572ZM527.782 52.708C525.186 52.708 522.885 52.2753 520.879 51.41C518.913 50.5447 517.32 49.3647 516.1 47.87C514.92 46.336 514.232 44.6053 514.035 42.678H522C522.158 43.386 522.472 44.0547 522.944 44.684C523.416 45.3133 524.046 45.8247 524.832 46.218C525.658 46.572 526.602 46.749 527.664 46.749C528.766 46.749 529.651 46.6113 530.319 46.336C530.988 46.0213 531.48 45.628 531.794 45.156C532.148 44.684 532.325 44.1727 532.325 43.622C532.325 42.8747 532.07 42.3043 531.558 41.911C531.086 41.4783 530.378 41.1047 529.434 40.79C528.53 40.4753 527.448 40.141 526.189 39.787C524.891 39.433 523.574 39.0593 522.236 38.666C520.938 38.2727 519.739 37.781 518.637 37.191C517.536 36.5617 516.651 35.775 515.982 34.831C515.353 33.8477 515.038 32.6283 515.038 31.173C515.038 29.4817 515.51 27.9477 516.454 26.571C517.398 25.1943 518.755 24.093 520.525 23.267C522.335 22.441 524.478 22.028 526.956 22.028C530.496 22.028 533.309 22.8343 535.393 24.447C537.517 26.0597 538.756 28.282 539.11 31.114H531.617C531.421 30.1307 530.909 29.3637 530.083 28.813C529.297 28.2623 528.254 27.987 526.956 27.987C525.58 27.987 524.518 28.2623 523.77 28.813C523.062 29.3243 522.708 29.9537 522.708 30.701C522.708 31.2517 522.944 31.7237 523.416 32.117C523.888 32.471 524.577 32.8053 525.481 33.12C526.425 33.3953 527.546 33.71 528.844 34.064C530.929 34.6147 532.837 35.2047 534.567 35.834C536.298 36.4633 537.675 37.3287 538.697 38.43C539.72 39.492 540.231 41.0063 540.231 42.973C540.271 44.861 539.779 46.5327 538.756 47.988C537.734 49.4433 536.298 50.6037 534.449 51.469C532.601 52.295 530.378 52.708 527.782 52.708ZM557.549 52.708C554.559 52.708 551.904 52.0787 549.584 50.82C547.302 49.5613 545.513 47.7913 544.215 45.51C542.917 43.2287 542.268 40.613 542.268 37.663C542.268 34.595 542.897 31.9007 544.156 29.58C545.454 27.22 547.243 25.3713 549.525 24.034C551.845 22.6967 554.52 22.028 557.549 22.028C560.499 22.028 563.075 22.6573 565.278 23.916C567.48 25.1747 569.211 26.9053 570.47 29.108C571.728 31.2713 572.358 33.7297 572.358 36.483C572.358 36.8763 572.338 37.3287 572.299 37.84C572.299 38.312 572.279 38.8037 572.24 39.315H547.932V34.418H564.275C564.157 32.5693 563.468 31.0943 562.21 29.993C560.99 28.8917 559.456 28.341 557.608 28.341C556.231 28.341 554.972 28.6557 553.832 29.285C552.691 29.875 551.786 30.7993 551.118 32.058C550.449 33.2773 550.115 34.831 550.115 36.719V38.43C550.115 40.0427 550.429 41.439 551.059 42.619C551.688 43.7597 552.553 44.6447 553.655 45.274C554.795 45.9033 556.074 46.218 557.49 46.218C558.945 46.218 560.164 45.9033 561.148 45.274C562.131 44.6053 562.878 43.7597 563.39 42.737H571.473C570.922 44.5857 569.998 46.277 568.7 47.811C567.402 49.3057 565.809 50.5053 563.921 51.41C562.033 52.2753 559.909 52.708 557.549 52.708ZM588.092 52.708C585.339 52.708 582.94 52.059 580.894 50.761C578.849 49.4237 577.256 47.5947 576.115 45.274C574.975 42.9533 574.404 40.318 574.404 37.368C574.404 34.418 574.975 31.7827 576.115 29.462C577.256 27.1413 578.869 25.332 580.953 24.034C583.038 22.6967 585.516 22.028 588.387 22.028C590.669 22.028 592.635 22.4803 594.287 23.385C595.979 24.2503 597.316 25.2927 598.299 26.512V10.7H606.264V52H599.538L599.125 46.867H598.889C598.142 48.0863 597.237 49.1287 596.175 49.994C595.113 50.8593 593.914 51.528 592.576 52C591.239 52.472 589.744 52.708 588.092 52.708ZM590.452 46.159C592.065 46.159 593.461 45.7853 594.641 45.038C595.861 44.2907 596.785 43.268 597.414 41.97C598.083 40.6327 598.417 39.079 598.417 37.309C598.417 35.5783 598.083 34.064 597.414 32.766C596.785 31.4287 595.861 30.3863 594.641 29.639C593.422 28.8917 592.006 28.518 590.393 28.518C588.82 28.518 587.424 28.8917 586.204 29.639C585.024 30.3863 584.1 31.4287 583.431 32.766C582.802 34.064 582.487 35.5783 582.487 37.309C582.487 39.079 582.802 40.6327 583.431 41.97C584.1 43.268 585.024 44.2907 586.204 45.038C587.424 45.7853 588.84 46.159 590.452 46.159ZM335.964 115.708C333.643 115.708 331.716 115.315 330.182 114.528C328.687 113.741 327.586 112.679 326.878 111.342C326.17 110.005 325.816 108.53 325.816 106.917C325.816 105.108 326.268 103.515 327.173 102.138C328.117 100.761 329.533 99.6993 331.421 98.952C333.309 98.1653 335.689 97.772 338.56 97.772H345.935C345.935 96.3167 345.719 95.117 345.286 94.173C344.893 93.229 344.263 92.521 343.398 92.049C342.572 91.577 341.51 91.341 340.212 91.341C338.678 91.341 337.36 91.695 336.259 92.403C335.197 93.0717 334.528 94.1337 334.253 95.589H326.524C326.76 93.4257 327.468 91.5573 328.648 89.984C329.867 88.4107 331.46 87.1913 333.427 86.326C335.433 85.4607 337.695 85.028 340.212 85.028C343.044 85.028 345.483 85.5 347.528 86.444C349.573 87.3487 351.147 88.7057 352.248 90.515C353.349 92.285 353.9 94.4483 353.9 97.005V115H347.292L346.466 110.457H346.23C345.601 111.322 344.912 112.089 344.165 112.758C343.457 113.427 342.67 113.977 341.805 114.41C340.94 114.843 340.015 115.157 339.032 115.354C338.049 115.59 337.026 115.708 335.964 115.708ZM338.56 109.572C339.661 109.572 340.605 109.395 341.392 109.041C342.218 108.648 342.926 108.136 343.516 107.507C344.106 106.878 344.558 106.15 344.873 105.324C345.227 104.459 345.463 103.574 345.581 102.669H339.445C338.226 102.669 337.223 102.826 336.436 103.141C335.689 103.416 335.138 103.829 334.784 104.38C334.43 104.891 334.253 105.501 334.253 106.209C334.253 106.917 334.43 107.527 334.784 108.038C335.138 108.549 335.649 108.943 336.318 109.218C336.987 109.454 337.734 109.572 338.56 109.572ZM357.736 115V85.736H364.521L365.229 90.515H365.465C366.409 88.7843 367.687 87.447 369.3 86.503C370.913 85.5197 372.938 85.028 375.377 85.028C377.816 85.028 379.881 85.559 381.572 86.621C383.263 87.6437 384.542 89.158 385.407 91.164C386.312 93.17 386.764 95.648 386.764 98.598V115H378.799V99.306C378.799 96.8673 378.307 94.999 377.324 93.701C376.341 92.403 374.787 91.754 372.663 91.754C371.326 91.754 370.126 92.0883 369.064 92.757C368.002 93.3863 367.176 94.3107 366.586 95.53C365.996 96.71 365.701 98.1653 365.701 99.896V115H357.736ZM403.424 115.708C400.671 115.708 398.272 115.059 396.226 113.761C394.181 112.424 392.588 110.595 391.447 108.274C390.307 105.953 389.736 103.318 389.736 100.368C389.736 97.418 390.307 94.7827 391.447 92.462C392.588 90.1413 394.201 88.332 396.285 87.034C398.37 85.6967 400.848 85.028 403.719 85.028C406.001 85.028 407.967 85.4803 409.619 86.385C411.311 87.2503 412.648 88.2927 413.631 89.512V73.7H421.596V115H414.87L414.457 109.867H414.221C413.474 111.086 412.569 112.129 411.507 112.994C410.445 113.859 409.246 114.528 407.908 115C406.571 115.472 405.076 115.708 403.424 115.708ZM405.784 109.159C407.397 109.159 408.793 108.785 409.973 108.038C411.193 107.291 412.117 106.268 412.746 104.97C413.415 103.633 413.749 102.079 413.749 100.309C413.749 98.5783 413.415 97.064 412.746 95.766C412.117 94.4287 411.193 93.3863 409.973 92.639C408.754 91.8917 407.338 91.518 405.725 91.518C404.152 91.518 402.756 91.8917 401.536 92.639C400.356 93.3863 399.432 94.4287 398.763 95.766C398.134 97.064 397.819 98.5783 397.819 100.309C397.819 102.079 398.134 103.633 398.763 104.97C399.432 106.268 400.356 107.291 401.536 108.038C402.756 108.785 404.172 109.159 405.784 109.159ZM16.874 178.708C13.7667 178.708 11.0527 178.059 8.732 176.761C6.45067 175.424 4.661 173.614 3.363 171.333C2.10433 169.012 1.475 166.357 1.475 163.368C1.475 160.379 2.124 157.743 3.422 155.462C4.72 153.141 6.52933 151.332 8.85 150.034C11.1707 148.697 13.8453 148.028 16.874 148.028C20.65 148.028 23.8163 149.011 26.373 150.978C28.969 152.945 30.621 155.659 31.329 159.12H22.892C22.5773 157.704 21.8497 156.603 20.709 155.816C19.6077 155.029 18.3097 154.636 16.815 154.636C15.4383 154.636 14.1993 154.99 13.098 155.698C12.036 156.367 11.1903 157.35 10.561 158.648C9.93167 159.946 9.617 161.519 9.617 163.368C9.617 164.705 9.794 165.905 10.148 166.967C10.502 168.029 10.9937 168.934 11.623 169.681C12.2523 170.428 12.9997 170.999 13.865 171.392C14.7697 171.746 15.753 171.923 16.815 171.923C17.8377 171.923 18.762 171.766 19.588 171.451C20.414 171.097 21.122 170.605 21.712 169.976C22.302 169.307 22.6953 168.521 22.892 167.616H31.329C30.621 170.999 28.969 173.693 26.373 175.699C23.8163 177.705 20.65 178.708 16.874 178.708ZM48.7142 178.708C45.8822 178.708 43.3255 178.059 41.0442 176.761C38.7628 175.463 36.9535 173.654 35.6162 171.333C34.3182 169.012 33.6692 166.357 33.6692 163.368C33.6692 160.339 34.3378 157.684 35.6752 155.403C37.0125 153.082 38.8218 151.273 41.1032 149.975C43.3845 148.677 45.9215 148.028 48.7142 148.028C51.5462 148.028 54.1028 148.677 56.3842 149.975C58.6655 151.273 60.4552 153.082 61.7532 155.403C63.0905 157.684 63.7592 160.339 63.7592 163.368C63.7592 166.397 63.0905 169.071 61.7532 171.392C60.4158 173.673 58.6065 175.463 56.3252 176.761C54.0832 178.059 51.5462 178.708 48.7142 178.708ZM48.6552 171.982C49.9532 171.982 51.1135 171.667 52.1362 171.038C53.1982 170.409 54.0438 169.465 54.6732 168.206C55.3025 166.908 55.6172 165.295 55.6172 163.368C55.6172 161.441 55.3025 159.848 54.6732 158.589C54.0438 157.291 53.1982 156.327 52.1362 155.698C51.1135 155.069 49.9925 154.754 48.7732 154.754C47.5145 154.754 46.3542 155.069 45.2922 155.698C44.2302 156.327 43.3845 157.291 42.7552 158.589C42.1258 159.848 41.8112 161.441 41.8112 163.368C41.8112 165.295 42.1258 166.908 42.7552 168.206C43.3845 169.465 44.2105 170.409 45.2332 171.038C46.2952 171.667 47.4358 171.982 48.6552 171.982ZM67.2738 178V136.7H75.2388V178H67.2738ZM80.2239 178V136.7H88.1889V178H80.2239ZM102.149 178.708C99.8282 178.708 97.9008 178.315 96.3668 177.528C94.8722 176.741 93.7708 175.679 93.0628 174.342C92.3548 173.005 92.0008 171.53 92.0008 169.917C92.0008 168.108 92.4532 166.515 93.3578 165.138C94.3018 163.761 95.7178 162.699 97.6058 161.952C99.4938 161.165 101.873 160.772 104.745 160.772H112.12C112.12 159.317 111.903 158.117 111.471 157.173C111.077 156.229 110.448 155.521 109.583 155.049C108.757 154.577 107.695 154.341 106.397 154.341C104.863 154.341 103.545 154.695 102.444 155.403C101.382 156.072 100.713 157.134 100.438 158.589H92.7088C92.9448 156.426 93.6528 154.557 94.8328 152.984C96.0522 151.411 97.6452 150.191 99.6118 149.326C101.618 148.461 103.879 148.028 106.397 148.028C109.229 148.028 111.667 148.5 113.713 149.444C115.758 150.349 117.331 151.706 118.433 153.515C119.534 155.285 120.085 157.448 120.085 160.005V178H113.477L112.651 173.457H112.415C111.785 174.322 111.097 175.089 110.35 175.758C109.642 176.427 108.855 176.977 107.99 177.41C107.124 177.843 106.2 178.157 105.217 178.354C104.233 178.59 103.211 178.708 102.149 178.708ZM104.745 172.572C105.846 172.572 106.79 172.395 107.577 172.041C108.403 171.648 109.111 171.136 109.701 170.507C110.291 169.878 110.743 169.15 111.058 168.324C111.412 167.459 111.648 166.574 111.766 165.669H105.63C104.41 165.669 103.407 165.826 102.621 166.141C101.873 166.416 101.323 166.829 100.969 167.38C100.615 167.891 100.438 168.501 100.438 169.209C100.438 169.917 100.615 170.527 100.969 171.038C101.323 171.549 101.834 171.943 102.503 172.218C103.171 172.454 103.919 172.572 104.745 172.572ZM142.559 178.708C140.947 178.708 139.452 178.472 138.075 178C136.738 177.528 135.538 176.859 134.476 175.994C133.454 175.129 132.569 174.086 131.821 172.867H131.585L131.113 178H124.446V136.7H132.411V152.512C133.395 151.293 134.712 150.25 136.364 149.385C138.056 148.48 140.042 148.028 142.323 148.028C145.195 148.028 147.673 148.697 149.757 150.034C151.842 151.332 153.455 153.141 154.595 155.462C155.736 157.743 156.306 160.379 156.306 163.368C156.306 166.318 155.736 168.953 154.595 171.274C153.455 173.595 151.862 175.424 149.816 176.761C147.771 178.059 145.352 178.708 142.559 178.708ZM140.258 172.159C141.871 172.159 143.267 171.785 144.447 171.038C145.667 170.251 146.591 169.209 147.22 167.911C147.889 166.613 148.223 165.079 148.223 163.309C148.223 161.578 147.889 160.064 147.22 158.766C146.591 157.429 145.667 156.386 144.447 155.639C143.267 154.892 141.871 154.518 140.258 154.518C138.685 154.518 137.289 154.892 136.069 155.639C134.85 156.386 133.906 157.429 133.237 158.766C132.569 160.064 132.234 161.598 132.234 163.368C132.234 165.099 132.569 166.633 133.237 167.97C133.906 169.268 134.85 170.291 136.069 171.038C137.289 171.785 138.685 172.159 140.258 172.159ZM173.732 178.708C170.9 178.708 168.343 178.059 166.062 176.761C163.781 175.463 161.971 173.654 160.634 171.333C159.336 169.012 158.687 166.357 158.687 163.368C158.687 160.339 159.356 157.684 160.693 155.403C162.03 153.082 163.84 151.273 166.121 149.975C168.402 148.677 170.939 148.028 173.732 148.028C176.564 148.028 179.121 148.677 181.402 149.975C183.683 151.273 185.473 153.082 186.771 155.403C188.108 157.684 188.777 160.339 188.777 163.368C188.777 166.397 188.108 169.071 186.771 171.392C185.434 173.673 183.624 175.463 181.343 176.761C179.101 178.059 176.564 178.708 173.732 178.708ZM173.673 171.982C174.971 171.982 176.131 171.667 177.154 171.038C178.216 170.409 179.062 169.465 179.691 168.206C180.32 166.908 180.635 165.295 180.635 163.368C180.635 161.441 180.32 159.848 179.691 158.589C179.062 157.291 178.216 156.327 177.154 155.698C176.131 155.069 175.01 154.754 173.791 154.754C172.532 154.754 171.372 155.069 170.31 155.698C169.248 156.327 168.402 157.291 167.773 158.589C167.144 159.848 166.829 161.441 166.829 163.368C166.829 165.295 167.144 166.908 167.773 168.206C168.402 169.465 169.228 170.409 170.251 171.038C171.313 171.667 172.454 171.982 173.673 171.982ZM191.997 178V148.736H198.782L199.49 155.167H199.726C200.591 153.082 201.535 151.548 202.558 150.565C203.58 149.542 204.741 148.874 206.039 148.559C207.376 148.205 208.871 148.028 210.523 148.028V156.465H208.34C207.002 156.465 205.803 156.622 204.741 156.937C203.718 157.212 202.853 157.684 202.145 158.353C201.437 158.982 200.886 159.828 200.493 160.89C200.139 161.952 199.962 163.23 199.962 164.725V178H191.997ZM222.168 178.708C219.847 178.708 217.92 178.315 216.386 177.528C214.891 176.741 213.79 175.679 213.082 174.342C212.374 173.005 212.02 171.53 212.02 169.917C212.02 168.108 212.472 166.515 213.377 165.138C214.321 163.761 215.737 162.699 217.625 161.952C219.513 161.165 221.892 160.772 224.764 160.772H232.139C232.139 159.317 231.922 158.117 231.49 157.173C231.096 156.229 230.467 155.521 229.602 155.049C228.776 154.577 227.714 154.341 226.416 154.341C224.882 154.341 223.564 154.695 222.463 155.403C221.401 156.072 220.732 157.134 220.457 158.589H212.728C212.964 156.426 213.672 154.557 214.852 152.984C216.071 151.411 217.664 150.191 219.631 149.326C221.637 148.461 223.898 148.028 226.416 148.028C229.248 148.028 231.686 148.5 233.732 149.444C235.777 150.349 237.35 151.706 238.452 153.515C239.553 155.285 240.104 157.448 240.104 160.005V178H233.496L232.67 173.457H232.434C231.804 174.322 231.116 175.089 230.369 175.758C229.661 176.427 228.874 176.977 228.009 177.41C227.143 177.843 226.219 178.157 225.236 178.354C224.252 178.59 223.23 178.708 222.168 178.708ZM224.764 172.572C225.865 172.572 226.809 172.395 227.596 172.041C228.422 171.648 229.13 171.136 229.72 170.507C230.31 169.878 230.762 169.15 231.077 168.324C231.431 167.459 231.667 166.574 231.785 165.669H225.649C224.429 165.669 223.426 165.826 222.64 166.141C221.892 166.416 221.342 166.829 220.988 167.38C220.634 167.891 220.457 168.501 220.457 169.209C220.457 169.917 220.634 170.527 220.988 171.038C221.342 171.549 221.853 171.943 222.522 172.218C223.19 172.454 223.938 172.572 224.764 172.572ZM256.928 178C254.843 178 253.014 177.685 251.441 177.056C249.907 176.387 248.707 175.306 247.842 173.811C246.977 172.277 246.544 170.192 246.544 167.557V155.108H241.529V148.736H246.544L247.429 140.771H254.509V148.736H262.297V155.108H254.509V167.675C254.509 169.091 254.804 170.074 255.394 170.625C255.984 171.136 256.987 171.392 258.403 171.392H262.12V178H256.928ZM265.324 178V148.736H273.289V178H265.324ZM269.336 145.019C267.881 145.019 266.681 144.606 265.737 143.78C264.832 142.915 264.38 141.833 264.38 140.535C264.38 139.237 264.832 138.155 265.737 137.29C266.681 136.425 267.881 135.992 269.336 135.992C270.791 135.992 271.971 136.425 272.876 137.29C273.781 138.155 274.233 139.237 274.233 140.535C274.233 141.794 273.781 142.856 272.876 143.721C271.971 144.586 270.791 145.019 269.336 145.019ZM292.527 178.708C289.695 178.708 287.138 178.059 284.857 176.761C282.576 175.463 280.766 173.654 279.429 171.333C278.131 169.012 277.482 166.357 277.482 163.368C277.482 160.339 278.151 157.684 279.488 155.403C280.825 153.082 282.635 151.273 284.916 149.975C287.197 148.677 289.734 148.028 292.527 148.028C295.359 148.028 297.916 148.677 300.197 149.975C302.478 151.273 304.268 153.082 305.566 155.403C306.903 157.684 307.572 160.339 307.572 163.368C307.572 166.397 306.903 169.071 305.566 171.392C304.229 173.673 302.419 175.463 300.138 176.761C297.896 178.059 295.359 178.708 292.527 178.708ZM292.468 171.982C293.766 171.982 294.926 171.667 295.949 171.038C297.011 170.409 297.857 169.465 298.486 168.206C299.115 166.908 299.43 165.295 299.43 163.368C299.43 161.441 299.115 159.848 298.486 158.589C297.857 157.291 297.011 156.327 295.949 155.698C294.926 155.069 293.805 154.754 292.586 154.754C291.327 154.754 290.167 155.069 289.105 155.698C288.043 156.327 287.197 157.291 286.568 158.589C285.939 159.848 285.624 161.441 285.624 163.368C285.624 165.295 285.939 166.908 286.568 168.206C287.197 169.465 288.023 170.409 289.046 171.038C290.108 171.667 291.249 171.982 292.468 171.982ZM310.792 178V148.736H317.577L318.285 153.515H318.521C319.465 151.784 320.743 150.447 322.356 149.503C323.968 148.52 325.994 148.028 328.433 148.028C330.871 148.028 332.936 148.559 334.628 149.621C336.319 150.644 337.597 152.158 338.463 154.164C339.367 156.17 339.82 158.648 339.82 161.598V178H331.855V162.306C331.855 159.867 331.363 157.999 330.38 156.701C329.396 155.403 327.843 154.754 325.719 154.754C324.381 154.754 323.182 155.088 322.12 155.757C321.058 156.386 320.232 157.311 319.642 158.53C319.052 159.71 318.757 161.165 318.757 162.896V178H310.792ZM368.233 178C366.148 178 364.319 177.685 362.746 177.056C361.212 176.387 360.012 175.306 359.147 173.811C358.281 172.277 357.849 170.192 357.849 167.557V155.108H352.834V148.736H357.849L358.734 140.771H365.814V148.736H373.602V155.108H365.814V167.675C365.814 169.091 366.109 170.074 366.699 170.625C367.289 171.136 368.292 171.392 369.708 171.392H373.425V178H368.233ZM389.096 178.708C386.264 178.708 383.707 178.059 381.426 176.761C379.144 175.463 377.335 173.654 375.998 171.333C374.7 169.012 374.051 166.357 374.051 163.368C374.051 160.339 374.719 157.684 376.057 155.403C377.394 153.082 379.203 151.273 381.485 149.975C383.766 148.677 386.303 148.028 389.096 148.028C391.928 148.028 394.484 148.677 396.766 149.975C399.047 151.273 400.837 153.082 402.135 155.403C403.472 157.684 404.141 160.339 404.141 163.368C404.141 166.397 403.472 169.071 402.135 171.392C400.797 173.673 398.988 175.463 396.707 176.761C394.465 178.059 391.928 178.708 389.096 178.708ZM389.037 171.982C390.335 171.982 391.495 171.667 392.518 171.038C393.58 170.409 394.425 169.465 395.055 168.206C395.684 166.908 395.999 165.295 395.999 163.368C395.999 161.441 395.684 159.848 395.055 158.589C394.425 157.291 393.58 156.327 392.518 155.698C391.495 155.069 390.374 154.754 389.155 154.754C387.896 154.754 386.736 155.069 385.674 155.698C384.612 156.327 383.766 157.291 383.137 158.589C382.507 159.848 382.193 161.441 382.193 163.368C382.193 165.295 382.507 166.908 383.137 168.206C383.766 169.465 384.592 170.409 385.615 171.038C386.677 171.667 387.817 171.982 389.037 171.982ZM421.52 178.708C418.688 178.708 416.132 178.059 413.85 176.761C411.569 175.463 409.76 173.654 408.422 171.333C407.124 169.012 406.475 166.357 406.475 163.368C406.475 160.339 407.144 157.684 408.481 155.403C409.819 153.082 411.628 151.273 413.909 149.975C416.191 148.677 418.728 148.028 421.52 148.028C424.352 148.028 426.909 148.677 429.19 149.975C431.472 151.273 433.261 153.082 434.559 155.403C435.897 157.684 436.565 160.339 436.565 163.368C436.565 166.397 435.897 169.071 434.559 171.392C433.222 173.673 431.413 175.463 429.131 176.761C426.889 178.059 424.352 178.708 421.52 178.708ZM421.461 171.982C422.759 171.982 423.92 171.667 424.942 171.038C426.004 170.409 426.85 169.465 427.479 168.206C428.109 166.908 428.423 165.295 428.423 163.368C428.423 161.441 428.109 159.848 427.479 158.589C426.85 157.291 426.004 156.327 424.942 155.698C423.92 155.069 422.799 154.754 421.579 154.754C420.321 154.754 419.16 155.069 418.098 155.698C417.036 156.327 416.191 157.291 415.561 158.589C414.932 159.848 414.617 161.441 414.617 163.368C414.617 165.295 414.932 166.908 415.561 168.206C416.191 169.465 417.017 170.409 418.039 171.038C419.101 171.667 420.242 171.982 421.461 171.982ZM440.08 178V136.7H448.045V178H440.08Z" fill="#EFECE6"/>
<path d="M1.2 216V204.8H8.128V205.904H2.544V209.808H7.648V210.896H2.544V214.896H8.128V216H1.2ZM9.36688 216L12.1029 211.984L9.36688 207.968H10.8229L13.0149 211.264L15.2389 207.968H16.6789L13.9429 211.984L16.6789 216H15.2389L13.0149 212.688L10.8229 216H9.36688ZM18.104 219.52V207.968H19.32L19.448 209.28C19.6187 209.024 19.8373 208.784 20.104 208.56C20.3707 208.325 20.6907 208.139 21.064 208C21.4373 207.851 21.8693 207.776 22.36 207.776C23.1387 207.776 23.816 207.963 24.392 208.336C24.9787 208.699 25.432 209.2 25.752 209.84C26.0827 210.469 26.248 211.189 26.248 212C26.248 212.811 26.0827 213.531 25.752 214.16C25.432 214.789 24.9787 215.285 24.392 215.648C23.8053 216.011 23.1227 216.192 22.344 216.192C21.6933 216.192 21.1173 216.059 20.616 215.792C20.1147 215.525 19.7253 215.152 19.448 214.672V219.52H18.104ZM22.184 215.024C22.7173 215.024 23.1867 214.901 23.592 214.656C23.9973 214.4 24.312 214.043 24.536 213.584C24.7707 213.125 24.888 212.592 24.888 211.984C24.888 211.376 24.7707 210.843 24.536 210.384C24.312 209.925 23.9973 209.573 23.592 209.328C23.1867 209.072 22.7173 208.944 22.184 208.944C21.6507 208.944 21.1813 209.072 20.776 209.328C20.3707 209.573 20.056 209.925 19.832 210.384C19.608 210.843 19.496 211.376 19.496 211.984C19.496 212.592 19.608 213.125 19.832 213.584C20.056 214.043 20.3707 214.4 20.776 214.656C21.1813 214.901 21.6507 215.024 22.184 215.024ZM31.6873 216.192C30.9406 216.192 30.2739 216.016 29.6873 215.664C29.1006 215.312 28.6366 214.821 28.2953 214.192C27.9646 213.563 27.7993 212.827 27.7993 211.984C27.7993 211.131 27.9646 210.395 28.2953 209.776C28.6259 209.147 29.0846 208.656 29.6713 208.304C30.2686 207.952 30.9513 207.776 31.7193 207.776C32.5086 207.776 33.1806 207.952 33.7353 208.304C34.2899 208.656 34.7113 209.115 34.9993 209.68C35.2979 210.245 35.4473 210.869 35.4473 211.552C35.4473 211.659 35.4473 211.771 35.4473 211.888C35.4473 212.005 35.4419 212.139 35.4313 212.288H28.8073V211.248H34.1193C34.0873 210.512 33.8419 209.941 33.3833 209.536C32.9353 209.12 32.3699 208.912 31.6873 208.912C31.2393 208.912 30.8179 209.019 30.4233 209.232C30.0286 209.435 29.7086 209.733 29.4633 210.128C29.2286 210.523 29.1113 211.019 29.1113 211.616V212.064C29.1113 212.725 29.2339 213.28 29.4793 213.728C29.7246 214.165 30.0393 214.496 30.4233 214.72C30.8179 214.944 31.2393 215.056 31.6873 215.056C32.2526 215.056 32.7166 214.933 33.0793 214.688C33.4526 214.432 33.7246 214.085 33.8953 213.648H35.2233C35.0846 214.139 34.8553 214.576 34.5353 214.96C34.2153 215.333 33.8153 215.632 33.3353 215.856C32.8659 216.08 32.3166 216.192 31.6873 216.192ZM37.229 216V207.968H38.445L38.557 209.504C38.7383 209.141 38.9677 208.832 39.245 208.576C39.533 208.32 39.8743 208.123 40.269 207.984C40.6637 207.845 41.1117 207.776 41.613 207.776V209.184H41.149C40.8077 209.184 40.4823 209.232 40.173 209.328C39.8637 209.413 39.5863 209.557 39.341 209.76C39.1063 209.952 38.9197 210.224 38.781 210.576C38.6423 210.928 38.573 211.36 38.573 211.872V216H37.229ZM43.2636 216V207.968H44.6076V216H43.2636ZM43.9356 206.24C43.669 206.24 43.445 206.155 43.2636 205.984C43.093 205.803 43.0076 205.579 43.0076 205.312C43.0076 205.045 43.093 204.832 43.2636 204.672C43.445 204.501 43.669 204.416 43.9356 204.416C44.1916 204.416 44.4103 204.501 44.5916 204.672C44.773 204.832 44.8636 205.045 44.8636 205.312C44.8636 205.579 44.773 205.803 44.5916 205.984C44.4103 206.155 44.1916 206.24 43.9356 206.24ZM50.4998 216.192C49.7531 216.192 49.0864 216.016 48.4998 215.664C47.9131 215.312 47.4491 214.821 47.1078 214.192C46.7771 213.563 46.6118 212.827 46.6118 211.984C46.6118 211.131 46.7771 210.395 47.1078 209.776C47.4384 209.147 47.8971 208.656 48.4838 208.304C49.0811 207.952 49.7638 207.776 50.5318 207.776C51.3211 207.776 51.9931 207.952 52.5478 208.304C53.1024 208.656 53.5238 209.115 53.8118 209.68C54.1104 210.245 54.2598 210.869 54.2598 211.552C54.2598 211.659 54.2598 211.771 54.2598 211.888C54.2598 212.005 54.2544 212.139 54.2438 212.288H47.6198V211.248H52.9318C52.8998 210.512 52.6544 209.941 52.1958 209.536C51.7478 209.12 51.1824 208.912 50.4998 208.912C50.0518 208.912 49.6304 209.019 49.2358 209.232C48.8411 209.435 48.5211 209.733 48.2758 210.128C48.0411 210.523 47.9238 211.019 47.9238 211.616V212.064C47.9238 212.725 48.0464 213.28 48.2918 213.728C48.5371 214.165 48.8518 214.496 49.2358 214.72C49.6304 214.944 50.0518 215.056 50.4998 215.056C51.0651 215.056 51.5291 214.933 51.8918 214.688C52.2651 214.432 52.5371 214.085 52.7078 213.648H54.0358C53.8971 214.139 53.6678 214.576 53.3478 214.96C53.0278 215.333 52.6278 215.632 52.1478 215.856C51.6784 216.08 51.1291 216.192 50.4998 216.192ZM56.0415 216V207.968H57.2575L57.3375 209.376C57.5935 208.875 57.9562 208.485 58.4255 208.208C58.9055 207.92 59.4495 207.776 60.0575 207.776C60.6868 207.776 61.2308 207.899 61.6895 208.144C62.1482 208.389 62.5055 208.768 62.7615 209.28C63.0175 209.792 63.1455 210.437 63.1455 211.216V216H61.8015V211.36C61.8015 210.549 61.6255 209.941 61.2735 209.536C60.9215 209.131 60.4148 208.928 59.7535 208.928C59.3055 208.928 58.9002 209.04 58.5375 209.264C58.1855 209.477 57.9028 209.792 57.6895 210.208C57.4868 210.624 57.3855 211.131 57.3855 211.728V216H56.0415ZM68.8614 216.192C68.104 216.192 67.4214 216.016 66.8134 215.664C66.216 215.312 65.7414 214.821 65.3894 214.192C65.048 213.563 64.8774 212.827 64.8774 211.984C64.8774 211.141 65.048 210.405 65.3894 209.776C65.7414 209.147 66.216 208.656 66.8134 208.304C67.4214 207.952 68.104 207.776 68.8614 207.776C69.8214 207.776 70.6214 208.027 71.2614 208.528C71.9014 209.019 72.3067 209.68 72.4774 210.512H71.1014C70.9947 210.011 70.7334 209.621 70.3174 209.344C69.9014 209.067 69.4107 208.928 68.8454 208.928C68.3867 208.928 67.96 209.045 67.5654 209.28C67.1814 209.504 66.8667 209.845 66.6214 210.304C66.376 210.752 66.2534 211.312 66.2534 211.984C66.2534 212.485 66.3227 212.928 66.4614 213.312C66.6107 213.696 66.8027 214.021 67.0374 214.288C67.272 214.544 67.544 214.736 67.8534 214.864C68.1734 214.992 68.504 215.056 68.8454 215.056C69.2294 215.056 69.576 214.997 69.8854 214.88C70.1947 214.752 70.456 214.571 70.6694 214.336C70.8827 214.091 71.0267 213.797 71.1014 213.456H72.4774C72.3067 214.277 71.896 214.939 71.2454 215.44C70.6054 215.941 69.8107 216.192 68.8614 216.192ZM77.906 216.192C77.1593 216.192 76.4927 216.016 75.906 215.664C75.3193 215.312 74.8553 214.821 74.514 214.192C74.1833 213.563 74.018 212.827 74.018 211.984C74.018 211.131 74.1833 210.395 74.514 209.776C74.8447 209.147 75.3033 208.656 75.89 208.304C76.4873 207.952 77.17 207.776 77.938 207.776C78.7273 207.776 79.3993 207.952 79.954 208.304C80.5087 208.656 80.93 209.115 81.218 209.68C81.5167 210.245 81.666 210.869 81.666 211.552C81.666 211.659 81.666 211.771 81.666 211.888C81.666 212.005 81.6607 212.139 81.65 212.288H75.026V211.248H80.338C80.306 210.512 80.0607 209.941 79.602 209.536C79.154 209.12 78.5887 208.912 77.906 208.912C77.458 208.912 77.0367 209.019 76.642 209.232C76.2473 209.435 75.9273 209.733 75.682 210.128C75.4473 210.523 75.33 211.019 75.33 211.616V212.064C75.33 212.725 75.4527 213.28 75.698 213.728C75.9433 214.165 76.258 214.496 76.642 214.72C77.0367 214.944 77.458 215.056 77.906 215.056C78.4713 215.056 78.9353 214.933 79.298 214.688C79.6713 214.432 79.9433 214.085 80.114 213.648H81.442C81.3033 214.139 81.074 214.576 80.754 214.96C80.434 215.333 80.034 215.632 79.554 215.856C79.0847 216.08 78.5353 216.192 77.906 216.192ZM90.8658 216C90.3858 216 89.9698 215.925 89.6178 215.776C89.2658 215.627 88.9938 215.376 88.8018 215.024C88.6204 214.661 88.5298 214.176 88.5298 213.568V209.104H87.1378V207.968H88.5298L88.7057 206.032H89.8738V207.968H92.2258V209.104H89.8738V213.568C89.8738 214.069 89.9751 214.411 90.1778 214.592C90.3804 214.763 90.7378 214.848 91.2498 214.848H92.1138V216H90.8658ZM93.9478 216V204.48H95.2918V209.328C95.5691 208.837 95.9478 208.459 96.4278 208.192C96.9078 207.915 97.4411 207.776 98.0278 207.776C98.6464 207.776 99.1798 207.904 99.6278 208.16C100.086 208.405 100.438 208.784 100.684 209.296C100.94 209.808 101.068 210.453 101.068 211.232V216H99.7398V211.376C99.7398 210.565 99.5691 209.957 99.2278 209.552C98.8864 209.136 98.3904 208.928 97.7398 208.928C97.2811 208.928 96.8651 209.04 96.4918 209.264C96.1291 209.477 95.8358 209.797 95.6118 210.224C95.3984 210.64 95.2918 211.152 95.2918 211.76V216H93.9478ZM106.687 216.192C105.941 216.192 105.274 216.016 104.687 215.664C104.101 215.312 103.637 214.821 103.295 214.192C102.965 213.563 102.799 212.827 102.799 211.984C102.799 211.131 102.965 210.395 103.295 209.776C103.626 209.147 104.085 208.656 104.671 208.304C105.269 207.952 105.951 207.776 106.719 207.776C107.509 207.776 108.181 207.952 108.735 208.304C109.29 208.656 109.711 209.115 109.999 209.68C110.298 210.245 110.447 210.869 110.447 211.552C110.447 211.659 110.447 211.771 110.447 211.888C110.447 212.005 110.442 212.139 110.431 212.288H103.807V211.248H109.119C109.087 210.512 108.842 209.941 108.383 209.536C107.935 209.12 107.37 208.912 106.687 208.912C106.239 208.912 105.818 209.019 105.423 209.232C105.029 209.435 104.709 209.733 104.463 210.128C104.229 210.523 104.111 211.019 104.111 211.616V212.064C104.111 212.725 104.234 213.28 104.479 213.728C104.725 214.165 105.039 214.496 105.423 214.72C105.818 214.944 106.239 215.056 106.687 215.056C107.253 215.056 107.717 214.933 108.079 214.688C108.453 214.432 108.725 214.085 108.895 213.648H110.223C110.085 214.139 109.855 214.576 109.535 214.96C109.215 215.333 108.815 215.632 108.335 215.856C107.866 216.08 107.317 216.192 106.687 216.192ZM116.479 219.52V207.968H117.695L117.823 209.28C117.994 209.024 118.212 208.784 118.479 208.56C118.746 208.325 119.066 208.139 119.439 208C119.812 207.851 120.244 207.776 120.735 207.776C121.514 207.776 122.191 207.963 122.767 208.336C123.354 208.699 123.807 209.2 124.127 209.84C124.458 210.469 124.623 211.189 124.623 212C124.623 212.811 124.458 213.531 124.127 214.16C123.807 214.789 123.354 215.285 122.767 215.648C122.18 216.011 121.498 216.192 120.719 216.192C120.068 216.192 119.492 216.059 118.991 215.792C118.49 215.525 118.1 215.152 117.823 214.672V219.52H116.479ZM120.559 215.024C121.092 215.024 121.562 214.901 121.967 214.656C122.372 214.4 122.687 214.043 122.911 213.584C123.146 213.125 123.263 212.592 123.263 211.984C123.263 211.376 123.146 210.843 122.911 210.384C122.687 209.925 122.372 209.573 121.967 209.328C121.562 209.072 121.092 208.944 120.559 208.944C120.026 208.944 119.556 209.072 119.151 209.328C118.746 209.573 118.431 209.925 118.207 210.384C117.983 210.843 117.871 211.376 117.871 211.984C117.871 212.592 117.983 213.125 118.207 213.584C118.431 214.043 118.746 214.4 119.151 214.656C119.556 214.901 120.026 215.024 120.559 215.024ZM130.126 216.192C129.38 216.192 128.708 216.021 128.11 215.68C127.513 215.328 127.038 214.837 126.686 214.208C126.345 213.579 126.174 212.837 126.174 211.984C126.174 211.131 126.35 210.389 126.702 209.76C127.054 209.131 127.529 208.645 128.126 208.304C128.734 207.952 129.412 207.776 130.158 207.776C130.916 207.776 131.593 207.952 132.19 208.304C132.788 208.645 133.257 209.131 133.598 209.76C133.94 210.389 134.11 211.131 134.11 211.984C134.11 212.837 133.934 213.579 133.582 214.208C133.241 214.837 132.766 215.328 132.158 215.68C131.561 216.021 130.884 216.192 130.126 216.192ZM130.126 215.04C130.596 215.04 131.028 214.928 131.422 214.704C131.817 214.469 132.132 214.128 132.366 213.68C132.612 213.221 132.734 212.656 132.734 211.984C132.734 211.301 132.617 210.736 132.382 210.288C132.148 209.84 131.833 209.504 131.438 209.28C131.044 209.045 130.617 208.928 130.158 208.928C129.71 208.928 129.284 209.045 128.878 209.28C128.484 209.504 128.164 209.84 127.918 210.288C127.673 210.736 127.55 211.301 127.55 211.984C127.55 212.656 127.673 213.221 127.918 213.68C128.164 214.128 128.478 214.469 128.862 214.704C129.257 214.928 129.678 215.04 130.126 215.04ZM137.33 216L134.978 207.968H136.322L138.162 214.768H137.89L139.906 207.968H141.426L143.458 214.752L143.186 214.768L145.026 207.968H146.386L144.034 216H142.658L140.546 208.896H140.818L138.706 216H137.33ZM151.125 216.192C150.378 216.192 149.711 216.016 149.125 215.664C148.538 215.312 148.074 214.821 147.733 214.192C147.402 213.563 147.237 212.827 147.237 211.984C147.237 211.131 147.402 210.395 147.733 209.776C148.063 209.147 148.522 208.656 149.109 208.304C149.706 207.952 150.389 207.776 151.157 207.776C151.946 207.776 152.618 207.952 153.173 208.304C153.727 208.656 154.149 209.115 154.437 209.68C154.735 210.245 154.885 210.869 154.885 211.552C154.885 211.659 154.885 211.771 154.885 211.888C154.885 212.005 154.879 212.139 154.869 212.288H148.245V211.248H153.557C153.525 210.512 153.279 209.941 152.821 209.536C152.373 209.12 151.807 208.912 151.125 208.912C150.677 208.912 150.255 209.019 149.861 209.232C149.466 209.435 149.146 209.733 148.901 210.128C148.666 210.523 148.549 211.019 148.549 211.616V212.064C148.549 212.725 148.671 213.28 148.917 213.728C149.162 214.165 149.477 214.496 149.861 214.72C150.255 214.944 150.677 215.056 151.125 215.056C151.69 215.056 152.154 214.933 152.517 214.688C152.89 214.432 153.162 214.085 153.333 213.648H154.661C154.522 214.139 154.293 214.576 153.973 214.96C153.653 215.333 153.253 215.632 152.773 215.856C152.303 216.08 151.754 216.192 151.125 216.192ZM156.667 216V207.968H157.883L157.995 209.504C158.176 209.141 158.405 208.832 158.683 208.576C158.971 208.32 159.312 208.123 159.707 207.984C160.101 207.845 160.549 207.776 161.051 207.776V209.184H160.587C160.245 209.184 159.92 209.232 159.611 209.328C159.301 209.413 159.024 209.557 158.779 209.76C158.544 209.952 158.357 210.224 158.219 210.576C158.08 210.928 158.011 211.36 158.011 211.872V216H156.667ZM170.423 216.192C169.676 216.192 169.004 216.021 168.407 215.68C167.81 215.328 167.335 214.837 166.983 214.208C166.642 213.579 166.471 212.837 166.471 211.984C166.471 211.131 166.647 210.389 166.999 209.76C167.351 209.131 167.826 208.645 168.423 208.304C169.031 207.952 169.708 207.776 170.455 207.776C171.212 207.776 171.89 207.952 172.487 208.304C173.084 208.645 173.554 209.131 173.895 209.76C174.236 210.389 174.407 211.131 174.407 211.984C174.407 212.837 174.231 213.579 173.879 214.208C173.538 214.837 173.063 215.328 172.455 215.68C171.858 216.021 171.18 216.192 170.423 216.192ZM170.423 215.04C170.892 215.04 171.324 214.928 171.719 214.704C172.114 214.469 172.428 214.128 172.663 213.68C172.908 213.221 173.031 212.656 173.031 211.984C173.031 211.301 172.914 210.736 172.679 210.288C172.444 209.84 172.13 209.504 171.735 209.28C171.34 209.045 170.914 208.928 170.455 208.928C170.007 208.928 169.58 209.045 169.175 209.28C168.78 209.504 168.46 209.84 168.215 210.288C167.97 210.736 167.847 211.301 167.847 211.984C167.847 212.656 167.97 213.221 168.215 213.68C168.46 214.128 168.775 214.469 169.159 214.704C169.554 214.928 169.975 215.04 170.423 215.04ZM176.756 216V206.688C176.756 206.176 176.841 205.76 177.012 205.44C177.182 205.109 177.433 204.869 177.764 204.72C178.105 204.56 178.521 204.48 179.012 204.48H179.891V205.632H179.22C178.814 205.632 178.526 205.712 178.356 205.872C178.185 206.032 178.1 206.315 178.1 206.72V216H176.756ZM175.524 209.104V207.968H180.1V209.104H175.524ZM189.003 216.192C188.353 216.192 187.777 216.085 187.275 215.872C186.774 215.648 186.374 215.333 186.075 214.928C185.787 214.523 185.606 214.048 185.531 213.504H186.907C186.971 213.781 187.089 214.043 187.259 214.288C187.43 214.523 187.659 214.709 187.947 214.848C188.246 214.987 188.603 215.056 189.019 215.056C189.403 215.056 189.718 215.003 189.963 214.896C190.209 214.779 190.39 214.624 190.507 214.432C190.625 214.24 190.683 214.032 190.683 213.808C190.683 213.488 190.603 213.243 190.443 213.072C190.294 212.901 190.07 212.768 189.771 212.672C189.473 212.565 189.115 212.475 188.699 212.4C188.347 212.336 188.001 212.251 187.659 212.144C187.329 212.037 187.03 211.899 186.763 211.728C186.497 211.557 186.283 211.344 186.123 211.088C185.963 210.821 185.883 210.507 185.883 210.144C185.883 209.685 186.001 209.28 186.235 208.928C186.481 208.565 186.817 208.283 187.243 208.08C187.681 207.877 188.198 207.776 188.795 207.776C189.649 207.776 190.342 207.984 190.875 208.4C191.419 208.816 191.734 209.419 191.819 210.208H190.491C190.449 209.803 190.278 209.488 189.979 209.264C189.681 209.029 189.281 208.912 188.779 208.912C188.278 208.912 187.894 209.013 187.627 209.216C187.371 209.419 187.243 209.685 187.243 210.016C187.243 210.229 187.313 210.416 187.451 210.576C187.601 210.736 187.819 210.875 188.107 210.992C188.395 211.099 188.742 211.195 189.147 211.28C189.67 211.376 190.15 211.504 190.587 211.664C191.025 211.824 191.377 212.059 191.643 212.368C191.921 212.677 192.059 213.12 192.059 213.696C192.07 214.197 191.947 214.635 191.691 215.008C191.446 215.381 191.094 215.675 190.635 215.888C190.177 216.091 189.633 216.192 189.003 216.192ZM193.995 216V207.968H195.211L195.307 209.12C195.563 208.693 195.904 208.363 196.331 208.128C196.757 207.893 197.232 207.776 197.755 207.776C198.171 207.776 198.549 207.835 198.891 207.952C199.232 208.059 199.531 208.229 199.787 208.464C200.043 208.688 200.251 208.976 200.411 209.328C200.688 208.837 201.067 208.459 201.547 208.192C202.037 207.915 202.56 207.776 203.115 207.776C203.733 207.776 204.272 207.904 204.731 208.16C205.2 208.405 205.563 208.784 205.819 209.296C206.075 209.797 206.203 210.437 206.203 211.216V216H204.875V211.36C204.875 210.549 204.709 209.941 204.379 209.536C204.048 209.131 203.579 208.928 202.971 208.928C202.555 208.928 202.176 209.04 201.835 209.264C201.504 209.477 201.243 209.792 201.051 210.208C200.869 210.624 200.779 211.136 200.779 211.744V216H199.435V211.36C199.435 210.549 199.269 209.941 198.939 209.536C198.608 209.131 198.139 208.928 197.531 208.928C197.125 208.928 196.752 209.04 196.411 209.264C196.08 209.477 195.819 209.792 195.627 210.208C195.435 210.624 195.339 211.136 195.339 211.744V216H193.995ZM210.9 216.192C210.25 216.192 209.706 216.08 209.268 215.856C208.831 215.621 208.506 215.317 208.292 214.944C208.079 214.56 207.972 214.149 207.972 213.712C207.972 213.168 208.111 212.709 208.388 212.336C208.676 211.952 209.076 211.664 209.588 211.472C210.111 211.269 210.719 211.168 211.412 211.168H213.556C213.556 210.667 213.476 210.251 213.316 209.92C213.167 209.589 212.943 209.339 212.644 209.168C212.346 208.997 211.983 208.912 211.556 208.912C211.044 208.912 210.602 209.04 210.228 209.296C209.855 209.552 209.626 209.931 209.54 210.432H208.164C208.228 209.856 208.42 209.376 208.74 208.992C209.071 208.597 209.487 208.299 209.988 208.096C210.49 207.883 211.012 207.776 211.556 207.776C212.303 207.776 212.922 207.915 213.412 208.192C213.903 208.459 214.271 208.837 214.516 209.328C214.772 209.808 214.9 210.373 214.9 211.024V216H213.7L213.62 214.576C213.514 214.8 213.375 215.013 213.204 215.216C213.044 215.408 212.852 215.579 212.628 215.728C212.415 215.867 212.164 215.979 211.876 216.064C211.588 216.149 211.263 216.192 210.9 216.192ZM211.108 215.056C211.482 215.056 211.818 214.981 212.116 214.832C212.426 214.672 212.687 214.459 212.9 214.192C213.114 213.925 213.274 213.627 213.38 213.296C213.498 212.955 213.556 212.608 213.556 212.256V212.208H211.524C211.012 212.208 210.596 212.272 210.276 212.4C209.956 212.517 209.727 212.688 209.588 212.912C209.45 213.125 209.38 213.371 209.38 213.648C209.38 213.936 209.444 214.187 209.572 214.4C209.711 214.603 209.908 214.763 210.164 214.88C210.42 214.997 210.735 215.056 211.108 215.056ZM216.963 216V207.968H218.179L218.291 209.504C218.473 209.141 218.702 208.832 218.979 208.576C219.267 208.32 219.609 208.123 220.003 207.984C220.398 207.845 220.846 207.776 221.347 207.776V209.184H220.883C220.542 209.184 220.217 209.232 219.907 209.328C219.598 209.413 219.321 209.557 219.075 209.76C218.841 209.952 218.654 210.224 218.515 210.576C218.377 210.928 218.307 211.36 218.307 211.872V216H216.963ZM226.022 216C225.542 216 225.126 215.925 224.774 215.776C224.422 215.627 224.15 215.376 223.958 215.024C223.777 214.661 223.686 214.176 223.686 213.568V209.104H222.294V207.968H223.686L223.862 206.032H225.03V207.968H227.382V209.104H225.03V213.568C225.03 214.069 225.131 214.411 225.334 214.592C225.537 214.763 225.894 214.848 226.406 214.848H227.27V216H226.022ZM233.354 216V207.968H234.57L234.65 209.376C234.906 208.875 235.269 208.485 235.738 208.208C236.218 207.92 236.762 207.776 237.37 207.776C237.999 207.776 238.543 207.899 239.002 208.144C239.461 208.389 239.818 208.768 240.074 209.28C240.33 209.792 240.458 210.437 240.458 211.216V216H239.114V211.36C239.114 210.549 238.938 209.941 238.586 209.536C238.234 209.131 237.727 208.928 237.066 208.928C236.618 208.928 236.213 209.04 235.85 209.264C235.498 209.477 235.215 209.792 235.002 210.208C234.799 210.624 234.698 211.131 234.698 211.728V216H233.354ZM246.142 216.192C245.395 216.192 244.723 216.021 244.126 215.68C243.529 215.328 243.054 214.837 242.702 214.208C242.361 213.579 242.19 212.837 242.19 211.984C242.19 211.131 242.366 210.389 242.718 209.76C243.07 209.131 243.545 208.645 244.142 208.304C244.75 207.952 245.427 207.776 246.174 207.776C246.931 207.776 247.609 207.952 248.206 208.304C248.803 208.645 249.273 209.131 249.614 209.76C249.955 210.389 250.126 211.131 250.126 211.984C250.126 212.837 249.95 213.579 249.598 214.208C249.257 214.837 248.782 215.328 248.174 215.68C247.577 216.021 246.899 216.192 246.142 216.192ZM246.142 215.04C246.611 215.04 247.043 214.928 247.438 214.704C247.833 214.469 248.147 214.128 248.382 213.68C248.627 213.221 248.75 212.656 248.75 211.984C248.75 211.301 248.633 210.736 248.398 210.288C248.163 209.84 247.849 209.504 247.454 209.28C247.059 209.045 246.633 208.928 246.174 208.928C245.726 208.928 245.299 209.045 244.894 209.28C244.499 209.504 244.179 209.84 243.934 210.288C243.689 210.736 243.566 211.301 243.566 211.984C243.566 212.656 243.689 213.221 243.934 213.68C244.179 214.128 244.494 214.469 244.878 214.704C245.273 214.928 245.694 215.04 246.142 215.04ZM254.866 216C254.386 216 253.97 215.925 253.618 215.776C253.266 215.627 252.994 215.376 252.802 215.024C252.62 214.661 252.53 214.176 252.53 213.568V209.104H251.138V207.968H252.53L252.706 206.032H253.874V207.968H256.226V209.104H253.874V213.568C253.874 214.069 253.975 214.411 254.178 214.592C254.38 214.763 254.738 214.848 255.25 214.848H256.114V216H254.866ZM261.281 216.192C260.534 216.192 259.868 216.016 259.281 215.664C258.694 215.312 258.23 214.821 257.889 214.192C257.558 213.563 257.393 212.827 257.393 211.984C257.393 211.131 257.558 210.395 257.889 209.776C258.22 209.147 258.678 208.656 259.265 208.304C259.862 207.952 260.545 207.776 261.313 207.776C262.102 207.776 262.774 207.952 263.329 208.304C263.884 208.656 264.305 209.115 264.593 209.68C264.892 210.245 265.041 210.869 265.041 211.552C265.041 211.659 265.041 211.771 265.041 211.888C265.041 212.005 265.036 212.139 265.025 212.288H258.401V211.248H263.713C263.681 210.512 263.436 209.941 262.977 209.536C262.529 209.12 261.964 208.912 261.281 208.912C260.833 208.912 260.412 209.019 260.017 209.232C259.622 209.435 259.302 209.733 259.057 210.128C258.822 210.523 258.705 211.019 258.705 211.616V212.064C258.705 212.725 258.828 213.28 259.073 213.728C259.318 214.165 259.633 214.496 260.017 214.72C260.412 214.944 260.833 215.056 261.281 215.056C261.846 215.056 262.31 214.933 262.673 214.688C263.046 214.432 263.318 214.085 263.489 213.648H264.817C264.678 214.139 264.449 214.576 264.129 214.96C263.809 215.333 263.409 215.632 262.929 215.856C262.46 216.08 261.91 216.192 261.281 216.192ZM266.887 211.856V210.72H273.223V211.856H266.887ZM278.647 216C278.167 216 277.751 215.925 277.399 215.776C277.047 215.627 276.775 215.376 276.583 215.024C276.402 214.661 276.311 214.176 276.311 213.568V209.104H274.919V207.968H276.311L276.487 206.032H277.655V207.968H280.007V209.104H277.655V213.568C277.655 214.069 277.756 214.411 277.959 214.592C278.162 214.763 278.519 214.848 279.031 214.848H279.895V216H278.647ZM284.369 216.192C283.718 216.192 283.174 216.08 282.737 215.856C282.3 215.621 281.974 215.317 281.761 214.944C281.548 214.56 281.441 214.149 281.441 213.712C281.441 213.168 281.58 212.709 281.857 212.336C282.145 211.952 282.545 211.664 283.057 211.472C283.58 211.269 284.188 211.168 284.881 211.168H287.025C287.025 210.667 286.945 210.251 286.785 209.92C286.636 209.589 286.412 209.339 286.113 209.168C285.814 208.997 285.452 208.912 285.025 208.912C284.513 208.912 284.07 209.04 283.697 209.296C283.324 209.552 283.094 209.931 283.009 210.432H281.633C281.697 209.856 281.889 209.376 282.209 208.992C282.54 208.597 282.956 208.299 283.457 208.096C283.958 207.883 284.481 207.776 285.025 207.776C285.772 207.776 286.39 207.915 286.881 208.192C287.372 208.459 287.74 208.837 287.985 209.328C288.241 209.808 288.369 210.373 288.369 211.024V216H287.169L287.089 214.576C286.982 214.8 286.844 215.013 286.673 215.216C286.513 215.408 286.321 215.579 286.097 215.728C285.884 215.867 285.633 215.979 285.345 216.064C285.057 216.149 284.732 216.192 284.369 216.192ZM284.577 215.056C284.95 215.056 285.286 214.981 285.585 214.832C285.894 214.672 286.156 214.459 286.369 214.192C286.582 213.925 286.742 213.627 286.849 213.296C286.966 212.955 287.025 212.608 287.025 212.256V212.208H284.993C284.481 212.208 284.065 212.272 283.745 212.4C283.425 212.517 283.196 212.688 283.057 212.912C282.918 213.125 282.849 213.371 282.849 213.648C282.849 213.936 282.913 214.187 283.041 214.4C283.18 214.603 283.377 214.763 283.633 214.88C283.889 214.997 284.204 215.056 284.577 215.056ZM295.408 216L291.552 211.6L295.056 207.968H296.704L292.688 212.08L292.704 211.12L297.12 216H295.408ZM290.432 216V204.48H291.776V216H290.432ZM298.639 216V207.968H299.983V216H298.639ZM299.311 206.24C299.044 206.24 298.82 206.155 298.639 205.984C298.468 205.803 298.383 205.579 298.383 205.312C298.383 205.045 298.468 204.832 298.639 204.672C298.82 204.501 299.044 204.416 299.311 204.416C299.567 204.416 299.785 204.501 299.967 204.672C300.148 204.832 300.239 205.045 300.239 205.312C300.239 205.579 300.148 205.803 299.967 205.984C299.785 206.155 299.567 206.24 299.311 206.24ZM302.323 216V207.968H303.539L303.619 209.376C303.875 208.875 304.237 208.485 304.707 208.208C305.187 207.92 305.731 207.776 306.339 207.776C306.968 207.776 307.512 207.899 307.971 208.144C308.429 208.389 308.787 208.768 309.043 209.28C309.299 209.792 309.427 210.437 309.427 211.216V216H308.083V211.36C308.083 210.549 307.907 209.941 307.555 209.536C307.203 209.131 306.696 208.928 306.035 208.928C305.587 208.928 305.181 209.04 304.819 209.264C304.467 209.477 304.184 209.792 303.971 210.208C303.768 210.624 303.667 211.131 303.667 211.728V216H302.323ZM314.679 219.712C313.953 219.712 313.313 219.616 312.759 219.424C312.204 219.243 311.772 218.96 311.463 218.576C311.153 218.192 310.999 217.717 310.999 217.152C310.999 216.907 311.047 216.645 311.143 216.368C311.249 216.101 311.425 215.835 311.671 215.568C311.927 215.301 312.284 215.061 312.743 214.848L313.655 215.392C313.1 215.627 312.737 215.893 312.567 216.192C312.396 216.491 312.311 216.768 312.311 217.024C312.311 217.376 312.412 217.669 312.615 217.904C312.817 218.139 313.095 218.315 313.447 218.432C313.809 218.549 314.22 218.608 314.679 218.608C315.137 218.608 315.532 218.539 315.863 218.4C316.193 218.272 316.449 218.091 316.631 217.856C316.812 217.632 316.903 217.36 316.903 217.04C316.903 216.677 316.764 216.368 316.487 216.112C316.209 215.867 315.687 215.723 314.919 215.68C314.279 215.637 313.745 215.579 313.319 215.504C312.903 215.429 312.556 215.344 312.279 215.248C312.001 215.141 311.767 215.024 311.575 214.896C311.393 214.768 311.228 214.635 311.079 214.496V214.128L312.631 212.576L313.799 212.992L312.199 214.448L312.407 213.888C312.524 213.973 312.636 214.053 312.743 214.128C312.849 214.192 312.993 214.251 313.175 214.304C313.356 214.357 313.607 214.411 313.927 214.464C314.247 214.507 314.679 214.549 315.223 214.592C315.948 214.645 316.529 214.773 316.967 214.976C317.415 215.179 317.735 215.451 317.927 215.792C318.129 216.133 318.231 216.533 318.231 216.992C318.231 217.451 318.103 217.883 317.847 218.288C317.601 218.704 317.217 219.045 316.695 219.312C316.172 219.579 315.5 219.712 314.679 219.712ZM314.663 213.472C313.991 213.472 313.42 213.349 312.951 213.104C312.481 212.848 312.124 212.507 311.879 212.08C311.633 211.643 311.511 211.157 311.511 210.624C311.511 210.091 311.633 209.611 311.879 209.184C312.124 208.757 312.481 208.416 312.951 208.16C313.42 207.904 313.991 207.776 314.663 207.776C315.345 207.776 315.921 207.904 316.391 208.16C316.86 208.416 317.217 208.757 317.463 209.184C317.708 209.611 317.831 210.091 317.831 210.624C317.831 211.157 317.708 211.643 317.463 212.08C317.217 212.507 316.86 212.848 316.391 213.104C315.921 213.349 315.345 213.472 314.663 213.472ZM314.663 212.368C315.239 212.368 315.692 212.224 316.023 211.936C316.364 211.637 316.535 211.2 316.535 210.624C316.535 210.069 316.364 209.643 316.023 209.344C315.692 209.045 315.239 208.896 314.663 208.896C314.097 208.896 313.644 209.045 313.303 209.344C312.961 209.643 312.791 210.069 312.791 210.624C312.791 211.2 312.961 211.637 313.303 211.936C313.644 212.224 314.097 212.368 314.663 212.368ZM315.975 209.104L315.575 207.968H318.871V208.976L315.975 209.104ZM327.291 216.192C326.64 216.192 326.096 216.08 325.659 215.856C325.222 215.621 324.896 215.317 324.683 214.944C324.47 214.56 324.363 214.149 324.363 213.712C324.363 213.168 324.502 212.709 324.779 212.336C325.067 211.952 325.467 211.664 325.979 211.472C326.502 211.269 327.11 211.168 327.803 211.168H329.947C329.947 210.667 329.867 210.251 329.707 209.92C329.558 209.589 329.334 209.339 329.035 209.168C328.736 208.997 328.374 208.912 327.947 208.912C327.435 208.912 326.992 209.04 326.619 209.296C326.246 209.552 326.016 209.931 325.931 210.432H324.555C324.619 209.856 324.811 209.376 325.131 208.992C325.462 208.597 325.878 208.299 326.379 208.096C326.88 207.883 327.403 207.776 327.947 207.776C328.694 207.776 329.312 207.915 329.803 208.192C330.294 208.459 330.662 208.837 330.907 209.328C331.163 209.808 331.291 210.373 331.291 211.024V216H330.091L330.011 214.576C329.904 214.8 329.766 215.013 329.595 215.216C329.435 215.408 329.243 215.579 329.019 215.728C328.806 215.867 328.555 215.979 328.267 216.064C327.979 216.149 327.654 216.192 327.291 216.192ZM327.499 215.056C327.872 215.056 328.208 214.981 328.507 214.832C328.816 214.672 329.078 214.459 329.291 214.192C329.504 213.925 329.664 213.627 329.771 213.296C329.888 212.955 329.947 212.608 329.947 212.256V212.208H327.915C327.403 212.208 326.987 212.272 326.667 212.4C326.347 212.517 326.118 212.688 325.979 212.912C325.84 213.125 325.771 213.371 325.771 213.648C325.771 213.936 325.835 214.187 325.963 214.4C326.102 214.603 326.299 214.763 326.555 214.88C326.811 214.997 327.126 215.056 327.499 215.056ZM333.354 216V207.968H334.57L334.65 209.376C334.906 208.875 335.269 208.485 335.738 208.208C336.218 207.92 336.762 207.776 337.37 207.776C337.999 207.776 338.543 207.899 339.002 208.144C339.461 208.389 339.818 208.768 340.074 209.28C340.33 209.792 340.458 210.437 340.458 211.216V216H339.114V211.36C339.114 210.549 338.938 209.941 338.586 209.536C338.234 209.131 337.727 208.928 337.066 208.928C336.618 208.928 336.213 209.04 335.85 209.264C335.498 209.477 335.215 209.792 335.002 210.208C334.799 210.624 334.698 211.131 334.698 211.728V216H333.354ZM346.11 216.192C345.331 216.192 344.643 216.011 344.046 215.648C343.459 215.275 343.001 214.773 342.67 214.144C342.35 213.504 342.19 212.779 342.19 211.968C342.19 211.157 342.35 210.437 342.67 209.808C343.001 209.179 343.459 208.683 344.046 208.32C344.643 207.957 345.337 207.776 346.126 207.776C346.777 207.776 347.353 207.909 347.854 208.176C348.355 208.443 348.739 208.816 349.006 209.296V204.48H350.35V216H349.134L349.006 214.688C348.835 214.944 348.617 215.189 348.35 215.424C348.094 215.648 347.779 215.835 347.406 215.984C347.033 216.123 346.601 216.192 346.11 216.192ZM346.254 215.024C346.787 215.024 347.257 214.901 347.662 214.656C348.078 214.4 348.398 214.043 348.622 213.584C348.846 213.125 348.958 212.592 348.958 211.984C348.958 211.376 348.846 210.843 348.622 210.384C348.398 209.925 348.078 209.573 347.662 209.328C347.257 209.072 346.787 208.944 346.254 208.944C345.742 208.944 345.278 209.072 344.862 209.328C344.457 209.573 344.137 209.925 343.902 210.384C343.678 210.843 343.566 211.376 343.566 211.984C343.566 212.592 343.678 213.125 343.902 213.584C344.137 214.043 344.457 214.4 344.862 214.656C345.278 214.901 345.742 215.024 346.254 215.024ZM359.975 216C359.495 216 359.079 215.925 358.727 215.776C358.375 215.627 358.103 215.376 357.911 215.024C357.73 214.661 357.639 214.176 357.639 213.568V209.104H356.247V207.968H357.639L357.815 206.032H358.983V207.968H361.335V209.104H358.983V213.568C358.983 214.069 359.084 214.411 359.287 214.592C359.49 214.763 359.847 214.848 360.359 214.848H361.223V216H359.975ZM363.057 216V207.968H364.273L364.385 209.504C364.566 209.141 364.796 208.832 365.073 208.576C365.361 208.32 365.702 208.123 366.097 207.984C366.492 207.845 366.94 207.776 367.441 207.776V209.184H366.977C366.636 209.184 366.31 209.232 366.001 209.328C365.692 209.413 365.414 209.557 365.169 209.76C364.934 209.952 364.748 210.224 364.609 210.576C364.47 210.928 364.401 211.36 364.401 211.872V216H363.057ZM371.588 216.192C370.937 216.192 370.393 216.08 369.956 215.856C369.518 215.621 369.193 215.317 368.98 214.944C368.766 214.56 368.66 214.149 368.66 213.712C368.66 213.168 368.798 212.709 369.076 212.336C369.364 211.952 369.764 211.664 370.276 211.472C370.798 211.269 371.406 211.168 372.1 211.168H374.244C374.244 210.667 374.164 210.251 374.004 209.92C373.854 209.589 373.63 209.339 373.332 209.168C373.033 208.997 372.67 208.912 372.244 208.912C371.732 208.912 371.289 209.04 370.916 209.296C370.542 209.552 370.313 209.931 370.228 210.432H368.852C368.916 209.856 369.108 209.376 369.428 208.992C369.758 208.597 370.174 208.299 370.676 208.096C371.177 207.883 371.7 207.776 372.244 207.776C372.99 207.776 373.609 207.915 374.1 208.192C374.59 208.459 374.958 208.837 375.204 209.328C375.46 209.808 375.588 210.373 375.588 211.024V216H374.388L374.308 214.576C374.201 214.8 374.062 215.013 373.892 215.216C373.732 215.408 373.54 215.579 373.316 215.728C373.102 215.867 372.852 215.979 372.564 216.064C372.276 216.149 371.95 216.192 371.588 216.192ZM371.796 215.056C372.169 215.056 372.505 214.981 372.804 214.832C373.113 214.672 373.374 214.459 373.588 214.192C373.801 213.925 373.961 213.627 374.068 213.296C374.185 212.955 374.244 212.608 374.244 212.256V212.208H372.212C371.7 212.208 371.284 212.272 370.964 212.4C370.644 212.517 370.414 212.688 370.276 212.912C370.137 213.125 370.068 213.371 370.068 213.648C370.068 213.936 370.132 214.187 370.26 214.4C370.398 214.603 370.596 214.763 370.852 214.88C371.108 214.997 371.422 215.056 371.796 215.056ZM377.651 216V207.968H378.867L378.947 209.376C379.203 208.875 379.566 208.485 380.035 208.208C380.515 207.92 381.059 207.776 381.667 207.776C382.296 207.776 382.84 207.899 383.299 208.144C383.758 208.389 384.115 208.768 384.371 209.28C384.627 209.792 384.755 210.437 384.755 211.216V216H383.411V211.36C383.411 210.549 383.235 209.941 382.883 209.536C382.531 209.131 382.024 208.928 381.363 208.928C380.915 208.928 380.51 209.04 380.147 209.264C379.795 209.477 379.512 209.792 379.299 210.208C379.096 210.624 378.995 211.131 378.995 211.728V216H377.651ZM389.863 216.192C389.212 216.192 388.636 216.085 388.135 215.872C387.633 215.648 387.233 215.333 386.935 214.928C386.647 214.523 386.465 214.048 386.391 213.504H387.767C387.831 213.781 387.948 214.043 388.119 214.288C388.289 214.523 388.519 214.709 388.807 214.848C389.105 214.987 389.463 215.056 389.879 215.056C390.263 215.056 390.577 215.003 390.823 214.896C391.068 214.779 391.249 214.624 391.367 214.432C391.484 214.24 391.543 214.032 391.543 213.808C391.543 213.488 391.463 213.243 391.303 213.072C391.153 212.901 390.929 212.768 390.631 212.672C390.332 212.565 389.975 212.475 389.559 212.4C389.207 212.336 388.86 212.251 388.519 212.144C388.188 212.037 387.889 211.899 387.623 211.728C387.356 211.557 387.143 211.344 386.983 211.088C386.823 210.821 386.743 210.507 386.743 210.144C386.743 209.685 386.86 209.28 387.095 208.928C387.34 208.565 387.676 208.283 388.103 208.08C388.54 207.877 389.057 207.776 389.655 207.776C390.508 207.776 391.201 207.984 391.735 208.4C392.279 208.816 392.593 209.419 392.679 210.208H391.351C391.308 209.803 391.137 209.488 390.839 209.264C390.54 209.029 390.14 208.912 389.639 208.912C389.137 208.912 388.753 209.013 388.487 209.216C388.231 209.419 388.103 209.685 388.103 210.016C388.103 210.229 388.172 210.416 388.311 210.576C388.46 210.736 388.679 210.875 388.967 210.992C389.255 211.099 389.601 211.195 390.007 211.28C390.529 211.376 391.009 211.504 391.447 211.664C391.884 211.824 392.236 212.059 392.503 212.368C392.78 212.677 392.919 213.12 392.919 213.696C392.929 214.197 392.807 214.635 392.551 215.008C392.305 215.381 391.953 215.675 391.495 215.888C391.036 216.091 390.492 216.192 389.863 216.192ZM395.318 216V206.688C395.318 206.176 395.403 205.76 395.574 205.44C395.745 205.109 395.995 204.869 396.326 204.72C396.667 204.56 397.083 204.48 397.574 204.48H398.454V205.632H397.782C397.377 205.632 397.089 205.712 396.918 205.872C396.747 206.032 396.662 206.315 396.662 206.72V216H395.318ZM394.086 209.104V207.968H398.662V209.104H394.086ZM403.579 216.192C402.833 216.192 402.161 216.021 401.563 215.68C400.966 215.328 400.491 214.837 400.139 214.208C399.798 213.579 399.627 212.837 399.627 211.984C399.627 211.131 399.803 210.389 400.155 209.76C400.507 209.131 400.982 208.645 401.579 208.304C402.187 207.952 402.865 207.776 403.611 207.776C404.369 207.776 405.046 207.952 405.643 208.304C406.241 208.645 406.71 209.131 407.051 209.76C407.393 210.389 407.563 211.131 407.563 211.984C407.563 212.837 407.387 213.579 407.035 214.208C406.694 214.837 406.219 215.328 405.611 215.68C405.014 216.021 404.337 216.192 403.579 216.192ZM403.579 215.04C404.049 215.04 404.481 214.928 404.875 214.704C405.27 214.469 405.585 214.128 405.819 213.68C406.065 213.221 406.187 212.656 406.187 211.984C406.187 211.301 406.07 210.736 405.835 210.288C405.601 209.84 405.286 209.504 404.891 209.28C404.497 209.045 404.07 208.928 403.611 208.928C403.163 208.928 402.737 209.045 402.331 209.28C401.937 209.504 401.617 209.84 401.371 210.288C401.126 210.736 401.003 211.301 401.003 211.984C401.003 212.656 401.126 213.221 401.371 213.68C401.617 214.128 401.931 214.469 402.315 214.704C402.71 214.928 403.131 215.04 403.579 215.04ZM409.448 216V207.968H410.664L410.776 209.504C410.957 209.141 411.186 208.832 411.464 208.576C411.752 208.32 412.093 208.123 412.488 207.984C412.882 207.845 413.33 207.776 413.832 207.776V209.184H413.368C413.026 209.184 412.701 209.232 412.392 209.328C412.082 209.413 411.805 209.557 411.56 209.76C411.325 209.952 411.138 210.224 411 210.576C410.861 210.928 410.792 211.36 410.792 211.872V216H409.448ZM415.338 216V207.968H416.554L416.65 209.12C416.906 208.693 417.248 208.363 417.674 208.128C418.101 207.893 418.576 207.776 419.098 207.776C419.514 207.776 419.893 207.835 420.234 207.952C420.576 208.059 420.874 208.229 421.13 208.464C421.386 208.688 421.594 208.976 421.754 209.328C422.032 208.837 422.41 208.459 422.89 208.192C423.381 207.915 423.904 207.776 424.458 207.776C425.077 207.776 425.616 207.904 426.074 208.16C426.544 208.405 426.906 208.784 427.162 209.296C427.418 209.797 427.546 210.437 427.546 211.216V216H426.218V211.36C426.218 210.549 426.053 209.941 425.722 209.536C425.392 209.131 424.922 208.928 424.314 208.928C423.898 208.928 423.52 209.04 423.178 209.264C422.848 209.477 422.586 209.792 422.394 210.208C422.213 210.624 422.122 211.136 422.122 211.744V216H420.778V211.36C420.778 210.549 420.613 209.941 420.282 209.536C419.952 209.131 419.482 208.928 418.874 208.928C418.469 208.928 418.096 209.04 417.754 209.264C417.424 209.477 417.162 209.792 416.97 210.208C416.778 210.624 416.682 211.136 416.682 211.744V216H415.338ZM437.022 216C436.542 216 436.126 215.925 435.774 215.776C435.422 215.627 435.15 215.376 434.958 215.024C434.777 214.661 434.686 214.176 434.686 213.568V209.104H433.294V207.968H434.686L434.862 206.032H436.03V207.968H438.382V209.104H436.03V213.568C436.03 214.069 436.131 214.411 436.334 214.592C436.537 214.763 436.894 214.848 437.406 214.848H438.27V216H437.022ZM440.104 216V204.48H441.448V209.328C441.725 208.837 442.104 208.459 442.584 208.192C443.064 207.915 443.597 207.776 444.184 207.776C444.803 207.776 445.336 207.904 445.784 208.16C446.243 208.405 446.595 208.784 446.84 209.296C447.096 209.808 447.224 210.453 447.224 211.232V216H445.896V211.376C445.896 210.565 445.725 209.957 445.384 209.552C445.043 209.136 444.547 208.928 443.896 208.928C443.437 208.928 443.021 209.04 442.648 209.264C442.285 209.477 441.992 209.797 441.768 210.224C441.555 210.64 441.448 211.152 441.448 211.76V216H440.104ZM452.844 216.192C452.097 216.192 451.43 216.016 450.844 215.664C450.257 215.312 449.793 214.821 449.452 214.192C449.121 213.563 448.956 212.827 448.956 211.984C448.956 211.131 449.121 210.395 449.452 209.776C449.782 209.147 450.241 208.656 450.828 208.304C451.425 207.952 452.108 207.776 452.876 207.776C453.665 207.776 454.337 207.952 454.892 208.304C455.446 208.656 455.868 209.115 456.156 209.68C456.454 210.245 456.604 210.869 456.604 211.552C456.604 211.659 456.604 211.771 456.604 211.888C456.604 212.005 456.598 212.139 456.588 212.288H449.964V211.248H455.276C455.244 210.512 454.998 209.941 454.54 209.536C454.092 209.12 453.526 208.912 452.844 208.912C452.396 208.912 451.974 209.019 451.58 209.232C451.185 209.435 450.865 209.733 450.62 210.128C450.385 210.523 450.268 211.019 450.268 211.616V212.064C450.268 212.725 450.39 213.28 450.636 213.728C450.881 214.165 451.196 214.496 451.58 214.72C451.974 214.944 452.396 215.056 452.844 215.056C453.409 215.056 453.873 214.933 454.236 214.688C454.609 214.432 454.881 214.085 455.052 213.648H456.38C456.241 214.139 456.012 214.576 455.692 214.96C455.372 215.333 454.972 215.632 454.492 215.856C454.022 216.08 453.473 216.192 452.844 216.192ZM464.267 216L461.915 207.968H463.259L465.099 214.768H464.827L466.843 207.968H468.363L470.395 214.752L470.123 214.768L471.963 207.968H473.323L470.971 216H469.595L467.483 208.896H467.755L465.643 216H464.267ZM477.166 216.192C476.515 216.192 475.971 216.08 475.534 215.856C475.097 215.621 474.771 215.317 474.558 214.944C474.345 214.56 474.238 214.149 474.238 213.712C474.238 213.168 474.377 212.709 474.654 212.336C474.942 211.952 475.342 211.664 475.854 211.472C476.377 211.269 476.985 211.168 477.678 211.168H479.822C479.822 210.667 479.742 210.251 479.582 209.92C479.433 209.589 479.209 209.339 478.91 209.168C478.611 208.997 478.249 208.912 477.822 208.912C477.31 208.912 476.867 209.04 476.494 209.296C476.121 209.552 475.891 209.931 475.806 210.432H474.43C474.494 209.856 474.686 209.376 475.006 208.992C475.337 208.597 475.753 208.299 476.254 208.096C476.755 207.883 477.278 207.776 477.822 207.776C478.569 207.776 479.187 207.915 479.678 208.192C480.169 208.459 480.537 208.837 480.782 209.328C481.038 209.808 481.166 210.373 481.166 211.024V216H479.966L479.886 214.576C479.779 214.8 479.641 215.013 479.47 215.216C479.31 215.408 479.118 215.579 478.894 215.728C478.681 215.867 478.43 215.979 478.142 216.064C477.854 216.149 477.529 216.192 477.166 216.192ZM477.374 215.056C477.747 215.056 478.083 214.981 478.382 214.832C478.691 214.672 478.953 214.459 479.166 214.192C479.379 213.925 479.539 213.627 479.646 213.296C479.763 212.955 479.822 212.608 479.822 212.256V212.208H477.79C477.278 212.208 476.862 212.272 476.542 212.4C476.222 212.517 475.993 212.688 475.854 212.912C475.715 213.125 475.646 213.371 475.646 213.648C475.646 213.936 475.71 214.187 475.838 214.4C475.977 214.603 476.174 214.763 476.43 214.88C476.686 214.997 477.001 215.056 477.374 215.056ZM483.875 219.52L485.843 215.104H485.379L482.227 207.968H483.683L486.307 214.096L489.075 207.968H490.467L485.283 219.52H483.875ZM497.015 219.52L498.983 215.104H498.519L495.367 207.968H496.823L499.447 214.096L502.215 207.968H503.607L498.423 219.52H497.015ZM507.892 216.192C507.145 216.192 506.473 216.021 505.876 215.68C505.279 215.328 504.804 214.837 504.452 214.208C504.111 213.579 503.94 212.837 503.94 211.984C503.94 211.131 504.116 210.389 504.468 209.76C504.82 209.131 505.295 208.645 505.892 208.304C506.5 207.952 507.177 207.776 507.924 207.776C508.681 207.776 509.359 207.952 509.956 208.304C510.553 208.645 511.023 209.131 511.364 209.76C511.705 210.389 511.876 211.131 511.876 211.984C511.876 212.837 511.7 213.579 511.348 214.208C511.007 214.837 510.532 215.328 509.924 215.68C509.327 216.021 508.649 216.192 507.892 216.192ZM507.892 215.04C508.361 215.04 508.793 214.928 509.188 214.704C509.583 214.469 509.897 214.128 510.132 213.68C510.377 213.221 510.5 212.656 510.5 211.984C510.5 211.301 510.383 210.736 510.148 210.288C509.913 209.84 509.599 209.504 509.204 209.28C508.809 209.045 508.383 208.928 507.924 208.928C507.476 208.928 507.049 209.045 506.644 209.28C506.249 209.504 505.929 209.84 505.684 210.288C505.439 210.736 505.316 211.301 505.316 211.984C505.316 212.656 505.439 213.221 505.684 213.68C505.929 214.128 506.244 214.469 506.628 214.704C507.023 214.928 507.444 215.04 507.892 215.04ZM516.688 216.192C516.07 216.192 515.526 216.069 515.056 215.824C514.598 215.579 514.24 215.2 513.984 214.688C513.739 214.176 513.616 213.531 513.616 212.752V207.968H514.96V212.608C514.96 213.419 515.136 214.027 515.488 214.432C515.84 214.837 516.342 215.04 516.992 215.04C517.44 215.04 517.846 214.933 518.208 214.72C518.571 214.496 518.854 214.176 519.056 213.76C519.27 213.344 519.376 212.837 519.376 212.24V207.968H520.72V216H519.504L519.424 214.592C519.168 215.093 518.8 215.488 518.32 215.776C517.84 216.053 517.296 216.192 516.688 216.192ZM528.814 216L526.462 207.968H527.806L529.646 214.768H529.374L531.39 207.968H532.91L534.942 214.752L534.67 214.768L536.51 207.968H537.87L535.518 216H534.142L532.03 208.896H532.302L530.19 216H528.814ZM542.673 216.192C541.926 216.192 541.254 216.021 540.657 215.68C540.06 215.328 539.585 214.837 539.233 214.208C538.892 213.579 538.721 212.837 538.721 211.984C538.721 211.131 538.897 210.389 539.249 209.76C539.601 209.131 540.076 208.645 540.673 208.304C541.281 207.952 541.958 207.776 542.705 207.776C543.462 207.776 544.14 207.952 544.737 208.304C545.334 208.645 545.804 209.131 546.145 209.76C546.486 210.389 546.657 211.131 546.657 211.984C546.657 212.837 546.481 213.579 546.129 214.208C545.788 214.837 545.313 215.328 544.705 215.68C544.108 216.021 543.43 216.192 542.673 216.192ZM542.673 215.04C543.142 215.04 543.574 214.928 543.969 214.704C544.364 214.469 544.678 214.128 544.913 213.68C545.158 213.221 545.281 212.656 545.281 211.984C545.281 211.301 545.164 210.736 544.929 210.288C544.694 209.84 544.38 209.504 543.985 209.28C543.59 209.045 543.164 208.928 542.705 208.928C542.257 208.928 541.83 209.045 541.425 209.28C541.03 209.504 540.71 209.84 540.465 210.288C540.22 210.736 540.097 211.301 540.097 211.984C540.097 212.656 540.22 213.221 540.465 213.68C540.71 214.128 541.025 214.469 541.409 214.704C541.804 214.928 542.225 215.04 542.673 215.04ZM548.542 216V207.968H549.758L549.87 209.504C550.051 209.141 550.28 208.832 550.558 208.576C550.846 208.32 551.187 208.123 551.582 207.984C551.976 207.845 552.424 207.776 552.926 207.776V209.184H552.462C552.12 209.184 551.795 209.232 551.486 209.328C551.176 209.413 550.899 209.557 550.654 209.76C550.419 209.952 550.232 210.224 550.094 210.576C549.955 210.928 549.886 211.36 549.886 211.872V216H548.542ZM559.408 216L555.552 211.6L559.056 207.968H560.704L556.688 212.08L556.704 211.12L561.12 216H559.408ZM554.432 216V204.48H555.776V216H554.432ZM569.913 216C569.433 216 569.017 215.925 568.665 215.776C568.313 215.627 568.041 215.376 567.849 215.024C567.667 214.661 567.577 214.176 567.577 213.568V209.104H566.185V207.968H567.577L567.753 206.032H568.921V207.968H571.273V209.104H568.921V213.568C568.921 214.069 569.022 214.411 569.225 214.592C569.427 214.763 569.785 214.848 570.297 214.848H571.161V216H569.913ZM576.392 216.192C575.645 216.192 574.973 216.021 574.376 215.68C573.779 215.328 573.304 214.837 572.952 214.208C572.611 213.579 572.44 212.837 572.44 211.984C572.44 211.131 572.616 210.389 572.968 209.76C573.32 209.131 573.795 208.645 574.392 208.304C575 207.952 575.677 207.776 576.424 207.776C577.181 207.776 577.859 207.952 578.456 208.304C579.053 208.645 579.523 209.131 579.864 209.76C580.205 210.389 580.376 211.131 580.376 211.984C580.376 212.837 580.2 213.579 579.848 214.208C579.507 214.837 579.032 215.328 578.424 215.68C577.827 216.021 577.149 216.192 576.392 216.192ZM576.392 215.04C576.861 215.04 577.293 214.928 577.688 214.704C578.083 214.469 578.397 214.128 578.632 213.68C578.877 213.221 579 212.656 579 211.984C579 211.301 578.883 210.736 578.648 210.288C578.413 209.84 578.099 209.504 577.704 209.28C577.309 209.045 576.883 208.928 576.424 208.928C575.976 208.928 575.549 209.045 575.144 209.28C574.749 209.504 574.429 209.84 574.184 210.288C573.939 210.736 573.816 211.301 573.816 211.984C573.816 212.656 573.939 213.221 574.184 213.68C574.429 214.128 574.744 214.469 575.128 214.704C575.523 214.928 575.944 215.04 576.392 215.04ZM585.844 216.192C585.066 216.192 584.378 216.011 583.78 215.648C583.194 215.275 582.735 214.773 582.404 214.144C582.084 213.504 581.924 212.779 581.924 211.968C581.924 211.157 582.084 210.437 582.404 209.808C582.735 209.179 583.194 208.683 583.78 208.32C584.378 207.957 585.071 207.776 585.86 207.776C586.511 207.776 587.087 207.909 587.588 208.176C588.09 208.443 588.474 208.816 588.74 209.296V204.48H590.084V216H588.868L588.74 214.688C588.57 214.944 588.351 215.189 588.084 215.424C587.828 215.648 587.514 215.835 587.14 215.984C586.767 216.123 586.335 216.192 585.844 216.192ZM585.988 215.024C586.522 215.024 586.991 214.901 587.396 214.656C587.812 214.4 588.132 214.043 588.356 213.584C588.58 213.125 588.692 212.592 588.692 211.984C588.692 211.376 588.58 210.843 588.356 210.384C588.132 209.925 587.812 209.573 587.396 209.328C586.991 209.072 586.522 208.944 585.988 208.944C585.476 208.944 585.012 209.072 584.596 209.328C584.191 209.573 583.871 209.925 583.636 210.384C583.412 210.843 583.3 211.376 583.3 211.984C583.3 212.592 583.412 213.125 583.636 213.584C583.871 214.043 584.191 214.4 584.596 214.656C585.012 214.901 585.476 215.024 585.988 215.024ZM594.932 216.192C594.281 216.192 593.737 216.08 593.299 215.856C592.862 215.621 592.537 215.317 592.324 214.944C592.11 214.56 592.004 214.149 592.004 213.712C592.004 213.168 592.142 212.709 592.42 212.336C592.708 211.952 593.108 211.664 593.62 211.472C594.142 211.269 594.75 211.168 595.444 211.168H597.588C597.588 210.667 597.508 210.251 597.348 209.92C597.198 209.589 596.974 209.339 596.676 209.168C596.377 208.997 596.014 208.912 595.588 208.912C595.076 208.912 594.633 209.04 594.26 209.296C593.886 209.552 593.657 209.931 593.572 210.432H592.196C592.26 209.856 592.452 209.376 592.772 208.992C593.102 208.597 593.518 208.299 594.02 208.096C594.521 207.883 595.044 207.776 595.588 207.776C596.334 207.776 596.953 207.915 597.444 208.192C597.934 208.459 598.302 208.837 598.548 209.328C598.804 209.808 598.932 210.373 598.932 211.024V216H597.732L597.652 214.576C597.545 214.8 597.406 215.013 597.236 215.216C597.076 215.408 596.884 215.579 596.66 215.728C596.446 215.867 596.196 215.979 595.908 216.064C595.62 216.149 595.294 216.192 594.932 216.192ZM595.14 215.056C595.513 215.056 595.849 214.981 596.148 214.832C596.457 214.672 596.718 214.459 596.932 214.192C597.145 213.925 597.305 213.627 597.412 213.296C597.529 212.955 597.588 212.608 597.588 212.256V212.208H595.556C595.044 212.208 594.628 212.272 594.308 212.4C593.988 212.517 593.758 212.688 593.62 212.912C593.481 213.125 593.412 213.371 593.412 213.648C593.412 213.936 593.476 214.187 593.604 214.4C593.742 214.603 593.94 214.763 594.196 214.88C594.452 214.997 594.766 215.056 595.14 215.056ZM601.64 219.52L603.608 215.104H603.144L599.992 207.968H601.448L604.072 214.096L606.84 207.968H608.232L603.048 219.52H601.64ZM608.99 216.08C608.724 216.08 608.5 215.995 608.318 215.824C608.148 215.643 608.062 215.424 608.062 215.168C608.062 214.912 608.148 214.699 608.318 214.528C608.5 214.347 608.724 214.256 608.99 214.256C609.257 214.256 609.476 214.347 609.646 214.528C609.817 214.699 609.902 214.912 609.902 215.168C609.902 215.424 609.817 215.643 609.646 215.824C609.476 215.995 609.257 216.08 608.99 216.08Z" fill="#BABABA"/>
<defs>
<linearGradient id="paint0_linear_4111_29" x1="636" y1="0" x2="437.587" y2="483.917" gradientUnits="userSpaceOnUse">
<stop stop-color="#AAD9D1"/>
<stop offset="1" stop-color="#017373"/>
</linearGradient>
</defs>
</svg>
