<svg width="609" height="16" viewBox="0 0 609 16" fill="none" xmlns="http://www.w3.org/2000/svg">
<path d="M0.2 12V0.799999H7.128V1.904H1.544V5.808H6.648V6.896H1.544V10.896H7.128V12H0.2ZM8.36688 12L11.1029 7.984L8.36688 3.968H9.82288L12.0149 7.264L14.2389 3.968H15.6789L12.9429 7.984L15.6789 12H14.2389L12.0149 8.688L9.82288 12H8.36688ZM17.104 15.52V3.968H18.32L18.448 5.28C18.6187 5.024 18.8373 4.784 19.104 4.56C19.3707 4.32533 19.6907 4.13867 20.064 4C20.4373 3.85067 20.8693 3.776 21.36 3.776C22.1387 3.776 22.816 3.96267 23.392 4.336C23.9787 4.69867 24.432 5.2 24.752 5.84C25.0827 6.46933 25.248 7.18933 25.248 8C25.248 8.81067 25.0827 9.53067 24.752 10.16C24.432 10.7893 23.9787 11.2853 23.392 11.648C22.8053 12.0107 22.1227 12.192 21.344 12.192C20.6933 12.192 20.1173 12.0587 19.616 11.792C19.1147 11.5253 18.7253 11.152 18.448 10.672V15.52H17.104ZM21.184 11.024C21.7173 11.024 22.1867 10.9013 22.592 10.656C22.9973 10.4 23.312 10.0427 23.536 9.584C23.7707 9.12533 23.888 8.592 23.888 7.984C23.888 7.376 23.7707 6.84267 23.536 6.384C23.312 5.92533 22.9973 5.57333 22.592 5.328C22.1867 5.072 21.7173 4.944 21.184 4.944C20.6507 4.944 20.1813 5.072 19.776 5.328C19.3707 5.57333 19.056 5.92533 18.832 6.384C18.608 6.84267 18.496 7.376 18.496 7.984C18.496 8.592 18.608 9.12533 18.832 9.584C19.056 10.0427 19.3707 10.4 19.776 10.656C20.1813 10.9013 20.6507 11.024 21.184 11.024ZM30.6873 12.192C29.9406 12.192 29.2739 12.016 28.6873 11.664C28.1006 11.312 27.6366 10.8213 27.2953 10.192C26.9646 9.56267 26.7993 8.82667 26.7993 7.984C26.7993 7.13067 26.9646 6.39467 27.2953 5.776C27.6259 5.14667 28.0846 4.656 28.6713 4.304C29.2686 3.952 29.9513 3.776 30.7193 3.776C31.5086 3.776 32.1806 3.952 32.7353 4.304C33.2899 4.656 33.7113 5.11467 33.9993 5.68C34.2979 6.24533 34.4473 6.86933 34.4473 7.552C34.4473 7.65867 34.4473 7.77067 34.4473 7.888C34.4473 8.00533 34.4419 8.13867 34.4313 8.288H27.8073V7.248H33.1193C33.0873 6.512 32.8419 5.94133 32.3833 5.536C31.9353 5.12 31.3699 4.912 30.6873 4.912C30.2393 4.912 29.8179 5.01867 29.4233 5.232C29.0286 5.43467 28.7086 5.73333 28.4633 6.128C28.2286 6.52267 28.1113 7.01867 28.1113 7.616V8.064C28.1113 8.72533 28.2339 9.28 28.4793 9.728C28.7246 10.1653 29.0393 10.496 29.4233 10.72C29.8179 10.944 30.2393 11.056 30.6873 11.056C31.2526 11.056 31.7166 10.9333 32.0793 10.688C32.4526 10.432 32.7246 10.0853 32.8953 9.648H34.2233C34.0846 10.1387 33.8553 10.576 33.5353 10.96C33.2153 11.3333 32.8153 11.632 32.3353 11.856C31.8659 12.08 31.3166 12.192 30.6873 12.192ZM36.229 12V3.968H37.445L37.557 5.504C37.7383 5.14133 37.9677 4.832 38.245 4.576C38.533 4.32 38.8743 4.12267 39.269 3.984C39.6637 3.84533 40.1117 3.776 40.613 3.776V5.184H40.149C39.8077 5.184 39.4823 5.232 39.173 5.328C38.8637 5.41333 38.5863 5.55733 38.341 5.76C38.1063 5.952 37.9197 6.224 37.781 6.576C37.6423 6.928 37.573 7.36 37.573 7.872V12H36.229ZM42.2636 12V3.968H43.6076V12H42.2636ZM42.9356 2.24C42.669 2.24 42.445 2.15467 42.2636 1.984C42.093 1.80267 42.0076 1.57867 42.0076 1.312C42.0076 1.04533 42.093 0.832 42.2636 0.672C42.445 0.501333 42.669 0.415999 42.9356 0.415999C43.1916 0.415999 43.4103 0.501333 43.5916 0.672C43.773 0.832 43.8636 1.04533 43.8636 1.312C43.8636 1.57867 43.773 1.80267 43.5916 1.984C43.4103 2.15467 43.1916 2.24 42.9356 2.24ZM49.4998 12.192C48.7531 12.192 48.0864 12.016 47.4998 11.664C46.9131 11.312 46.4491 10.8213 46.1078 10.192C45.7771 9.56267 45.6118 8.82667 45.6118 7.984C45.6118 7.13067 45.7771 6.39467 46.1078 5.776C46.4384 5.14667 46.8971 4.656 47.4838 4.304C48.0811 3.952 48.7638 3.776 49.5318 3.776C50.3211 3.776 50.9931 3.952 51.5478 4.304C52.1024 4.656 52.5238 5.11467 52.8118 5.68C53.1104 6.24533 53.2598 6.86933 53.2598 7.552C53.2598 7.65867 53.2598 7.77067 53.2598 7.888C53.2598 8.00533 53.2544 8.13867 53.2438 8.288H46.6198V7.248H51.9318C51.8998 6.512 51.6544 5.94133 51.1958 5.536C50.7478 5.12 50.1824 4.912 49.4998 4.912C49.0518 4.912 48.6304 5.01867 48.2358 5.232C47.8411 5.43467 47.5211 5.73333 47.2758 6.128C47.0411 6.52267 46.9238 7.01867 46.9238 7.616V8.064C46.9238 8.72533 47.0464 9.28 47.2918 9.728C47.5371 10.1653 47.8518 10.496 48.2358 10.72C48.6304 10.944 49.0518 11.056 49.4998 11.056C50.0651 11.056 50.5291 10.9333 50.8918 10.688C51.2651 10.432 51.5371 10.0853 51.7078 9.648H53.0358C52.8971 10.1387 52.6678 10.576 52.3478 10.96C52.0278 11.3333 51.6278 11.632 51.1478 11.856C50.6784 12.08 50.1291 12.192 49.4998 12.192ZM55.0415 12V3.968H56.2575L56.3375 5.376C56.5935 4.87467 56.9562 4.48533 57.4255 4.208C57.9055 3.92 58.4495 3.776 59.0575 3.776C59.6868 3.776 60.2308 3.89867 60.6895 4.144C61.1482 4.38933 61.5055 4.768 61.7615 5.28C62.0175 5.792 62.1455 6.43733 62.1455 7.216V12H60.8015V7.36C60.8015 6.54933 60.6255 5.94133 60.2735 5.536C59.9215 5.13067 59.4148 4.928 58.7535 4.928C58.3055 4.928 57.9002 5.04 57.5375 5.264C57.1855 5.47733 56.9028 5.792 56.6895 6.208C56.4868 6.624 56.3855 7.13067 56.3855 7.728V12H55.0415ZM67.8614 12.192C67.104 12.192 66.4214 12.016 65.8134 11.664C65.216 11.312 64.7414 10.8213 64.3894 10.192C64.048 9.56267 63.8774 8.82667 63.8774 7.984C63.8774 7.14133 64.048 6.40533 64.3894 5.776C64.7414 5.14667 65.216 4.656 65.8134 4.304C66.4214 3.952 67.104 3.776 67.8614 3.776C68.8214 3.776 69.6214 4.02667 70.2614 4.528C70.9014 5.01867 71.3067 5.68 71.4774 6.512H70.1014C69.9947 6.01067 69.7334 5.62133 69.3174 5.344C68.9014 5.06667 68.4107 4.928 67.8454 4.928C67.3867 4.928 66.96 5.04533 66.5654 5.28C66.1814 5.504 65.8667 5.84533 65.6214 6.304C65.376 6.752 65.2534 7.312 65.2534 7.984C65.2534 8.48533 65.3227 8.928 65.4614 9.312C65.6107 9.696 65.8027 10.0213 66.0374 10.288C66.272 10.544 66.544 10.736 66.8534 10.864C67.1734 10.992 67.504 11.056 67.8454 11.056C68.2294 11.056 68.576 10.9973 68.8854 10.88C69.1947 10.752 69.456 10.5707 69.6694 10.336C69.8827 10.0907 70.0267 9.79733 70.1014 9.456H71.4774C71.3067 10.2773 70.896 10.9387 70.2454 11.44C69.6054 11.9413 68.8107 12.192 67.8614 12.192ZM76.906 12.192C76.1593 12.192 75.4927 12.016 74.906 11.664C74.3193 11.312 73.8553 10.8213 73.514 10.192C73.1833 9.56267 73.018 8.82667 73.018 7.984C73.018 7.13067 73.1833 6.39467 73.514 5.776C73.8447 5.14667 74.3033 4.656 74.89 4.304C75.4873 3.952 76.17 3.776 76.938 3.776C77.7273 3.776 78.3993 3.952 78.954 4.304C79.5087 4.656 79.93 5.11467 80.218 5.68C80.5167 6.24533 80.666 6.86933 80.666 7.552C80.666 7.65867 80.666 7.77067 80.666 7.888C80.666 8.00533 80.6607 8.13867 80.65 8.288H74.026V7.248H79.338C79.306 6.512 79.0607 5.94133 78.602 5.536C78.154 5.12 77.5887 4.912 76.906 4.912C76.458 4.912 76.0367 5.01867 75.642 5.232C75.2473 5.43467 74.9273 5.73333 74.682 6.128C74.4473 6.52267 74.33 7.01867 74.33 7.616V8.064C74.33 8.72533 74.4527 9.28 74.698 9.728C74.9433 10.1653 75.258 10.496 75.642 10.72C76.0367 10.944 76.458 11.056 76.906 11.056C77.4713 11.056 77.9353 10.9333 78.298 10.688C78.6713 10.432 78.9433 10.0853 79.114 9.648H80.442C80.3033 10.1387 80.074 10.576 79.754 10.96C79.434 11.3333 79.034 11.632 78.554 11.856C78.0847 12.08 77.5353 12.192 76.906 12.192ZM89.8658 12C89.3858 12 88.9698 11.9253 88.6178 11.776C88.2658 11.6267 87.9938 11.376 87.8018 11.024C87.6204 10.6613 87.5298 10.176 87.5298 9.568V5.104H86.1378V3.968H87.5298L87.7057 2.032H88.8738V3.968H91.2258V5.104H88.8738V9.568C88.8738 10.0693 88.9751 10.4107 89.1778 10.592C89.3804 10.7627 89.7378 10.848 90.2498 10.848H91.1138V12H89.8658ZM92.9478 12V0.48H94.2918V5.328C94.5691 4.83733 94.9478 4.45867 95.4278 4.192C95.9078 3.91467 96.4411 3.776 97.0278 3.776C97.6464 3.776 98.1798 3.904 98.6278 4.16C99.0864 4.40533 99.4384 4.784 99.6838 5.296C99.9398 5.808 100.068 6.45333 100.068 7.232V12H98.7398V7.376C98.7398 6.56533 98.5691 5.95733 98.2278 5.552C97.8864 5.136 97.3904 4.928 96.7398 4.928C96.2811 4.928 95.8651 5.04 95.4918 5.264C95.1291 5.47733 94.8358 5.79733 94.6118 6.224C94.3984 6.64 94.2918 7.152 94.2918 7.76V12H92.9478ZM105.687 12.192C104.941 12.192 104.274 12.016 103.687 11.664C103.101 11.312 102.637 10.8213 102.295 10.192C101.965 9.56267 101.799 8.82667 101.799 7.984C101.799 7.13067 101.965 6.39467 102.295 5.776C102.626 5.14667 103.085 4.656 103.671 4.304C104.269 3.952 104.951 3.776 105.719 3.776C106.509 3.776 107.181 3.952 107.735 4.304C108.29 4.656 108.711 5.11467 108.999 5.68C109.298 6.24533 109.447 6.86933 109.447 7.552C109.447 7.65867 109.447 7.77067 109.447 7.888C109.447 8.00533 109.442 8.13867 109.431 8.288H102.807V7.248H108.119C108.087 6.512 107.842 5.94133 107.383 5.536C106.935 5.12 106.37 4.912 105.687 4.912C105.239 4.912 104.818 5.01867 104.423 5.232C104.029 5.43467 103.709 5.73333 103.463 6.128C103.229 6.52267 103.111 7.01867 103.111 7.616V8.064C103.111 8.72533 103.234 9.28 103.479 9.728C103.725 10.1653 104.039 10.496 104.423 10.72C104.818 10.944 105.239 11.056 105.687 11.056C106.253 11.056 106.717 10.9333 107.079 10.688C107.453 10.432 107.725 10.0853 107.895 9.648H109.223C109.085 10.1387 108.855 10.576 108.535 10.96C108.215 11.3333 107.815 11.632 107.335 11.856C106.866 12.08 106.317 12.192 105.687 12.192ZM115.479 15.52V3.968H116.695L116.823 5.28C116.994 5.024 117.212 4.784 117.479 4.56C117.746 4.32533 118.066 4.13867 118.439 4C118.812 3.85067 119.244 3.776 119.735 3.776C120.514 3.776 121.191 3.96267 121.767 4.336C122.354 4.69867 122.807 5.2 123.127 5.84C123.458 6.46933 123.623 7.18933 123.623 8C123.623 8.81067 123.458 9.53067 123.127 10.16C122.807 10.7893 122.354 11.2853 121.767 11.648C121.18 12.0107 120.498 12.192 119.719 12.192C119.068 12.192 118.492 12.0587 117.991 11.792C117.49 11.5253 117.1 11.152 116.823 10.672V15.52H115.479ZM119.559 11.024C120.092 11.024 120.562 10.9013 120.967 10.656C121.372 10.4 121.687 10.0427 121.911 9.584C122.146 9.12533 122.263 8.592 122.263 7.984C122.263 7.376 122.146 6.84267 121.911 6.384C121.687 5.92533 121.372 5.57333 120.967 5.328C120.562 5.072 120.092 4.944 119.559 4.944C119.026 4.944 118.556 5.072 118.151 5.328C117.746 5.57333 117.431 5.92533 117.207 6.384C116.983 6.84267 116.871 7.376 116.871 7.984C116.871 8.592 116.983 9.12533 117.207 9.584C117.431 10.0427 117.746 10.4 118.151 10.656C118.556 10.9013 119.026 11.024 119.559 11.024ZM129.126 12.192C128.38 12.192 127.708 12.0213 127.11 11.68C126.513 11.328 126.038 10.8373 125.686 10.208C125.345 9.57867 125.174 8.83733 125.174 7.984C125.174 7.13067 125.35 6.38933 125.702 5.76C126.054 5.13067 126.529 4.64533 127.126 4.304C127.734 3.952 128.412 3.776 129.158 3.776C129.916 3.776 130.593 3.952 131.19 4.304C131.788 4.64533 132.257 5.13067 132.598 5.76C132.94 6.38933 133.11 7.13067 133.11 7.984C133.11 8.83733 132.934 9.57867 132.582 10.208C132.241 10.8373 131.766 11.328 131.158 11.68C130.561 12.0213 129.884 12.192 129.126 12.192ZM129.126 11.04C129.596 11.04 130.028 10.928 130.422 10.704C130.817 10.4693 131.132 10.128 131.366 9.68C131.612 9.22133 131.734 8.656 131.734 7.984C131.734 7.30133 131.617 6.736 131.382 6.288C131.148 5.84 130.833 5.504 130.438 5.28C130.044 5.04533 129.617 4.928 129.158 4.928C128.71 4.928 128.284 5.04533 127.878 5.28C127.484 5.504 127.164 5.84 126.918 6.288C126.673 6.736 126.55 7.30133 126.55 7.984C126.55 8.656 126.673 9.22133 126.918 9.68C127.164 10.128 127.478 10.4693 127.862 10.704C128.257 10.928 128.678 11.04 129.126 11.04ZM136.33 12L133.978 3.968H135.322L137.162 10.768H136.89L138.906 3.968H140.426L142.458 10.752L142.186 10.768L144.026 3.968H145.386L143.034 12H141.658L139.546 4.896H139.818L137.706 12H136.33ZM150.125 12.192C149.378 12.192 148.711 12.016 148.125 11.664C147.538 11.312 147.074 10.8213 146.733 10.192C146.402 9.56267 146.237 8.82667 146.237 7.984C146.237 7.13067 146.402 6.39467 146.733 5.776C147.063 5.14667 147.522 4.656 148.109 4.304C148.706 3.952 149.389 3.776 150.157 3.776C150.946 3.776 151.618 3.952 152.173 4.304C152.727 4.656 153.149 5.11467 153.437 5.68C153.735 6.24533 153.885 6.86933 153.885 7.552C153.885 7.65867 153.885 7.77067 153.885 7.888C153.885 8.00533 153.879 8.13867 153.869 8.288H147.245V7.248H152.557C152.525 6.512 152.279 5.94133 151.821 5.536C151.373 5.12 150.807 4.912 150.125 4.912C149.677 4.912 149.255 5.01867 148.861 5.232C148.466 5.43467 148.146 5.73333 147.901 6.128C147.666 6.52267 147.549 7.01867 147.549 7.616V8.064C147.549 8.72533 147.671 9.28 147.917 9.728C148.162 10.1653 148.477 10.496 148.861 10.72C149.255 10.944 149.677 11.056 150.125 11.056C150.69 11.056 151.154 10.9333 151.517 10.688C151.89 10.432 152.162 10.0853 152.333 9.648H153.661C153.522 10.1387 153.293 10.576 152.973 10.96C152.653 11.3333 152.253 11.632 151.773 11.856C151.303 12.08 150.754 12.192 150.125 12.192ZM155.667 12V3.968H156.883L156.995 5.504C157.176 5.14133 157.405 4.832 157.683 4.576C157.971 4.32 158.312 4.12267 158.707 3.984C159.101 3.84533 159.549 3.776 160.051 3.776V5.184H159.587C159.245 5.184 158.92 5.232 158.611 5.328C158.301 5.41333 158.024 5.55733 157.779 5.76C157.544 5.952 157.357 6.224 157.219 6.576C157.08 6.928 157.011 7.36 157.011 7.872V12H155.667ZM169.423 12.192C168.676 12.192 168.004 12.0213 167.407 11.68C166.81 11.328 166.335 10.8373 165.983 10.208C165.642 9.57867 165.471 8.83733 165.471 7.984C165.471 7.13067 165.647 6.38933 165.999 5.76C166.351 5.13067 166.826 4.64533 167.423 4.304C168.031 3.952 168.708 3.776 169.455 3.776C170.212 3.776 170.89 3.952 171.487 4.304C172.084 4.64533 172.554 5.13067 172.895 5.76C173.236 6.38933 173.407 7.13067 173.407 7.984C173.407 8.83733 173.231 9.57867 172.879 10.208C172.538 10.8373 172.063 11.328 171.455 11.68C170.858 12.0213 170.18 12.192 169.423 12.192ZM169.423 11.04C169.892 11.04 170.324 10.928 170.719 10.704C171.114 10.4693 171.428 10.128 171.663 9.68C171.908 9.22133 172.031 8.656 172.031 7.984C172.031 7.30133 171.914 6.736 171.679 6.288C171.444 5.84 171.13 5.504 170.735 5.28C170.34 5.04533 169.914 4.928 169.455 4.928C169.007 4.928 168.58 5.04533 168.175 5.28C167.78 5.504 167.46 5.84 167.215 6.288C166.97 6.736 166.847 7.30133 166.847 7.984C166.847 8.656 166.97 9.22133 167.215 9.68C167.46 10.128 167.775 10.4693 168.159 10.704C168.554 10.928 168.975 11.04 169.423 11.04ZM175.756 12V2.688C175.756 2.176 175.841 1.76 176.012 1.44C176.182 1.10933 176.433 0.869333 176.764 0.719999C177.105 0.559999 177.521 0.48 178.012 0.48H178.891V1.632H178.22C177.814 1.632 177.526 1.712 177.356 1.872C177.185 2.032 177.1 2.31467 177.1 2.72V12H175.756ZM174.524 5.104V3.968H179.1V5.104H174.524ZM188.003 12.192C187.353 12.192 186.777 12.0853 186.275 11.872C185.774 11.648 185.374 11.3333 185.075 10.928C184.787 10.5227 184.606 10.048 184.531 9.504H185.907C185.971 9.78133 186.089 10.0427 186.259 10.288C186.43 10.5227 186.659 10.7093 186.947 10.848C187.246 10.9867 187.603 11.056 188.019 11.056C188.403 11.056 188.718 11.0027 188.963 10.896C189.209 10.7787 189.39 10.624 189.507 10.432C189.625 10.24 189.683 10.032 189.683 9.808C189.683 9.488 189.603 9.24267 189.443 9.072C189.294 8.90133 189.07 8.768 188.771 8.672C188.473 8.56533 188.115 8.47467 187.699 8.4C187.347 8.336 187.001 8.25067 186.659 8.144C186.329 8.03733 186.03 7.89867 185.763 7.728C185.497 7.55733 185.283 7.344 185.123 7.088C184.963 6.82133 184.883 6.50667 184.883 6.144C184.883 5.68533 185.001 5.28 185.235 4.928C185.481 4.56533 185.817 4.28267 186.243 4.08C186.681 3.87733 187.198 3.776 187.795 3.776C188.649 3.776 189.342 3.984 189.875 4.4C190.419 4.816 190.734 5.41867 190.819 6.208H189.491C189.449 5.80267 189.278 5.488 188.979 5.264C188.681 5.02933 188.281 4.912 187.779 4.912C187.278 4.912 186.894 5.01333 186.627 5.216C186.371 5.41867 186.243 5.68533 186.243 6.016C186.243 6.22933 186.313 6.416 186.451 6.576C186.601 6.736 186.819 6.87467 187.107 6.992C187.395 7.09867 187.742 7.19467 188.147 7.28C188.67 7.376 189.15 7.504 189.587 7.664C190.025 7.824 190.377 8.05867 190.643 8.368C190.921 8.67733 191.059 9.12 191.059 9.696C191.07 10.1973 190.947 10.6347 190.691 11.008C190.446 11.3813 190.094 11.6747 189.635 11.888C189.177 12.0907 188.633 12.192 188.003 12.192ZM192.995 12V3.968H194.211L194.307 5.12C194.563 4.69333 194.904 4.36267 195.331 4.128C195.757 3.89333 196.232 3.776 196.755 3.776C197.171 3.776 197.549 3.83467 197.891 3.952C198.232 4.05867 198.531 4.22933 198.787 4.464C199.043 4.688 199.251 4.976 199.411 5.328C199.688 4.83733 200.067 4.45867 200.547 4.192C201.037 3.91467 201.56 3.776 202.115 3.776C202.733 3.776 203.272 3.904 203.731 4.16C204.2 4.40533 204.563 4.784 204.819 5.296C205.075 5.79733 205.203 6.43733 205.203 7.216V12H203.875V7.36C203.875 6.54933 203.709 5.94133 203.379 5.536C203.048 5.13067 202.579 4.928 201.971 4.928C201.555 4.928 201.176 5.04 200.835 5.264C200.504 5.47733 200.243 5.792 200.051 6.208C199.869 6.624 199.779 7.136 199.779 7.744V12H198.435V7.36C198.435 6.54933 198.269 5.94133 197.939 5.536C197.608 5.13067 197.139 4.928 196.531 4.928C196.125 4.928 195.752 5.04 195.411 5.264C195.08 5.47733 194.819 5.792 194.627 6.208C194.435 6.624 194.339 7.136 194.339 7.744V12H192.995ZM209.9 12.192C209.25 12.192 208.706 12.08 208.268 11.856C207.831 11.6213 207.506 11.3173 207.292 10.944C207.079 10.56 206.972 10.1493 206.972 9.712C206.972 9.168 207.111 8.70933 207.388 8.336C207.676 7.952 208.076 7.664 208.588 7.472C209.111 7.26933 209.719 7.168 210.412 7.168H212.556C212.556 6.66667 212.476 6.25067 212.316 5.92C212.167 5.58933 211.943 5.33867 211.644 5.168C211.346 4.99733 210.983 4.912 210.556 4.912C210.044 4.912 209.602 5.04 209.228 5.296C208.855 5.552 208.626 5.93067 208.54 6.432H207.164C207.228 5.856 207.42 5.376 207.74 4.992C208.071 4.59733 208.487 4.29867 208.988 4.096C209.49 3.88267 210.012 3.776 210.556 3.776C211.303 3.776 211.922 3.91467 212.412 4.192C212.903 4.45867 213.271 4.83733 213.516 5.328C213.772 5.808 213.9 6.37333 213.9 7.024V12H212.7L212.62 10.576C212.514 10.8 212.375 11.0133 212.204 11.216C212.044 11.408 211.852 11.5787 211.628 11.728C211.415 11.8667 211.164 11.9787 210.876 12.064C210.588 12.1493 210.263 12.192 209.9 12.192ZM210.108 11.056C210.482 11.056 210.818 10.9813 211.116 10.832C211.426 10.672 211.687 10.4587 211.9 10.192C212.114 9.92533 212.274 9.62667 212.38 9.296C212.498 8.95467 212.556 8.608 212.556 8.256V8.208H210.524C210.012 8.208 209.596 8.272 209.276 8.4C208.956 8.51733 208.727 8.688 208.588 8.912C208.45 9.12533 208.38 9.37067 208.38 9.648C208.38 9.936 208.444 10.1867 208.572 10.4C208.711 10.6027 208.908 10.7627 209.164 10.88C209.42 10.9973 209.735 11.056 210.108 11.056ZM215.963 12V3.968H217.179L217.291 5.504C217.473 5.14133 217.702 4.832 217.979 4.576C218.267 4.32 218.609 4.12267 219.003 3.984C219.398 3.84533 219.846 3.776 220.347 3.776V5.184H219.883C219.542 5.184 219.217 5.232 218.907 5.328C218.598 5.41333 218.321 5.55733 218.075 5.76C217.841 5.952 217.654 6.224 217.515 6.576C217.377 6.928 217.307 7.36 217.307 7.872V12H215.963ZM225.022 12C224.542 12 224.126 11.9253 223.774 11.776C223.422 11.6267 223.15 11.376 222.958 11.024C222.777 10.6613 222.686 10.176 222.686 9.568V5.104H221.294V3.968H222.686L222.862 2.032H224.03V3.968H226.382V5.104H224.03V9.568C224.03 10.0693 224.131 10.4107 224.334 10.592C224.537 10.7627 224.894 10.848 225.406 10.848H226.27V12H225.022ZM232.354 12V3.968H233.57L233.65 5.376C233.906 4.87467 234.269 4.48533 234.738 4.208C235.218 3.92 235.762 3.776 236.37 3.776C236.999 3.776 237.543 3.89867 238.002 4.144C238.461 4.38933 238.818 4.768 239.074 5.28C239.33 5.792 239.458 6.43733 239.458 7.216V12H238.114V7.36C238.114 6.54933 237.938 5.94133 237.586 5.536C237.234 5.13067 236.727 4.928 236.066 4.928C235.618 4.928 235.213 5.04 234.85 5.264C234.498 5.47733 234.215 5.792 234.002 6.208C233.799 6.624 233.698 7.13067 233.698 7.728V12H232.354ZM245.142 12.192C244.395 12.192 243.723 12.0213 243.126 11.68C242.529 11.328 242.054 10.8373 241.702 10.208C241.361 9.57867 241.19 8.83733 241.19 7.984C241.19 7.13067 241.366 6.38933 241.718 5.76C242.07 5.13067 242.545 4.64533 243.142 4.304C243.75 3.952 244.427 3.776 245.174 3.776C245.931 3.776 246.609 3.952 247.206 4.304C247.803 4.64533 248.273 5.13067 248.614 5.76C248.955 6.38933 249.126 7.13067 249.126 7.984C249.126 8.83733 248.95 9.57867 248.598 10.208C248.257 10.8373 247.782 11.328 247.174 11.68C246.577 12.0213 245.899 12.192 245.142 12.192ZM245.142 11.04C245.611 11.04 246.043 10.928 246.438 10.704C246.833 10.4693 247.147 10.128 247.382 9.68C247.627 9.22133 247.75 8.656 247.75 7.984C247.75 7.30133 247.633 6.736 247.398 6.288C247.163 5.84 246.849 5.504 246.454 5.28C246.059 5.04533 245.633 4.928 245.174 4.928C244.726 4.928 244.299 5.04533 243.894 5.28C243.499 5.504 243.179 5.84 242.934 6.288C242.689 6.736 242.566 7.30133 242.566 7.984C242.566 8.656 242.689 9.22133 242.934 9.68C243.179 10.128 243.494 10.4693 243.878 10.704C244.273 10.928 244.694 11.04 245.142 11.04ZM253.866 12C253.386 12 252.97 11.9253 252.618 11.776C252.266 11.6267 251.994 11.376 251.802 11.024C251.62 10.6613 251.53 10.176 251.53 9.568V5.104H250.138V3.968H251.53L251.706 2.032H252.874V3.968H255.226V5.104H252.874V9.568C252.874 10.0693 252.975 10.4107 253.178 10.592C253.38 10.7627 253.738 10.848 254.25 10.848H255.114V12H253.866ZM260.281 12.192C259.534 12.192 258.868 12.016 258.281 11.664C257.694 11.312 257.23 10.8213 256.889 10.192C256.558 9.56267 256.393 8.82667 256.393 7.984C256.393 7.13067 256.558 6.39467 256.889 5.776C257.22 5.14667 257.678 4.656 258.265 4.304C258.862 3.952 259.545 3.776 260.313 3.776C261.102 3.776 261.774 3.952 262.329 4.304C262.884 4.656 263.305 5.11467 263.593 5.68C263.892 6.24533 264.041 6.86933 264.041 7.552C264.041 7.65867 264.041 7.77067 264.041 7.888C264.041 8.00533 264.036 8.13867 264.025 8.288H257.401V7.248H262.713C262.681 6.512 262.436 5.94133 261.977 5.536C261.529 5.12 260.964 4.912 260.281 4.912C259.833 4.912 259.412 5.01867 259.017 5.232C258.622 5.43467 258.302 5.73333 258.057 6.128C257.822 6.52267 257.705 7.01867 257.705 7.616V8.064C257.705 8.72533 257.828 9.28 258.073 9.728C258.318 10.1653 258.633 10.496 259.017 10.72C259.412 10.944 259.833 11.056 260.281 11.056C260.846 11.056 261.31 10.9333 261.673 10.688C262.046 10.432 262.318 10.0853 262.489 9.648H263.817C263.678 10.1387 263.449 10.576 263.129 10.96C262.809 11.3333 262.409 11.632 261.929 11.856C261.46 12.08 260.91 12.192 260.281 12.192ZM265.887 7.856V6.72H272.223V7.856H265.887ZM277.647 12C277.167 12 276.751 11.9253 276.399 11.776C276.047 11.6267 275.775 11.376 275.583 11.024C275.402 10.6613 275.311 10.176 275.311 9.568V5.104H273.919V3.968H275.311L275.487 2.032H276.655V3.968H279.007V5.104H276.655V9.568C276.655 10.0693 276.756 10.4107 276.959 10.592C277.162 10.7627 277.519 10.848 278.031 10.848H278.895V12H277.647ZM283.369 12.192C282.718 12.192 282.174 12.08 281.737 11.856C281.3 11.6213 280.974 11.3173 280.761 10.944C280.548 10.56 280.441 10.1493 280.441 9.712C280.441 9.168 280.58 8.70933 280.857 8.336C281.145 7.952 281.545 7.664 282.057 7.472C282.58 7.26933 283.188 7.168 283.881 7.168H286.025C286.025 6.66667 285.945 6.25067 285.785 5.92C285.636 5.58933 285.412 5.33867 285.113 5.168C284.814 4.99733 284.452 4.912 284.025 4.912C283.513 4.912 283.07 5.04 282.697 5.296C282.324 5.552 282.094 5.93067 282.009 6.432H280.633C280.697 5.856 280.889 5.376 281.209 4.992C281.54 4.59733 281.956 4.29867 282.457 4.096C282.958 3.88267 283.481 3.776 284.025 3.776C284.772 3.776 285.39 3.91467 285.881 4.192C286.372 4.45867 286.74 4.83733 286.985 5.328C287.241 5.808 287.369 6.37333 287.369 7.024V12H286.169L286.089 10.576C285.982 10.8 285.844 11.0133 285.673 11.216C285.513 11.408 285.321 11.5787 285.097 11.728C284.884 11.8667 284.633 11.9787 284.345 12.064C284.057 12.1493 283.732 12.192 283.369 12.192ZM283.577 11.056C283.95 11.056 284.286 10.9813 284.585 10.832C284.894 10.672 285.156 10.4587 285.369 10.192C285.582 9.92533 285.742 9.62667 285.849 9.296C285.966 8.95467 286.025 8.608 286.025 8.256V8.208H283.993C283.481 8.208 283.065 8.272 282.745 8.4C282.425 8.51733 282.196 8.688 282.057 8.912C281.918 9.12533 281.849 9.37067 281.849 9.648C281.849 9.936 281.913 10.1867 282.041 10.4C282.18 10.6027 282.377 10.7627 282.633 10.88C282.889 10.9973 283.204 11.056 283.577 11.056ZM294.408 12L290.552 7.6L294.056 3.968H295.704L291.688 8.08L291.704 7.12L296.12 12H294.408ZM289.432 12V0.48H290.776V12H289.432ZM297.639 12V3.968H298.983V12H297.639ZM298.311 2.24C298.044 2.24 297.82 2.15467 297.639 1.984C297.468 1.80267 297.383 1.57867 297.383 1.312C297.383 1.04533 297.468 0.832 297.639 0.672C297.82 0.501333 298.044 0.415999 298.311 0.415999C298.567 0.415999 298.785 0.501333 298.967 0.672C299.148 0.832 299.239 1.04533 299.239 1.312C299.239 1.57867 299.148 1.80267 298.967 1.984C298.785 2.15467 298.567 2.24 298.311 2.24ZM301.323 12V3.968H302.539L302.619 5.376C302.875 4.87467 303.237 4.48533 303.707 4.208C304.187 3.92 304.731 3.776 305.339 3.776C305.968 3.776 306.512 3.89867 306.971 4.144C307.429 4.38933 307.787 4.768 308.043 5.28C308.299 5.792 308.427 6.43733 308.427 7.216V12H307.083V7.36C307.083 6.54933 306.907 5.94133 306.555 5.536C306.203 5.13067 305.696 4.928 305.035 4.928C304.587 4.928 304.181 5.04 303.819 5.264C303.467 5.47733 303.184 5.792 302.971 6.208C302.768 6.624 302.667 7.13067 302.667 7.728V12H301.323ZM313.679 15.712C312.953 15.712 312.313 15.616 311.759 15.424C311.204 15.2427 310.772 14.96 310.463 14.576C310.153 14.192 309.999 13.7173 309.999 13.152C309.999 12.9067 310.047 12.6453 310.143 12.368C310.249 12.1013 310.425 11.8347 310.671 11.568C310.927 11.3013 311.284 11.0613 311.743 10.848L312.655 11.392C312.1 11.6267 311.737 11.8933 311.567 12.192C311.396 12.4907 311.311 12.768 311.311 13.024C311.311 13.376 311.412 13.6693 311.615 13.904C311.817 14.1387 312.095 14.3147 312.447 14.432C312.809 14.5493 313.22 14.608 313.679 14.608C314.137 14.608 314.532 14.5387 314.863 14.4C315.193 14.272 315.449 14.0907 315.631 13.856C315.812 13.632 315.903 13.36 315.903 13.04C315.903 12.6773 315.764 12.368 315.487 12.112C315.209 11.8667 314.687 11.7227 313.919 11.68C313.279 11.6373 312.745 11.5787 312.319 11.504C311.903 11.4293 311.556 11.344 311.279 11.248C311.001 11.1413 310.767 11.024 310.575 10.896C310.393 10.768 310.228 10.6347 310.079 10.496V10.128L311.631 8.576L312.799 8.992L311.199 10.448L311.407 9.888C311.524 9.97333 311.636 10.0533 311.743 10.128C311.849 10.192 311.993 10.2507 312.175 10.304C312.356 10.3573 312.607 10.4107 312.927 10.464C313.247 10.5067 313.679 10.5493 314.223 10.592C314.948 10.6453 315.529 10.7733 315.967 10.976C316.415 11.1787 316.735 11.4507 316.927 11.792C317.129 12.1333 317.231 12.5333 317.231 12.992C317.231 13.4507 317.103 13.8827 316.847 14.288C316.601 14.704 316.217 15.0453 315.695 15.312C315.172 15.5787 314.5 15.712 313.679 15.712ZM313.663 9.472C312.991 9.472 312.42 9.34933 311.951 9.104C311.481 8.848 311.124 8.50667 310.879 8.08C310.633 7.64267 310.511 7.15733 310.511 6.624C310.511 6.09067 310.633 5.61067 310.879 5.184C311.124 4.75733 311.481 4.416 311.951 4.16C312.42 3.904 312.991 3.776 313.663 3.776C314.345 3.776 314.921 3.904 315.391 4.16C315.86 4.416 316.217 4.75733 316.463 5.184C316.708 5.61067 316.831 6.09067 316.831 6.624C316.831 7.15733 316.708 7.64267 316.463 8.08C316.217 8.50667 315.86 8.848 315.391 9.104C314.921 9.34933 314.345 9.472 313.663 9.472ZM313.663 8.368C314.239 8.368 314.692 8.224 315.023 7.936C315.364 7.63733 315.535 7.2 315.535 6.624C315.535 6.06933 315.364 5.64267 315.023 5.344C314.692 5.04533 314.239 4.896 313.663 4.896C313.097 4.896 312.644 5.04533 312.303 5.344C311.961 5.64267 311.791 6.06933 311.791 6.624C311.791 7.2 311.961 7.63733 312.303 7.936C312.644 8.224 313.097 8.368 313.663 8.368ZM314.975 5.104L314.575 3.968H317.871V4.976L314.975 5.104ZM326.291 12.192C325.64 12.192 325.096 12.08 324.659 11.856C324.222 11.6213 323.896 11.3173 323.683 10.944C323.47 10.56 323.363 10.1493 323.363 9.712C323.363 9.168 323.502 8.70933 323.779 8.336C324.067 7.952 324.467 7.664 324.979 7.472C325.502 7.26933 326.11 7.168 326.803 7.168H328.947C328.947 6.66667 328.867 6.25067 328.707 5.92C328.558 5.58933 328.334 5.33867 328.035 5.168C327.736 4.99733 327.374 4.912 326.947 4.912C326.435 4.912 325.992 5.04 325.619 5.296C325.246 5.552 325.016 5.93067 324.931 6.432H323.555C323.619 5.856 323.811 5.376 324.131 4.992C324.462 4.59733 324.878 4.29867 325.379 4.096C325.88 3.88267 326.403 3.776 326.947 3.776C327.694 3.776 328.312 3.91467 328.803 4.192C329.294 4.45867 329.662 4.83733 329.907 5.328C330.163 5.808 330.291 6.37333 330.291 7.024V12H329.091L329.011 10.576C328.904 10.8 328.766 11.0133 328.595 11.216C328.435 11.408 328.243 11.5787 328.019 11.728C327.806 11.8667 327.555 11.9787 327.267 12.064C326.979 12.1493 326.654 12.192 326.291 12.192ZM326.499 11.056C326.872 11.056 327.208 10.9813 327.507 10.832C327.816 10.672 328.078 10.4587 328.291 10.192C328.504 9.92533 328.664 9.62667 328.771 9.296C328.888 8.95467 328.947 8.608 328.947 8.256V8.208H326.915C326.403 8.208 325.987 8.272 325.667 8.4C325.347 8.51733 325.118 8.688 324.979 8.912C324.84 9.12533 324.771 9.37067 324.771 9.648C324.771 9.936 324.835 10.1867 324.963 10.4C325.102 10.6027 325.299 10.7627 325.555 10.88C325.811 10.9973 326.126 11.056 326.499 11.056ZM332.354 12V3.968H333.57L333.65 5.376C333.906 4.87467 334.269 4.48533 334.738 4.208C335.218 3.92 335.762 3.776 336.37 3.776C336.999 3.776 337.543 3.89867 338.002 4.144C338.461 4.38933 338.818 4.768 339.074 5.28C339.33 5.792 339.458 6.43733 339.458 7.216V12H338.114V7.36C338.114 6.54933 337.938 5.94133 337.586 5.536C337.234 5.13067 336.727 4.928 336.066 4.928C335.618 4.928 335.213 5.04 334.85 5.264C334.498 5.47733 334.215 5.792 334.002 6.208C333.799 6.624 333.698 7.13067 333.698 7.728V12H332.354ZM345.11 12.192C344.331 12.192 343.643 12.0107 343.046 11.648C342.459 11.2747 342.001 10.7733 341.67 10.144C341.35 9.504 341.19 8.77867 341.19 7.968C341.19 7.15733 341.35 6.43733 341.67 5.808C342.001 5.17867 342.459 4.68267 343.046 4.32C343.643 3.95733 344.337 3.776 345.126 3.776C345.777 3.776 346.353 3.90933 346.854 4.176C347.355 4.44267 347.739 4.816 348.006 5.296V0.48H349.35V12H348.134L348.006 10.688C347.835 10.944 347.617 11.1893 347.35 11.424C347.094 11.648 346.779 11.8347 346.406 11.984C346.033 12.1227 345.601 12.192 345.11 12.192ZM345.254 11.024C345.787 11.024 346.257 10.9013 346.662 10.656C347.078 10.4 347.398 10.0427 347.622 9.584C347.846 9.12533 347.958 8.592 347.958 7.984C347.958 7.376 347.846 6.84267 347.622 6.384C347.398 5.92533 347.078 5.57333 346.662 5.328C346.257 5.072 345.787 4.944 345.254 4.944C344.742 4.944 344.278 5.072 343.862 5.328C343.457 5.57333 343.137 5.92533 342.902 6.384C342.678 6.84267 342.566 7.376 342.566 7.984C342.566 8.592 342.678 9.12533 342.902 9.584C343.137 10.0427 343.457 10.4 343.862 10.656C344.278 10.9013 344.742 11.024 345.254 11.024ZM358.975 12C358.495 12 358.079 11.9253 357.727 11.776C357.375 11.6267 357.103 11.376 356.911 11.024C356.73 10.6613 356.639 10.176 356.639 9.568V5.104H355.247V3.968H356.639L356.815 2.032H357.983V3.968H360.335V5.104H357.983V9.568C357.983 10.0693 358.084 10.4107 358.287 10.592C358.49 10.7627 358.847 10.848 359.359 10.848H360.223V12H358.975ZM362.057 12V3.968H363.273L363.385 5.504C363.566 5.14133 363.796 4.832 364.073 4.576C364.361 4.32 364.702 4.12267 365.097 3.984C365.492 3.84533 365.94 3.776 366.441 3.776V5.184H365.977C365.636 5.184 365.31 5.232 365.001 5.328C364.692 5.41333 364.414 5.55733 364.169 5.76C363.934 5.952 363.748 6.224 363.609 6.576C363.47 6.928 363.401 7.36 363.401 7.872V12H362.057ZM370.588 12.192C369.937 12.192 369.393 12.08 368.956 11.856C368.518 11.6213 368.193 11.3173 367.98 10.944C367.766 10.56 367.66 10.1493 367.66 9.712C367.66 9.168 367.798 8.70933 368.076 8.336C368.364 7.952 368.764 7.664 369.276 7.472C369.798 7.26933 370.406 7.168 371.1 7.168H373.244C373.244 6.66667 373.164 6.25067 373.004 5.92C372.854 5.58933 372.63 5.33867 372.332 5.168C372.033 4.99733 371.67 4.912 371.244 4.912C370.732 4.912 370.289 5.04 369.916 5.296C369.542 5.552 369.313 5.93067 369.228 6.432H367.852C367.916 5.856 368.108 5.376 368.428 4.992C368.758 4.59733 369.174 4.29867 369.676 4.096C370.177 3.88267 370.7 3.776 371.244 3.776C371.99 3.776 372.609 3.91467 373.1 4.192C373.59 4.45867 373.958 4.83733 374.204 5.328C374.46 5.808 374.588 6.37333 374.588 7.024V12H373.388L373.308 10.576C373.201 10.8 373.062 11.0133 372.892 11.216C372.732 11.408 372.54 11.5787 372.316 11.728C372.102 11.8667 371.852 11.9787 371.564 12.064C371.276 12.1493 370.95 12.192 370.588 12.192ZM370.796 11.056C371.169 11.056 371.505 10.9813 371.804 10.832C372.113 10.672 372.374 10.4587 372.588 10.192C372.801 9.92533 372.961 9.62667 373.068 9.296C373.185 8.95467 373.244 8.608 373.244 8.256V8.208H371.212C370.7 8.208 370.284 8.272 369.964 8.4C369.644 8.51733 369.414 8.688 369.276 8.912C369.137 9.12533 369.068 9.37067 369.068 9.648C369.068 9.936 369.132 10.1867 369.26 10.4C369.398 10.6027 369.596 10.7627 369.852 10.88C370.108 10.9973 370.422 11.056 370.796 11.056ZM376.651 12V3.968H377.867L377.947 5.376C378.203 4.87467 378.566 4.48533 379.035 4.208C379.515 3.92 380.059 3.776 380.667 3.776C381.296 3.776 381.84 3.89867 382.299 4.144C382.758 4.38933 383.115 4.768 383.371 5.28C383.627 5.792 383.755 6.43733 383.755 7.216V12H382.411V7.36C382.411 6.54933 382.235 5.94133 381.883 5.536C381.531 5.13067 381.024 4.928 380.363 4.928C379.915 4.928 379.51 5.04 379.147 5.264C378.795 5.47733 378.512 5.792 378.299 6.208C378.096 6.624 377.995 7.13067 377.995 7.728V12H376.651ZM388.863 12.192C388.212 12.192 387.636 12.0853 387.135 11.872C386.633 11.648 386.233 11.3333 385.935 10.928C385.647 10.5227 385.465 10.048 385.391 9.504H386.767C386.831 9.78133 386.948 10.0427 387.119 10.288C387.289 10.5227 387.519 10.7093 387.807 10.848C388.105 10.9867 388.463 11.056 388.879 11.056C389.263 11.056 389.577 11.0027 389.823 10.896C390.068 10.7787 390.249 10.624 390.367 10.432C390.484 10.24 390.543 10.032 390.543 9.808C390.543 9.488 390.463 9.24267 390.303 9.072C390.153 8.90133 389.929 8.768 389.631 8.672C389.332 8.56533 388.975 8.47467 388.559 8.4C388.207 8.336 387.86 8.25067 387.519 8.144C387.188 8.03733 386.889 7.89867 386.623 7.728C386.356 7.55733 386.143 7.344 385.983 7.088C385.823 6.82133 385.743 6.50667 385.743 6.144C385.743 5.68533 385.86 5.28 386.095 4.928C386.34 4.56533 386.676 4.28267 387.103 4.08C387.54 3.87733 388.057 3.776 388.655 3.776C389.508 3.776 390.201 3.984 390.735 4.4C391.279 4.816 391.593 5.41867 391.679 6.208H390.351C390.308 5.80267 390.137 5.488 389.839 5.264C389.54 5.02933 389.14 4.912 388.639 4.912C388.137 4.912 387.753 5.01333 387.487 5.216C387.231 5.41867 387.103 5.68533 387.103 6.016C387.103 6.22933 387.172 6.416 387.311 6.576C387.46 6.736 387.679 6.87467 387.967 6.992C388.255 7.09867 388.601 7.19467 389.007 7.28C389.529 7.376 390.009 7.504 390.447 7.664C390.884 7.824 391.236 8.05867 391.503 8.368C391.78 8.67733 391.919 9.12 391.919 9.696C391.929 10.1973 391.807 10.6347 391.551 11.008C391.305 11.3813 390.953 11.6747 390.495 11.888C390.036 12.0907 389.492 12.192 388.863 12.192ZM394.318 12V2.688C394.318 2.176 394.403 1.76 394.574 1.44C394.745 1.10933 394.995 0.869333 395.326 0.719999C395.667 0.559999 396.083 0.48 396.574 0.48H397.454V1.632H396.782C396.377 1.632 396.089 1.712 395.918 1.872C395.747 2.032 395.662 2.31467 395.662 2.72V12H394.318ZM393.086 5.104V3.968H397.662V5.104H393.086ZM402.579 12.192C401.833 12.192 401.161 12.0213 400.563 11.68C399.966 11.328 399.491 10.8373 399.139 10.208C398.798 9.57867 398.627 8.83733 398.627 7.984C398.627 7.13067 398.803 6.38933 399.155 5.76C399.507 5.13067 399.982 4.64533 400.579 4.304C401.187 3.952 401.865 3.776 402.611 3.776C403.369 3.776 404.046 3.952 404.643 4.304C405.241 4.64533 405.71 5.13067 406.051 5.76C406.393 6.38933 406.563 7.13067 406.563 7.984C406.563 8.83733 406.387 9.57867 406.035 10.208C405.694 10.8373 405.219 11.328 404.611 11.68C404.014 12.0213 403.337 12.192 402.579 12.192ZM402.579 11.04C403.049 11.04 403.481 10.928 403.875 10.704C404.27 10.4693 404.585 10.128 404.819 9.68C405.065 9.22133 405.187 8.656 405.187 7.984C405.187 7.30133 405.07 6.736 404.835 6.288C404.601 5.84 404.286 5.504 403.891 5.28C403.497 5.04533 403.07 4.928 402.611 4.928C402.163 4.928 401.737 5.04533 401.331 5.28C400.937 5.504 400.617 5.84 400.371 6.288C400.126 6.736 400.003 7.30133 400.003 7.984C400.003 8.656 400.126 9.22133 400.371 9.68C400.617 10.128 400.931 10.4693 401.315 10.704C401.71 10.928 402.131 11.04 402.579 11.04ZM408.448 12V3.968H409.664L409.776 5.504C409.957 5.14133 410.186 4.832 410.464 4.576C410.752 4.32 411.093 4.12267 411.488 3.984C411.882 3.84533 412.33 3.776 412.832 3.776V5.184H412.368C412.026 5.184 411.701 5.232 411.392 5.328C411.082 5.41333 410.805 5.55733 410.56 5.76C410.325 5.952 410.138 6.224 410 6.576C409.861 6.928 409.792 7.36 409.792 7.872V12H408.448ZM414.338 12V3.968H415.554L415.65 5.12C415.906 4.69333 416.248 4.36267 416.674 4.128C417.101 3.89333 417.576 3.776 418.098 3.776C418.514 3.776 418.893 3.83467 419.234 3.952C419.576 4.05867 419.874 4.22933 420.13 4.464C420.386 4.688 420.594 4.976 420.754 5.328C421.032 4.83733 421.41 4.45867 421.89 4.192C422.381 3.91467 422.904 3.776 423.458 3.776C424.077 3.776 424.616 3.904 425.074 4.16C425.544 4.40533 425.906 4.784 426.162 5.296C426.418 5.79733 426.546 6.43733 426.546 7.216V12H425.218V7.36C425.218 6.54933 425.053 5.94133 424.722 5.536C424.392 5.13067 423.922 4.928 423.314 4.928C422.898 4.928 422.52 5.04 422.178 5.264C421.848 5.47733 421.586 5.792 421.394 6.208C421.213 6.624 421.122 7.136 421.122 7.744V12H419.778V7.36C419.778 6.54933 419.613 5.94133 419.282 5.536C418.952 5.13067 418.482 4.928 417.874 4.928C417.469 4.928 417.096 5.04 416.754 5.264C416.424 5.47733 416.162 5.792 415.97 6.208C415.778 6.624 415.682 7.136 415.682 7.744V12H414.338ZM436.022 12C435.542 12 435.126 11.9253 434.774 11.776C434.422 11.6267 434.15 11.376 433.958 11.024C433.777 10.6613 433.686 10.176 433.686 9.568V5.104H432.294V3.968H433.686L433.862 2.032H435.03V3.968H437.382V5.104H435.03V9.568C435.03 10.0693 435.131 10.4107 435.334 10.592C435.537 10.7627 435.894 10.848 436.406 10.848H437.27V12H436.022ZM439.104 12V0.48H440.448V5.328C440.725 4.83733 441.104 4.45867 441.584 4.192C442.064 3.91467 442.597 3.776 443.184 3.776C443.803 3.776 444.336 3.904 444.784 4.16C445.243 4.40533 445.595 4.784 445.84 5.296C446.096 5.808 446.224 6.45333 446.224 7.232V12H444.896V7.376C444.896 6.56533 444.725 5.95733 444.384 5.552C444.043 5.136 443.547 4.928 442.896 4.928C442.437 4.928 442.021 5.04 441.648 5.264C441.285 5.47733 440.992 5.79733 440.768 6.224C440.555 6.64 440.448 7.152 440.448 7.76V12H439.104ZM451.844 12.192C451.097 12.192 450.43 12.016 449.844 11.664C449.257 11.312 448.793 10.8213 448.452 10.192C448.121 9.56267 447.956 8.82667 447.956 7.984C447.956 7.13067 448.121 6.39467 448.452 5.776C448.782 5.14667 449.241 4.656 449.828 4.304C450.425 3.952 451.108 3.776 451.876 3.776C452.665 3.776 453.337 3.952 453.892 4.304C454.446 4.656 454.868 5.11467 455.156 5.68C455.454 6.24533 455.604 6.86933 455.604 7.552C455.604 7.65867 455.604 7.77067 455.604 7.888C455.604 8.00533 455.598 8.13867 455.588 8.288H448.964V7.248H454.276C454.244 6.512 453.998 5.94133 453.54 5.536C453.092 5.12 452.526 4.912 451.844 4.912C451.396 4.912 450.974 5.01867 450.58 5.232C450.185 5.43467 449.865 5.73333 449.62 6.128C449.385 6.52267 449.268 7.01867 449.268 7.616V8.064C449.268 8.72533 449.39 9.28 449.636 9.728C449.881 10.1653 450.196 10.496 450.58 10.72C450.974 10.944 451.396 11.056 451.844 11.056C452.409 11.056 452.873 10.9333 453.236 10.688C453.609 10.432 453.881 10.0853 454.052 9.648H455.38C455.241 10.1387 455.012 10.576 454.692 10.96C454.372 11.3333 453.972 11.632 453.492 11.856C453.022 12.08 452.473 12.192 451.844 12.192ZM463.267 12L460.915 3.968H462.259L464.099 10.768H463.827L465.843 3.968H467.363L469.395 10.752L469.123 10.768L470.963 3.968H472.323L469.971 12H468.595L466.483 4.896H466.755L464.643 12H463.267ZM476.166 12.192C475.515 12.192 474.971 12.08 474.534 11.856C474.097 11.6213 473.771 11.3173 473.558 10.944C473.345 10.56 473.238 10.1493 473.238 9.712C473.238 9.168 473.377 8.70933 473.654 8.336C473.942 7.952 474.342 7.664 474.854 7.472C475.377 7.26933 475.985 7.168 476.678 7.168H478.822C478.822 6.66667 478.742 6.25067 478.582 5.92C478.433 5.58933 478.209 5.33867 477.91 5.168C477.611 4.99733 477.249 4.912 476.822 4.912C476.31 4.912 475.867 5.04 475.494 5.296C475.121 5.552 474.891 5.93067 474.806 6.432H473.43C473.494 5.856 473.686 5.376 474.006 4.992C474.337 4.59733 474.753 4.29867 475.254 4.096C475.755 3.88267 476.278 3.776 476.822 3.776C477.569 3.776 478.187 3.91467 478.678 4.192C479.169 4.45867 479.537 4.83733 479.782 5.328C480.038 5.808 480.166 6.37333 480.166 7.024V12H478.966L478.886 10.576C478.779 10.8 478.641 11.0133 478.47 11.216C478.31 11.408 478.118 11.5787 477.894 11.728C477.681 11.8667 477.43 11.9787 477.142 12.064C476.854 12.1493 476.529 12.192 476.166 12.192ZM476.374 11.056C476.747 11.056 477.083 10.9813 477.382 10.832C477.691 10.672 477.953 10.4587 478.166 10.192C478.379 9.92533 478.539 9.62667 478.646 9.296C478.763 8.95467 478.822 8.608 478.822 8.256V8.208H476.79C476.278 8.208 475.862 8.272 475.542 8.4C475.222 8.51733 474.993 8.688 474.854 8.912C474.715 9.12533 474.646 9.37067 474.646 9.648C474.646 9.936 474.71 10.1867 474.838 10.4C474.977 10.6027 475.174 10.7627 475.43 10.88C475.686 10.9973 476.001 11.056 476.374 11.056ZM482.875 15.52L484.843 11.104H484.379L481.227 3.968H482.683L485.307 10.096L488.075 3.968H489.467L484.283 15.52H482.875ZM496.015 15.52L497.983 11.104H497.519L494.367 3.968H495.823L498.447 10.096L501.215 3.968H502.607L497.423 15.52H496.015ZM506.892 12.192C506.145 12.192 505.473 12.0213 504.876 11.68C504.279 11.328 503.804 10.8373 503.452 10.208C503.111 9.57867 502.94 8.83733 502.94 7.984C502.94 7.13067 503.116 6.38933 503.468 5.76C503.82 5.13067 504.295 4.64533 504.892 4.304C505.5 3.952 506.177 3.776 506.924 3.776C507.681 3.776 508.359 3.952 508.956 4.304C509.553 4.64533 510.023 5.13067 510.364 5.76C510.705 6.38933 510.876 7.13067 510.876 7.984C510.876 8.83733 510.7 9.57867 510.348 10.208C510.007 10.8373 509.532 11.328 508.924 11.68C508.327 12.0213 507.649 12.192 506.892 12.192ZM506.892 11.04C507.361 11.04 507.793 10.928 508.188 10.704C508.583 10.4693 508.897 10.128 509.132 9.68C509.377 9.22133 509.5 8.656 509.5 7.984C509.5 7.30133 509.383 6.736 509.148 6.288C508.913 5.84 508.599 5.504 508.204 5.28C507.809 5.04533 507.383 4.928 506.924 4.928C506.476 4.928 506.049 5.04533 505.644 5.28C505.249 5.504 504.929 5.84 504.684 6.288C504.439 6.736 504.316 7.30133 504.316 7.984C504.316 8.656 504.439 9.22133 504.684 9.68C504.929 10.128 505.244 10.4693 505.628 10.704C506.023 10.928 506.444 11.04 506.892 11.04ZM515.688 12.192C515.07 12.192 514.526 12.0693 514.056 11.824C513.598 11.5787 513.24 11.2 512.984 10.688C512.739 10.176 512.616 9.53067 512.616 8.752V3.968H513.96V8.608C513.96 9.41867 514.136 10.0267 514.488 10.432C514.84 10.8373 515.342 11.04 515.992 11.04C516.44 11.04 516.846 10.9333 517.208 10.72C517.571 10.496 517.854 10.176 518.056 9.76C518.27 9.344 518.376 8.83733 518.376 8.24V3.968H519.72V12H518.504L518.424 10.592C518.168 11.0933 517.8 11.488 517.32 11.776C516.84 12.0533 516.296 12.192 515.688 12.192ZM527.814 12L525.462 3.968H526.806L528.646 10.768H528.374L530.39 3.968H531.91L533.942 10.752L533.67 10.768L535.51 3.968H536.87L534.518 12H533.142L531.03 4.896H531.302L529.19 12H527.814ZM541.673 12.192C540.926 12.192 540.254 12.0213 539.657 11.68C539.06 11.328 538.585 10.8373 538.233 10.208C537.892 9.57867 537.721 8.83733 537.721 7.984C537.721 7.13067 537.897 6.38933 538.249 5.76C538.601 5.13067 539.076 4.64533 539.673 4.304C540.281 3.952 540.958 3.776 541.705 3.776C542.462 3.776 543.14 3.952 543.737 4.304C544.334 4.64533 544.804 5.13067 545.145 5.76C545.486 6.38933 545.657 7.13067 545.657 7.984C545.657 8.83733 545.481 9.57867 545.129 10.208C544.788 10.8373 544.313 11.328 543.705 11.68C543.108 12.0213 542.43 12.192 541.673 12.192ZM541.673 11.04C542.142 11.04 542.574 10.928 542.969 10.704C543.364 10.4693 543.678 10.128 543.913 9.68C544.158 9.22133 544.281 8.656 544.281 7.984C544.281 7.30133 544.164 6.736 543.929 6.288C543.694 5.84 543.38 5.504 542.985 5.28C542.59 5.04533 542.164 4.928 541.705 4.928C541.257 4.928 540.83 5.04533 540.425 5.28C540.03 5.504 539.71 5.84 539.465 6.288C539.22 6.736 539.097 7.30133 539.097 7.984C539.097 8.656 539.22 9.22133 539.465 9.68C539.71 10.128 540.025 10.4693 540.409 10.704C540.804 10.928 541.225 11.04 541.673 11.04ZM547.542 12V3.968H548.758L548.87 5.504C549.051 5.14133 549.28 4.832 549.558 4.576C549.846 4.32 550.187 4.12267 550.582 3.984C550.976 3.84533 551.424 3.776 551.926 3.776V5.184H551.462C551.12 5.184 550.795 5.232 550.486 5.328C550.176 5.41333 549.899 5.55733 549.654 5.76C549.419 5.952 549.232 6.224 549.094 6.576C548.955 6.928 548.886 7.36 548.886 7.872V12H547.542ZM558.408 12L554.552 7.6L558.056 3.968H559.704L555.688 8.08L555.704 7.12L560.12 12H558.408ZM553.432 12V0.48H554.776V12H553.432ZM568.913 12C568.433 12 568.017 11.9253 567.665 11.776C567.313 11.6267 567.041 11.376 566.849 11.024C566.667 10.6613 566.577 10.176 566.577 9.568V5.104H565.185V3.968H566.577L566.753 2.032H567.921V3.968H570.273V5.104H567.921V9.568C567.921 10.0693 568.022 10.4107 568.225 10.592C568.427 10.7627 568.785 10.848 569.297 10.848H570.161V12H568.913ZM575.392 12.192C574.645 12.192 573.973 12.0213 573.376 11.68C572.779 11.328 572.304 10.8373 571.952 10.208C571.611 9.57867 571.44 8.83733 571.44 7.984C571.44 7.13067 571.616 6.38933 571.968 5.76C572.32 5.13067 572.795 4.64533 573.392 4.304C574 3.952 574.677 3.776 575.424 3.776C576.181 3.776 576.859 3.952 577.456 4.304C578.053 4.64533 578.523 5.13067 578.864 5.76C579.205 6.38933 579.376 7.13067 579.376 7.984C579.376 8.83733 579.2 9.57867 578.848 10.208C578.507 10.8373 578.032 11.328 577.424 11.68C576.827 12.0213 576.149 12.192 575.392 12.192ZM575.392 11.04C575.861 11.04 576.293 10.928 576.688 10.704C577.083 10.4693 577.397 10.128 577.632 9.68C577.877 9.22133 578 8.656 578 7.984C578 7.30133 577.883 6.736 577.648 6.288C577.413 5.84 577.099 5.504 576.704 5.28C576.309 5.04533 575.883 4.928 575.424 4.928C574.976 4.928 574.549 5.04533 574.144 5.28C573.749 5.504 573.429 5.84 573.184 6.288C572.939 6.736 572.816 7.30133 572.816 7.984C572.816 8.656 572.939 9.22133 573.184 9.68C573.429 10.128 573.744 10.4693 574.128 10.704C574.523 10.928 574.944 11.04 575.392 11.04ZM584.844 12.192C584.066 12.192 583.378 12.0107 582.78 11.648C582.194 11.2747 581.735 10.7733 581.404 10.144C581.084 9.504 580.924 8.77867 580.924 7.968C580.924 7.15733 581.084 6.43733 581.404 5.808C581.735 5.17867 582.194 4.68267 582.78 4.32C583.378 3.95733 584.071 3.776 584.86 3.776C585.511 3.776 586.087 3.90933 586.588 4.176C587.09 4.44267 587.474 4.816 587.74 5.296V0.48H589.084V12H587.868L587.74 10.688C587.57 10.944 587.351 11.1893 587.084 11.424C586.828 11.648 586.514 11.8347 586.14 11.984C585.767 12.1227 585.335 12.192 584.844 12.192ZM584.988 11.024C585.522 11.024 585.991 10.9013 586.396 10.656C586.812 10.4 587.132 10.0427 587.356 9.584C587.58 9.12533 587.692 8.592 587.692 7.984C587.692 7.376 587.58 6.84267 587.356 6.384C587.132 5.92533 586.812 5.57333 586.396 5.328C585.991 5.072 585.522 4.944 584.988 4.944C584.476 4.944 584.012 5.072 583.596 5.328C583.191 5.57333 582.871 5.92533 582.636 6.384C582.412 6.84267 582.3 7.376 582.3 7.984C582.3 8.592 582.412 9.12533 582.636 9.584C582.871 10.0427 583.191 10.4 583.596 10.656C584.012 10.9013 584.476 11.024 584.988 11.024ZM593.932 12.192C593.281 12.192 592.737 12.08 592.299 11.856C591.862 11.6213 591.537 11.3173 591.324 10.944C591.11 10.56 591.004 10.1493 591.004 9.712C591.004 9.168 591.142 8.70933 591.42 8.336C591.708 7.952 592.108 7.664 592.62 7.472C593.142 7.26933 593.75 7.168 594.444 7.168H596.588C596.588 6.66667 596.508 6.25067 596.348 5.92C596.198 5.58933 595.974 5.33867 595.676 5.168C595.377 4.99733 595.014 4.912 594.588 4.912C594.076 4.912 593.633 5.04 593.26 5.296C592.886 5.552 592.657 5.93067 592.572 6.432H591.196C591.26 5.856 591.452 5.376 591.772 4.992C592.102 4.59733 592.518 4.29867 593.02 4.096C593.521 3.88267 594.044 3.776 594.588 3.776C595.334 3.776 595.953 3.91467 596.444 4.192C596.934 4.45867 597.302 4.83733 597.548 5.328C597.804 5.808 597.932 6.37333 597.932 7.024V12H596.732L596.652 10.576C596.545 10.8 596.406 11.0133 596.236 11.216C596.076 11.408 595.884 11.5787 595.66 11.728C595.446 11.8667 595.196 11.9787 594.908 12.064C594.62 12.1493 594.294 12.192 593.932 12.192ZM594.14 11.056C594.513 11.056 594.849 10.9813 595.148 10.832C595.457 10.672 595.718 10.4587 595.932 10.192C596.145 9.92533 596.305 9.62667 596.412 9.296C596.529 8.95467 596.588 8.608 596.588 8.256V8.208H594.556C594.044 8.208 593.628 8.272 593.308 8.4C592.988 8.51733 592.758 8.688 592.62 8.912C592.481 9.12533 592.412 9.37067 592.412 9.648C592.412 9.936 592.476 10.1867 592.604 10.4C592.742 10.6027 592.94 10.7627 593.196 10.88C593.452 10.9973 593.766 11.056 594.14 11.056ZM600.64 15.52L602.608 11.104H602.144L598.992 3.968H600.448L603.072 10.096L605.84 3.968H607.232L602.048 15.52H600.64ZM607.99 12.08C607.724 12.08 607.5 11.9947 607.318 11.824C607.148 11.6427 607.062 11.424 607.062 11.168C607.062 10.912 607.148 10.6987 607.318 10.528C607.5 10.3467 607.724 10.256 607.99 10.256C608.257 10.256 608.476 10.3467 608.646 10.528C608.817 10.6987 608.902 10.912 608.902 11.168C608.902 11.424 608.817 11.6427 608.646 11.824C608.476 11.9947 608.257 12.08 607.99 12.08Z" fill="#BABABA"/>
</svg>
