<svg width="267" height="65" viewBox="0 0 267 65" fill="none" xmlns="http://www.w3.org/2000/svg">
<rect x="0.591003" y="0.27002" width="266" height="64" rx="8" fill="url(#paint0_linear_4111_632)"/>
<path d="M46.2819 38.486C45.3699 38.486 44.5539 38.33 43.8339 38.018C43.1259 37.706 42.5679 37.25 42.1599 36.65C41.7519 36.05 41.5359 35.324 41.5119 34.472H44.0859C44.0979 34.844 44.1939 35.18 44.3739 35.48C44.5539 35.78 44.8059 36.02 45.1299 36.2C45.4539 36.368 45.8379 36.452 46.2819 36.452C46.6539 36.452 46.9779 36.392 47.2539 36.272C47.5419 36.14 47.7639 35.96 47.9199 35.732C48.0879 35.504 48.1719 35.234 48.1719 34.922C48.1719 34.562 48.0819 34.262 47.9019 34.022C47.7219 33.77 47.4759 33.56 47.1639 33.392C46.8519 33.224 46.4979 33.074 46.1019 32.942C45.7059 32.798 45.2859 32.654 44.8419 32.51C43.8459 32.186 43.0899 31.754 42.5739 31.214C42.0579 30.674 41.7999 29.96 41.7999 29.072C41.7999 28.316 41.9799 27.668 42.3399 27.128C42.6999 26.588 43.2039 26.174 43.8519 25.886C44.4999 25.598 45.2379 25.454 46.0659 25.454C46.9179 25.454 47.6679 25.604 48.3159 25.904C48.9639 26.192 49.4739 26.612 49.8459 27.164C50.2179 27.716 50.4159 28.364 50.4399 29.108H47.8299C47.8179 28.832 47.7399 28.574 47.5959 28.334C47.4519 28.082 47.2479 27.884 46.9839 27.74C46.7199 27.584 46.4019 27.506 46.0299 27.506C45.7179 27.494 45.4359 27.542 45.1839 27.65C44.9319 27.758 44.7279 27.92 44.5719 28.136C44.4279 28.34 44.3559 28.598 44.3559 28.91C44.3559 29.21 44.4279 29.462 44.5719 29.666C44.7159 29.87 44.9199 30.05 45.1839 30.206C45.4599 30.35 45.7719 30.488 46.1199 30.62C46.4799 30.74 46.8699 30.866 47.2899 30.998C47.9259 31.214 48.5019 31.472 49.0179 31.772C49.5459 32.06 49.9659 32.438 50.2779 32.906C50.5899 33.374 50.7459 33.992 50.7459 34.76C50.7459 35.42 50.5719 36.032 50.2239 36.596C49.8879 37.16 49.3899 37.616 48.7299 37.964C48.0699 38.312 47.2539 38.486 46.2819 38.486ZM52.79 38.27V29.252H55.22V38.27H52.79ZM54.014 27.992C53.57 27.992 53.21 27.866 52.934 27.614C52.658 27.35 52.52 27.02 52.52 26.624C52.52 26.228 52.658 25.904 52.934 25.652C53.21 25.388 53.57 25.256 54.014 25.256C54.458 25.256 54.818 25.388 55.094 25.652C55.382 25.904 55.526 26.228 55.526 26.624C55.526 27.02 55.382 27.35 55.094 27.614C54.818 27.866 54.458 27.992 54.014 27.992ZM61.5459 42.446C60.6819 42.446 59.9259 42.338 59.2779 42.122C58.6419 41.918 58.1439 41.6 57.7839 41.168C57.4359 40.748 57.2619 40.226 57.2619 39.602C57.2619 39.182 57.3699 38.786 57.5859 38.414C57.8019 38.042 58.1199 37.706 58.5399 37.406C58.9599 37.094 59.4759 36.83 60.0879 36.614L61.0059 37.82C60.4539 38 60.0579 38.222 59.8179 38.486C59.5779 38.762 59.4579 39.05 59.4579 39.35C59.4579 39.626 59.5479 39.86 59.7279 40.052C59.9079 40.244 60.1539 40.382 60.4659 40.466C60.7899 40.562 61.1499 40.61 61.5459 40.61C61.9179 40.61 62.2419 40.562 62.5179 40.466C62.8059 40.37 63.0279 40.226 63.1839 40.034C63.3519 39.854 63.4359 39.638 63.4359 39.386C63.4359 39.062 63.3219 38.798 63.0939 38.594C62.8659 38.402 62.4159 38.282 61.7439 38.234C61.1319 38.186 60.5859 38.12 60.1059 38.036C59.6379 37.94 59.2239 37.832 58.8639 37.712C58.5159 37.58 58.2159 37.436 57.9639 37.28C57.7119 37.124 57.5079 36.968 57.3519 36.812V36.398L59.2779 34.328L61.0059 34.868L58.7559 37.118L59.4579 35.93C59.5779 36.002 59.6979 36.074 59.8179 36.146C59.9499 36.206 60.1119 36.266 60.3039 36.326C60.4959 36.374 60.7419 36.422 61.0419 36.47C61.3539 36.506 61.7499 36.548 62.2299 36.596C63.0219 36.668 63.6699 36.818 64.1739 37.046C64.6779 37.262 65.0499 37.562 65.2899 37.946C65.5299 38.33 65.6499 38.792 65.6499 39.332C65.6499 39.872 65.4999 40.376 65.1999 40.844C64.9119 41.324 64.4619 41.708 63.8499 41.996C63.2499 42.296 62.4819 42.446 61.5459 42.446ZM61.5639 35.606C60.8079 35.606 60.1539 35.462 59.6019 35.174C59.0619 34.874 58.6419 34.478 58.3419 33.986C58.0539 33.494 57.9099 32.942 57.9099 32.33C57.9099 31.718 58.0539 31.166 58.3419 30.674C58.6419 30.182 59.0619 29.786 59.6019 29.486C60.1539 29.186 60.8079 29.036 61.5639 29.036C62.3199 29.036 62.9679 29.186 63.5079 29.486C64.0599 29.786 64.4799 30.182 64.7679 30.674C65.0559 31.166 65.1999 31.718 65.1999 32.33C65.1999 32.942 65.0559 33.494 64.7679 33.986C64.4799 34.478 64.0599 34.874 63.5079 35.174C62.9679 35.462 62.3199 35.606 61.5639 35.606ZM61.5639 33.752C62.0199 33.752 62.3919 33.632 62.6799 33.392C62.9679 33.152 63.1119 32.798 63.1119 32.33C63.1119 31.874 62.9679 31.526 62.6799 31.286C62.3919 31.046 62.0199 30.926 61.5639 30.926C61.0959 30.926 60.7119 31.046 60.4119 31.286C60.1239 31.526 59.9799 31.874 59.9799 32.33C59.9799 32.798 60.1239 33.152 60.4119 33.392C60.7119 33.632 61.0959 33.752 61.5639 33.752ZM63.0399 30.98L62.6439 29.252H66.3879V30.692L63.0399 30.98ZM68.3806 38.27V29.252H70.5046L70.6846 30.746C70.9726 30.23 71.3686 29.816 71.8726 29.504C72.3886 29.192 73.0066 29.036 73.7266 29.036C74.4706 29.036 75.1006 29.198 75.6166 29.522C76.1326 29.834 76.5226 30.296 76.7866 30.908C77.0626 31.508 77.2006 32.246 77.2006 33.122V38.27H74.7886V33.356C74.7886 32.624 74.6326 32.066 74.3206 31.682C74.0206 31.286 73.5526 31.088 72.9166 31.088C72.5086 31.088 72.1426 31.184 71.8186 31.376C71.5066 31.568 71.2606 31.844 71.0806 32.204C70.9006 32.564 70.8106 33.002 70.8106 33.518V38.27H68.3806ZM88.6231 38.486C87.6991 38.486 86.8591 38.3 86.1031 37.928C85.3471 37.556 84.7471 36.998 84.3031 36.254C83.8591 35.51 83.6371 34.562 83.6371 33.41V25.67H86.0671V33.428C86.0671 34.052 86.1691 34.58 86.3731 35.012C86.5771 35.432 86.8711 35.744 87.2551 35.948C87.6511 36.152 88.1191 36.254 88.6591 36.254C89.2111 36.254 89.6791 36.152 90.0631 35.948C90.4591 35.744 90.7591 35.432 90.9631 35.012C91.1791 34.58 91.2871 34.052 91.2871 33.428V25.67H93.7171V33.41C93.7171 34.562 93.4831 35.51 93.0151 36.254C92.5591 36.998 91.9471 37.556 91.1791 37.928C90.4111 38.3 89.5591 38.486 88.6231 38.486ZM96.0134 42.23V29.252H98.1734L98.4254 30.512C98.6174 30.248 98.8454 30.008 99.1094 29.792C99.3734 29.564 99.6914 29.384 100.063 29.252C100.435 29.108 100.867 29.036 101.359 29.036C102.211 29.036 102.961 29.246 103.609 29.666C104.257 30.074 104.767 30.638 105.139 31.358C105.523 32.066 105.715 32.876 105.715 33.788C105.715 34.688 105.523 35.492 105.139 36.2C104.755 36.908 104.239 37.466 103.591 37.874C102.943 38.282 102.199 38.486 101.359 38.486C100.699 38.486 100.123 38.366 99.6314 38.126C99.1394 37.874 98.7434 37.532 98.4434 37.1V42.23H96.0134ZM100.801 36.362C101.281 36.362 101.701 36.254 102.061 36.038C102.433 35.822 102.721 35.522 102.925 35.138C103.141 34.742 103.249 34.286 103.249 33.77C103.249 33.266 103.141 32.816 102.925 32.42C102.721 32.024 102.433 31.718 102.061 31.502C101.701 31.274 101.281 31.16 100.801 31.16C100.333 31.16 99.9134 31.274 99.5414 31.502C99.1694 31.718 98.8814 32.024 98.6774 32.42C98.4734 32.804 98.3714 33.254 98.3714 33.77C98.3714 34.274 98.4734 34.724 98.6774 35.12C98.8814 35.516 99.1694 35.822 99.5414 36.038C99.9134 36.254 100.333 36.362 100.801 36.362ZM112.441 38.27V28.388C112.441 27.632 112.567 27.032 112.819 26.588C113.083 26.144 113.449 25.82 113.917 25.616C114.385 25.412 114.937 25.31 115.573 25.31H116.635V27.38H115.951C115.567 27.38 115.291 27.458 115.123 27.614C114.955 27.758 114.871 28.016 114.871 28.388V38.27H112.441ZM111.217 31.286V29.252H116.797V31.286H111.217ZM122.604 38.486C121.74 38.486 120.96 38.288 120.264 37.892C119.58 37.484 119.034 36.926 118.626 36.218C118.23 35.51 118.032 34.694 118.032 33.77C118.032 32.834 118.23 32.012 118.626 31.304C119.034 30.596 119.586 30.044 120.282 29.648C120.978 29.24 121.758 29.036 122.622 29.036C123.486 29.036 124.266 29.24 124.962 29.648C125.658 30.044 126.204 30.596 126.6 31.304C127.008 32.012 127.212 32.834 127.212 33.77C127.212 34.694 127.008 35.51 126.6 36.218C126.192 36.926 125.64 37.484 124.944 37.892C124.26 38.288 123.48 38.486 122.604 38.486ZM122.604 36.38C123 36.38 123.354 36.284 123.666 36.092C123.99 35.9 124.248 35.612 124.44 35.228C124.632 34.832 124.728 34.346 124.728 33.77C124.728 33.182 124.632 32.696 124.44 32.312C124.26 31.928 124.008 31.64 123.684 31.448C123.372 31.244 123.018 31.142 122.622 31.142C122.238 31.142 121.884 31.244 121.56 31.448C121.236 31.64 120.978 31.928 120.786 32.312C120.594 32.696 120.498 33.182 120.498 33.77C120.498 34.346 120.594 34.832 120.786 35.228C120.978 35.612 121.23 35.9 121.542 36.092C121.866 36.284 122.22 36.38 122.604 36.38ZM129.289 38.27V29.252H131.449L131.665 30.926C131.893 30.542 132.163 30.212 132.475 29.936C132.799 29.648 133.171 29.426 133.591 29.27C134.023 29.114 134.491 29.036 134.995 29.036V31.61H134.239C133.867 31.61 133.525 31.652 133.213 31.736C132.913 31.82 132.649 31.958 132.421 32.15C132.193 32.342 132.019 32.6 131.899 32.924C131.779 33.248 131.719 33.656 131.719 34.148V38.27H129.289ZM140.874 38.27V25.67H149.082V27.632H143.304V30.998H147.948V32.906H143.304V38.27H140.874ZM150.822 38.27V29.252H152.982L153.198 30.926C153.426 30.542 153.696 30.212 154.008 29.936C154.332 29.648 154.704 29.426 155.124 29.27C155.556 29.114 156.024 29.036 156.528 29.036V31.61H155.772C155.4 31.61 155.058 31.652 154.746 31.736C154.446 31.82 154.182 31.958 153.954 32.15C153.726 32.342 153.552 32.6 153.432 32.924C153.312 33.248 153.252 33.656 153.252 34.148V38.27H150.822ZM162.35 38.486C161.438 38.486 160.628 38.294 159.92 37.91C159.224 37.514 158.678 36.968 158.282 36.272C157.898 35.576 157.706 34.766 157.706 33.842C157.706 32.906 157.898 32.078 158.282 31.358C158.666 30.638 159.206 30.074 159.902 29.666C160.61 29.246 161.426 29.036 162.35 29.036C163.25 29.036 164.036 29.234 164.708 29.63C165.38 30.014 165.902 30.542 166.274 31.214C166.658 31.886 166.85 32.648 166.85 33.5C166.85 33.62 166.85 33.752 166.85 33.896C166.85 34.04 166.838 34.196 166.814 34.364H159.434V32.87H164.384C164.36 32.306 164.156 31.856 163.772 31.52C163.4 31.184 162.932 31.016 162.368 31.016C161.948 31.016 161.564 31.112 161.216 31.304C160.868 31.484 160.592 31.766 160.388 32.15C160.196 32.522 160.1 32.996 160.1 33.572V34.094C160.1 34.586 160.19 35.012 160.37 35.372C160.562 35.732 160.826 36.014 161.162 36.218C161.51 36.41 161.9 36.506 162.332 36.506C162.776 36.506 163.142 36.41 163.43 36.218C163.73 36.026 163.958 35.774 164.114 35.462H166.598C166.43 36.026 166.142 36.536 165.734 36.992C165.338 37.448 164.852 37.814 164.276 38.09C163.712 38.354 163.07 38.486 162.35 38.486ZM173.178 38.486C172.266 38.486 171.456 38.294 170.748 37.91C170.052 37.514 169.506 36.968 169.11 36.272C168.726 35.576 168.534 34.766 168.534 33.842C168.534 32.906 168.726 32.078 169.11 31.358C169.494 30.638 170.034 30.074 170.73 29.666C171.438 29.246 172.254 29.036 173.178 29.036C174.078 29.036 174.864 29.234 175.536 29.63C176.208 30.014 176.73 30.542 177.102 31.214C177.486 31.886 177.678 32.648 177.678 33.5C177.678 33.62 177.678 33.752 177.678 33.896C177.678 34.04 177.666 34.196 177.642 34.364H170.262V32.87H175.212C175.188 32.306 174.984 31.856 174.6 31.52C174.228 31.184 173.76 31.016 173.196 31.016C172.776 31.016 172.392 31.112 172.044 31.304C171.696 31.484 171.42 31.766 171.216 32.15C171.024 32.522 170.928 32.996 170.928 33.572V34.094C170.928 34.586 171.018 35.012 171.198 35.372C171.39 35.732 171.654 36.014 171.99 36.218C172.338 36.41 172.728 36.506 173.16 36.506C173.604 36.506 173.97 36.41 174.258 36.218C174.558 36.026 174.786 35.774 174.942 35.462H177.426C177.258 36.026 176.97 36.536 176.562 36.992C176.166 37.448 175.68 37.814 175.104 38.09C174.54 38.354 173.898 38.486 173.178 38.486Z" fill="#080808"/>
<rect x="195.091" y="16.77" width="31" height="31" rx="7.5" stroke="#080808"/>
<path d="M203.399 24.853V28.7776H210.871V24.853H203.399Z" fill="#080808"/>
<path d="M214.796 24.8526L210.871 28.7774L210.87 28.7788L210.361 28.7788L210.361 29.2871L201.885 37.7632L204.66 40.5376L213.645 31.5518L213.647 38.9985L217.572 38.9978L217.572 28.7781L217.569 27.6277L217.57 27.627V24.8547L217.568 24.8526L214.796 24.8526Z" fill="#080808"/>
<defs>
<linearGradient id="paint0_linear_4111_632" x1="266.591" y1="0.27002" x2="209.356" y2="172.684" gradientUnits="userSpaceOnUse">
<stop stop-color="#AAD9D1"/>
<stop offset="1" stop-color="#017373"/>
</linearGradient>
</defs>
</svg>
