<svg width="95" height="27" viewBox="0 0 95 27" fill="none" xmlns="http://www.w3.org/2000/svg">
<rect x="0.400024" y="0.5" width="94" height="26" rx="13" fill="url(#paint0_linear_4111_345)"/>
<path d="M20.8373 18.668C20.1187 18.668 19.4933 18.5373 18.9613 18.276C18.4293 18.0147 18.0187 17.6507 17.7293 17.184C17.44 16.7173 17.2953 16.176 17.2953 15.56H18.5273C18.5273 15.9427 18.616 16.2973 18.7933 16.624C18.9707 16.9413 19.2273 17.198 19.5633 17.394C19.9087 17.5807 20.3333 17.674 20.8373 17.674C21.5 17.674 22.0133 17.5153 22.3773 17.198C22.7413 16.8807 22.9233 16.484 22.9233 16.008C22.9233 15.616 22.8393 15.3033 22.6713 15.07C22.5033 14.8273 22.2747 14.6313 21.9853 14.482C21.7053 14.3327 21.3787 14.202 21.0053 14.09C20.6413 13.978 20.2587 13.852 19.8573 13.712C19.1013 13.4507 18.5413 13.1287 18.1773 12.746C17.8133 12.354 17.6313 11.8453 17.6313 11.22C17.622 10.6973 17.7433 10.2353 17.9953 9.834C18.2473 9.42333 18.602 9.106 19.0593 8.882C19.526 8.64867 20.0767 8.532 20.7113 8.532C21.3367 8.532 21.878 8.64867 22.3353 8.882C22.802 9.11533 23.1613 9.43733 23.4133 9.848C23.6747 10.2587 23.81 10.7253 23.8193 11.248H22.5873C22.5873 10.9773 22.5173 10.7113 22.3773 10.45C22.2373 10.1793 22.0227 9.96 21.7333 9.792C21.4533 9.624 21.0987 9.54 20.6693 9.54C20.1373 9.53067 19.6987 9.666 19.3533 9.946C19.0173 10.226 18.8493 10.6133 18.8493 11.108C18.8493 11.528 18.966 11.85 19.1993 12.074C19.442 12.298 19.778 12.4847 20.2073 12.634C20.6367 12.774 21.1313 12.9373 21.6913 13.124C22.158 13.292 22.578 13.488 22.9513 13.712C23.3247 13.936 23.614 14.2253 23.8193 14.58C24.034 14.9347 24.1413 15.3873 24.1413 15.938C24.1413 16.4047 24.02 16.848 23.7773 17.268C23.5347 17.6787 23.166 18.0147 22.6713 18.276C22.186 18.5373 21.5747 18.668 20.8373 18.668ZM28.0491 18.668C27.4704 18.668 26.9897 18.57 26.6071 18.374C26.2244 18.178 25.9397 17.9167 25.7531 17.59C25.5664 17.2633 25.4731 16.9087 25.4731 16.526C25.4731 15.8167 25.7437 15.2707 26.2851 14.888C26.8264 14.5053 27.5637 14.314 28.4971 14.314H30.3731V14.23C30.3731 13.6233 30.2144 13.166 29.8971 12.858C29.5797 12.5407 29.1551 12.382 28.6231 12.382C28.1657 12.382 27.7691 12.4987 27.4331 12.732C27.1064 12.956 26.9011 13.2873 26.8171 13.726H25.6131C25.6597 13.222 25.8277 12.7973 26.1171 12.452C26.4157 12.1067 26.7844 11.8453 27.2231 11.668C27.6617 11.4813 28.1284 11.388 28.6231 11.388C29.5937 11.388 30.3217 11.6493 30.8071 12.172C31.3017 12.6853 31.5491 13.3713 31.5491 14.23V18.5H30.4991L30.4291 17.254C30.2331 17.646 29.9437 17.982 29.5611 18.262C29.1877 18.5327 28.6837 18.668 28.0491 18.668ZM28.2311 17.674C28.6791 17.674 29.0617 17.5573 29.3791 17.324C29.7057 17.0907 29.9531 16.7873 30.1211 16.414C30.2891 16.0407 30.3731 15.6487 30.3731 15.238V15.224H28.5951C27.9044 15.224 27.4144 15.3453 27.1251 15.588C26.8451 15.8213 26.7051 16.1153 26.7051 16.47C26.7051 16.834 26.8357 17.128 27.0971 17.352C27.3677 17.5667 27.7457 17.674 28.2311 17.674ZM35.0555 18.5L32.4235 11.556H33.6555L35.7415 17.366L37.8415 11.556H39.0455L36.4135 18.5H35.0555ZM43.1208 18.668C42.4582 18.668 41.8702 18.5187 41.3568 18.22C40.8435 17.912 40.4375 17.4873 40.1388 16.946C39.8495 16.4047 39.7048 15.7653 39.7048 15.028C39.7048 14.3 39.8495 13.6653 40.1388 13.124C40.4282 12.5733 40.8295 12.1487 41.3428 11.85C41.8655 11.542 42.4675 11.388 43.1488 11.388C43.8208 11.388 44.3995 11.542 44.8848 11.85C45.3795 12.1487 45.7575 12.5453 46.0188 13.04C46.2802 13.5347 46.4108 14.0667 46.4108 14.636C46.4108 14.7387 46.4062 14.8413 46.3968 14.944C46.3968 15.0467 46.3968 15.1633 46.3968 15.294H40.8668C40.8948 15.826 41.0162 16.2693 41.2308 16.624C41.4548 16.9693 41.7302 17.2307 42.0568 17.408C42.3928 17.5853 42.7475 17.674 43.1208 17.674C43.6062 17.674 44.0122 17.562 44.3388 17.338C44.6655 17.114 44.9035 16.8107 45.0528 16.428H46.2148C46.0282 17.072 45.6688 17.6087 45.1368 18.038C44.6142 18.458 43.9422 18.668 43.1208 18.668ZM43.1208 12.382C42.5608 12.382 42.0615 12.5547 41.6228 12.9C41.1935 13.236 40.9462 13.7307 40.8808 14.384H45.2488C45.2208 13.7587 45.0062 13.2687 44.6048 12.914C44.2035 12.5593 43.7088 12.382 43.1208 12.382ZM51.5906 18.5V17.674C52.2533 17.1513 52.8786 16.624 53.4666 16.092C54.064 15.5507 54.5913 15.0187 55.0486 14.496C55.5153 13.9733 55.8793 13.46 56.1406 12.956C56.4113 12.452 56.5466 11.9667 56.5466 11.5C56.5466 11.1547 56.486 10.8327 56.3646 10.534C56.2526 10.2353 56.066 9.99733 55.8046 9.82C55.5433 9.63333 55.1886 9.54 54.7406 9.54C54.3113 9.54 53.952 9.638 53.6626 9.834C53.3733 10.0207 53.154 10.2727 53.0046 10.59C52.8646 10.9073 52.7946 11.248 52.7946 11.612H51.6606C51.6606 10.968 51.796 10.4173 52.0666 9.96C52.3373 9.49333 52.706 9.13867 53.1726 8.896C53.6393 8.65333 54.1666 8.532 54.7546 8.532C55.6226 8.532 56.332 8.77933 56.8826 9.274C57.4426 9.75933 57.7226 10.4873 57.7226 11.458C57.7226 12.0367 57.578 12.6107 57.2886 13.18C56.9993 13.74 56.6306 14.286 56.1826 14.818C55.7346 15.3407 55.254 15.8307 54.7406 16.288C54.2366 16.7453 53.7653 17.156 53.3266 17.52H58.0586V18.5H51.5906ZM63.0883 18.668C62.4163 18.668 61.833 18.5467 61.3383 18.304C60.8437 18.0613 60.447 17.73 60.1483 17.31C59.859 16.8807 59.6817 16.3953 59.6163 15.854H60.7643C60.8763 16.3953 61.1377 16.834 61.5483 17.17C61.959 17.4967 62.477 17.66 63.1023 17.66C63.569 17.66 63.9703 17.5527 64.3063 17.338C64.6423 17.114 64.899 16.8153 65.0763 16.442C65.263 16.0687 65.3563 15.6533 65.3563 15.196C65.3563 14.468 65.151 13.88 64.7403 13.432C64.3297 12.984 63.7977 12.76 63.1443 12.76C62.603 12.76 62.141 12.8813 61.7583 13.124C61.3757 13.3667 61.0957 13.684 60.9183 14.076H59.7983L60.6383 8.7H65.7763V9.722H61.5483L60.9743 12.704C61.1983 12.4333 61.5063 12.2093 61.8983 12.032C62.2997 11.8547 62.757 11.766 63.2703 11.766C63.9143 11.766 64.4743 11.9153 64.9503 12.214C65.4357 12.5127 65.8137 12.9187 66.0843 13.432C66.355 13.9453 66.4903 14.5287 66.4903 15.182C66.4903 15.8073 66.355 16.386 66.0843 16.918C65.823 17.45 65.4357 17.8747 64.9223 18.192C64.4183 18.5093 63.807 18.668 63.0883 18.668ZM70.0926 13.25C69.6726 13.25 69.2899 13.1567 68.9446 12.97C68.6086 12.774 68.3426 12.5033 68.1466 12.158C67.9506 11.8033 67.8526 11.3833 67.8526 10.898C67.8526 10.4127 67.9506 9.99733 68.1466 9.652C68.3519 9.29733 68.6226 9.02667 68.9586 8.84C69.3039 8.644 69.6866 8.546 70.1066 8.546C70.5266 8.546 70.9046 8.644 71.2406 8.84C71.5766 9.02667 71.8426 9.29733 72.0386 9.652C72.2346 9.99733 72.3326 10.4127 72.3326 10.898C72.3326 11.3833 72.2299 11.8033 72.0246 12.158C71.8286 12.5033 71.5626 12.774 71.2266 12.97C70.8906 13.1567 70.5126 13.25 70.0926 13.25ZM69.2246 18.5L74.9226 8.7H76.0986L70.4006 18.5H69.2246ZM70.0926 12.34C70.4193 12.34 70.7039 12.2187 70.9466 11.976C71.1986 11.7333 71.3246 11.374 71.3246 10.898C71.3246 10.4127 71.2033 10.0487 70.9606 9.806C70.7179 9.554 70.4333 9.428 70.1066 9.428C69.7799 9.428 69.4859 9.554 69.2246 9.806C68.9726 10.0487 68.8466 10.4127 68.8466 10.898C68.8466 11.374 68.9726 11.7333 69.2246 11.976C69.4766 12.2187 69.7659 12.34 70.0926 12.34ZM75.3286 18.668C74.9086 18.668 74.5259 18.5747 74.1806 18.388C73.8446 18.192 73.5786 17.9213 73.3826 17.576C73.1866 17.2213 73.0886 16.8013 73.0886 16.316C73.0886 15.8307 73.1866 15.4153 73.3826 15.07C73.5879 14.7153 73.8586 14.4447 74.1946 14.258C74.5306 14.062 74.9086 13.964 75.3286 13.964C75.7486 13.964 76.1266 14.062 76.4626 14.258C76.7986 14.4447 77.0646 14.7153 77.2606 15.07C77.4566 15.4153 77.5546 15.8307 77.5546 16.316C77.5546 16.8013 77.4566 17.2213 77.2606 17.576C77.0646 17.9213 76.7986 18.192 76.4626 18.388C76.1266 18.5747 75.7486 18.668 75.3286 18.668ZM75.3146 17.758C75.6506 17.758 75.9399 17.6367 76.1826 17.394C76.4346 17.1513 76.5606 16.792 76.5606 16.316C76.5606 15.8307 76.4393 15.4667 76.1966 15.224C75.9539 14.9813 75.6646 14.86 75.3286 14.86C75.0019 14.86 74.7126 14.9813 74.4606 15.224C74.2086 15.4667 74.0826 15.8307 74.0826 16.316C74.0826 16.792 74.2039 17.1513 74.4466 17.394C74.6986 17.6367 74.9879 17.758 75.3146 17.758Z" fill="#080808"/>
<defs>
<linearGradient id="paint0_linear_4111_345" x1="94.4" y1="0.5" x2="68.4965" y2="68.3764" gradientUnits="userSpaceOnUse">
<stop stop-color="#AAD9D1"/>
<stop offset="1" stop-color="#017373"/>
</linearGradient>
</defs>
</svg>
